<?xml version="1.0" encoding="UTF-8" standalone="no"?>
<!-- Created with Inkscape (http://www.inkscape.org/) -->
<svg xmlns:rdf="http://www.w3.org/1999/02/22-rdf-syntax-ns#" xmlns="http://www.w3.org/2000/svg" height="100%" width="100%" version="1.1" xmlns:cc="http://creativecommons.org/ns#" xmlns:dc="http://purl.org/dc/elements/1.1/" viewBox="0 0 32 32">
	<metadata>
		<rdf:RDF>
			<cc:Work rdf:about="">
				<dc:format>image/svg+xml</dc:format>
				<dc:type rdf:resource="http://purl.org/dc/dcmitype/StillImage"/>
				<dc:title/>
			</cc:Work>
		</rdf:RDF>
	</metadata>
	<rect stroke-dasharray="none" height="31.478" width="31.478" stroke="#FFC" stroke-miterlimit="4" y="0.26557" x="0.25666" stroke-width="0.5219" fill="#FFC"/>
	<path d="m7.876,8.044c0-0.59199,0.2-1.088,0.6-1.488,0.416-0.41599,0.92-0.62399,1.512-0.624,0.592,0.0000081,1.096,0.20801,1.512,0.624,0.416,0.40001,0.624,0.89601,0.624,1.488-0.000004,0.51201-0.16,0.96-0.48,1.344s-0.728,0.624-1.224,0.72v3.96h-0.816v-3.96c-0.496-0.08-0.912-0.312-1.248-0.696-0.32-0.4-0.48-0.85599-0.48-1.368m0.888,0c-9E-7,0.33601,0.12,0.62401,0.36,0.864,0.24,0.224,0.528,0.336,0.864,0.336,0.352,0.0000048,0.64-0.112,0.864-0.336,0.24-0.23999,0.36-0.52799,0.36-0.864-0.000003-0.33599-0.12-0.62399-0.36-0.864-0.224-0.23999-0.512-0.35999-0.864-0.36-0.336,0.0000072-0.624,0.12001-0.864,0.36-0.24,0.24001-0.36,0.52801-0.36,0.864"/>
	<path d="m19.876,20.044c0-0.59199,0.2-1.088,0.6-1.488,0.416-0.41599,0.92-0.62399,1.512-0.624,0.592,0.000008,1.096,0.20801,1.512,0.624,0.416,0.40001,0.624,0.89601,0.624,1.488-0.000004,0.51201-0.16,0.96-0.48,1.344s-0.728,0.624-1.224,0.72v3.96h-0.816v-3.96c-0.496-0.08-0.912-0.312-1.248-0.696-0.32-0.4-0.48-0.85599-0.48-1.368m0.888,0c0,0.33601,0.12,0.62401,0.36,0.864,0.24,0.224,0.528,0.336,0.864,0.336,0.352,0.000005,0.64-0.112,0.864-0.336,0.24-0.23999,0.36-0.52799,0.36-0.864-0.000003-0.33599-0.12-0.62399-0.36-0.864-0.224-0.23999-0.512-0.35999-0.864-0.36-0.336,0.000007-0.624,0.12001-0.864,0.36-0.24,0.24001-0.36,0.52801-0.36,0.864"/>
</svg>
