<?xml version="1.0" encoding="UTF-8" standalone="no"?>
<!-- Created with Inkscape (http://www.inkscape.org/) -->
<svg xmlns:rdf="http://www.w3.org/1999/02/22-rdf-syntax-ns#" xmlns="http://www.w3.org/2000/svg" version="1.1" xmlns:cc="http://creativecommons.org/ns#" xmlns:dc="http://purl.org/dc/elements/1.1/" viewBox="0 0 32 32">
	<metadata>
		<rdf:RDF>
			<cc:Work rdf:about="">
				<dc:format>image/svg+xml</dc:format>
				<dc:type rdf:resource="http://purl.org/dc/dcmitype/StillImage"/>
				<dc:title/>
			</cc:Work>
		</rdf:RDF>
	</metadata>
	<g transform="translate(0,-1020.3622)">
		<g transform="translate(-155.46426,318.79726)">
			<rect stroke-linejoin="miter" style="enable-background:accumulate;color:#000000;" stroke-dasharray="none" fill-rule="nonzero" stroke-dashoffset="0" height="31.478" width="31.478" stroke="#c9eb70" stroke-linecap="butt" stroke-miterlimit="4" y="701.83" x="155.73" stroke-width="0.52152" fill="#c9eb70"/>
			<g style="letter-spacing:0px;word-spacing:0px;" font-weight="normal" font-size="12px" font-style="normal" font-stretch="normal" line-height="125%" font-variant="normal" font-family="ESRI ArcGIS TDN" fill="#000">
				<path d="m179.85,719.86,0.312,0.384,0.384,1.056,0.192,0.648,0,0.84-0.744,0.192-0.312-0.888-0.264,0.408-0.432,1.2-0.264,1.56,0,4.752-1.104,0,0-4.416,0.168-1.152,0.312-1.176c0.064-0.20799,0.18399-0.62399,0.36-1.248,0.048-0.17599,0.17599-0.48799,0.384-0.936,0.25599-0.57599,0.59199-0.98399,1.008-1.224m-6.072,5.376,0.984-0.36,1.92,5.112-1.08,0.024-1.824-4.776m-1.848,3.48,0.888-0.552,1.392,1.824-1.104,0.024-1.176-1.296m8.28-2.448,1.08,0.264-0.648,3.504-1.056,0,0.624-3.768m1.896,1.8,0.984,0.432-0.624,1.488-1.08,0.024,0.72-1.944"/>
			</g>
		</g>
	</g>
</svg>
