<?xml version="1.0" encoding="utf-8"?>
<svg version="1.0" xmlns="http://www.w3.org/2000/svg" xmlns:xlink="http://www.w3.org/1999/xlink" x="0px" y="0px" width="25px" height="37px">
<g>
	<path fill="#FFFFFF" d="M9.638,20.751V5.305c0-0.658,0.423-1.231,1.052-1.425l11.632-3.564c0.143-0.043,0.288-0.065,0.437-0.065
		c0.606,0,1.146,0.362,1.379,0.922c0.295,0.716,0,1.527-0.685,1.887L12.619,8.779v11.972H9.638z"/>
	<path fill="#FFFFFF" d="M22.759,0.501c0.49,0,0.95,0.292,1.146,0.768c0.244,0.592-0.002,1.272-0.568,1.57L12.369,8.628v11.873
		H9.888V5.305c0-0.544,0.355-1.026,0.876-1.187l11.631-3.563C22.517,0.518,22.64,0.501,22.759,0.501 M22.759,0.001
		c-0.172,0-0.344,0.026-0.51,0.077L10.617,3.641C9.881,3.868,9.388,4.537,9.388,5.305v15.196v0.5h0.5h2.481h0.5v-0.5V8.93
		l10.7-5.649c0.8-0.42,1.143-1.368,0.798-2.203C24.099,0.423,23.467,0.001,22.759,0.001L22.759,0.001z"/>
</g>
<path fill="#DE7233" d="M12.369,20.501H9.888V5.306c0-0.544,0.355-1.026,0.876-1.187l11.631-3.563
	c0.61-0.187,1.266,0.121,1.51,0.713c0.244,0.592-0.002,1.272-0.568,1.57l-10.968,5.79V20.501L12.369,20.501z"/>
</svg>
