<?xml version="1.0" encoding="utf-8"?>
<svg version="1.0" xmlns="http://www.w3.org/2000/svg" xmlns:xlink="http://www.w3.org/1999/xlink" width="30px" height="31px">
<g>
	<g>
		<path fill="#BD2877" d="M9.033,17.75v-2.665h3.058V2.769c0.111-0.728,0.513-1.632,1.315-2.103c0.399-0.27,0.894-0.416,1.416-0.416
			c1.125,0,2.153,0.657,2.558,1.635c0.038,0.12,0.071,0.212,0.103,0.3c0.113,0.317,0.22,0.617,0.188,1.012l0.001,11.888h3.295v2.665
			H9.033z"/>
		<path fill="#FFFFFF" d="M14.822,0.5c0.969,0,1.944,0.556,2.327,1.48c0.141,0.445,0.307,0.753,0.272,1.198v12.156h0.001h3.294V17.5
			H9.283v-2.165h3.058V2.769c0.113-0.72,0.519-1.492,1.191-1.887C13.92,0.622,14.371,0.5,14.822,0.5 M14.822,0
			c-0.572,0-1.115,0.162-1.569,0.467c-0.708,0.414-1.256,1.272-1.406,2.224L11.841,2.73v0.039v12.066H9.283h-0.5v0.5V17.5V18h0.5
			h11.434h0.5v-0.5v-2.165v-0.5h-0.5h-2.794L17.922,3.179c0.032-0.41-0.088-0.749-0.204-1.077c-0.03-0.086-0.063-0.175-0.093-0.272
			C17.168,0.72,16.048,0,14.822,0L14.822,0z"/>
	</g>
	<path fill="#BD2877" d="M17.422,15.335h3.295V17.5H9.283v-2.165h3.058V2.769c0.113-0.72,0.519-1.492,1.191-1.887
		c1.219-0.82,3.056-0.257,3.616,1.099c0.141,0.445,0.307,0.753,0.272,1.198L17.422,15.335L17.422,15.335z"/>
</g>
</svg>
