<?xml version="1.0" encoding="utf-8"?>
<svg version="1.1" xmlns="http://www.w3.org/2000/svg" xmlns:xlink="http://www.w3.org/1999/xlink" width="20px" height="13px">
<g>
	<polygon fill="#DE7233" points="15.055,7.195 15.055,2.549 4.946,2.549 4.946,7.195 2.647,7.195 2.647,2.549 1.25,2.549 1.25,0.25 
		18.75,0.25 18.75,2.549 17.354,2.549 17.354,7.195 	"/>
	<path fill="#FFFFFF" d="M18.5,0.5v1.799h-1.396v4.646h-1.799V2.299H4.696v4.646H2.897V2.299H1.5V0.5H18.5 M19,0h-0.5h-17H1v0.5
		v1.799v0.5h0.5h0.897v4.146v0.5h0.5h1.799h0.5v-0.5V2.799h9.607v4.146v0.5h0.5h1.799h0.5v-0.5V2.799H18.5H19v-0.5V0.5V0L19,0z"/>
</g>
<polygon fill="#DE7233" points="2.897,2.299 2.897,6.945 4.696,6.945 4.696,2.299 15.305,2.299 15.305,6.945 17.104,6.945 
	17.104,2.299 18.5,2.299 18.5,0.5 1.5,0.5 1.5,2.299 "/>
</svg>
