<?xml version="1.0" encoding="utf-8"?>
<svg version="1.1" xmlns="http://www.w3.org/2000/svg" xmlns:xlink="http://www.w3.org/1999/xlink" width="24.426px" height="24.428px">
<g>
	<path fill="#FFFFFF" d="M12.214,1.413l10.798,10.799l-10.8,10.801l-10.798-10.8L12.214,1.413 M12.214-0.001l-0.707,0.707
		l-10.8,10.8L0,12.213l0.707,0.708L11.506,23.72l0.707,0.707l0.708-0.707l10.799-10.801l0.707-0.707l-0.707-0.707L12.92,0.706
		L12.214-0.001L12.214-0.001z"/>
</g>
<rect x="4.575" y="4.576" transform="matrix(0.707 -0.7072 0.7072 0.707 -5.0587 12.2136)" fill="#693380" fill-opacity="0.2" stroke="#693380" width="15.273" height="15.272"/>
<polygon fill="#693380" points="11.879,13.7 13.793,13.7 13.793,19.266 16.344,19.266 16.344,13.7 18.256,13.7 18.256,11.149 
	16.344,11.149 16.344,9.061 13.793,9.061 13.793,11.149 11.879,11.149 "/>
<polygon fill="#693380" points="6.167,9.8 8.081,9.8 8.081,15.365 10.631,15.365 10.631,9.8 12.544,9.8 12.544,7.249 10.631,7.249 
	10.631,5.159 8.081,5.159 8.081,7.249 6.167,7.249 "/>
</svg>
