<?xml version="1.0" encoding="utf-8"?>
<svg version="1.1" xmlns="http://www.w3.org/2000/svg" xmlns:xlink="http://www.w3.org/1999/xlink" width="21px" height="20px">
<g>
	<path fill="#BD2877" d="M10.576,17.473c-5.652,0-10.25-3.32-10.25-7.402c0-4.084,4.598-7.406,10.25-7.406
		c5.652,0.002,10.25,3.324,10.25,7.406S16.229,17.473,10.576,17.473z M10.576,4.192c-4.81,0-8.722,2.637-8.722,5.878
		c0,3.239,3.913,5.875,8.722,5.875c4.809,0,8.723-2.636,8.723-5.875C19.299,6.832,15.387,4.194,10.576,4.192L10.576,4.192z"/>
	<path fill="#FFFFFF" d="M10.576,2.915c5.514,0.002,10,3.213,10,7.156c0,3.943-4.486,7.152-10,7.152c-5.514,0-10-3.209-10-7.152
		C0.576,6.125,5.062,2.915,10.576,2.915 M10.576,16.195c4.948,0,8.973-2.748,8.973-6.125s-4.023-6.126-8.973-6.128
		c-4.948,0-8.972,2.749-8.972,6.128C1.604,13.447,5.628,16.195,10.576,16.195 M10.576,2.415L10.576,2.415
		c-5.79,0-10.5,3.435-10.5,7.656s4.71,7.652,10.5,7.652s10.5-3.434,10.5-7.652S16.366,2.417,10.576,2.415L10.576,2.415z
		 M10.576,15.695c-4.671,0-8.472-2.523-8.472-5.625c0-3.104,3.801-5.628,8.472-5.628c4.672,0.002,8.473,2.527,8.473,5.628
		C19.049,13.172,15.248,15.695,10.576,15.695L10.576,15.695z"/>
</g>
<g>
	<path fill="#BD2877" d="M4.955,13.582V6.49h2.898c0.71,0,1.274,0.191,1.676,0.569C9.935,7.44,10.14,7.958,10.14,8.595
		c0,0.212-0.031,0.409-0.093,0.584C9.988,9.35,9.908,9.503,9.811,9.636C9.725,9.755,9.632,9.858,9.533,9.945
		c0.129,0.093,0.246,0.208,0.346,0.345c0.102,0.14,0.186,0.303,0.251,0.484c0.068,0.19,0.103,0.414,0.103,0.663
		c0,0.339-0.057,0.646-0.168,0.91c-0.113,0.269-0.275,0.496-0.48,0.681c-0.2,0.183-0.445,0.322-0.725,0.417
		c-0.272,0.091-0.573,0.137-0.896,0.137H4.955z M7.835,11.935c0.222,0,0.374-0.052,0.464-0.154c0.099-0.114,0.147-0.249,0.147-0.411
		c0-0.16-0.047-0.292-0.146-0.402c-0.089-0.102-0.246-0.151-0.466-0.151H6.743v1.12L7.835,11.935L7.835,11.935z M7.752,9.167
		c0.209,0,0.365-0.047,0.461-0.14c0.096-0.093,0.141-0.212,0.141-0.375c0-0.162-0.045-0.281-0.141-0.375
		C8.117,8.186,7.961,8.138,7.752,8.138H6.743v1.028H7.752z"/>
	<path fill="#FFFFFF" d="M7.854,6.74c0.648,0,1.149,0.167,1.504,0.501c0.355,0.333,0.533,0.785,0.533,1.354
		c0,0.186-0.026,0.353-0.079,0.501C9.759,9.244,9.691,9.376,9.608,9.49C9.525,9.604,9.435,9.701,9.34,9.781
		c-0.096,0.081-0.184,0.14-0.264,0.177c0.099,0.049,0.202,0.112,0.31,0.189s0.206,0.174,0.292,0.291
		c0.086,0.118,0.159,0.258,0.217,0.421c0.058,0.163,0.088,0.355,0.088,0.578c0,0.308-0.05,0.579-0.148,0.814
		c-0.099,0.232-0.238,0.431-0.417,0.59c-0.179,0.162-0.392,0.283-0.639,0.367c-0.247,0.082-0.518,0.123-0.815,0.123H5.205V6.74
		H7.854 M6.493,9.417h1.259c0.278,0,0.489-0.07,0.634-0.209c0.145-0.14,0.218-0.325,0.218-0.555c0-0.229-0.073-0.414-0.217-0.554
		c-0.146-0.14-0.357-0.21-0.635-0.21H6.493V9.417 M6.493,12.185h1.343c0.296,0,0.514-0.08,0.653-0.241
		c0.139-0.16,0.208-0.352,0.208-0.574c0-0.222-0.07-0.412-0.208-0.568c-0.139-0.156-0.356-0.235-0.653-0.235H6.493V12.185
		 M7.854,6.24H5.205h-0.5v0.5v6.592v0.5h0.5h2.759c0.349,0,0.676-0.05,0.973-0.147c0.316-0.107,0.59-0.267,0.817-0.472
		c0.231-0.205,0.414-0.465,0.542-0.767c0.125-0.298,0.188-0.637,0.188-1.009c0-0.278-0.04-0.529-0.118-0.747
		c-0.074-0.205-0.169-0.389-0.284-0.546c-0.057-0.078-0.119-0.15-0.184-0.215c0.039-0.046,0.077-0.094,0.114-0.145
		c0.111-0.153,0.203-0.329,0.271-0.521c0.071-0.203,0.107-0.428,0.107-0.668c0-0.709-0.232-1.288-0.69-1.718
		C9.252,6.454,8.63,6.24,7.854,6.24L7.854,6.24z M6.993,8.388h0.759c0.139,0,0.241,0.025,0.289,0.07
		c0.02,0.019,0.063,0.062,0.063,0.193c0,0.132-0.044,0.175-0.065,0.195c-0.046,0.045-0.149,0.07-0.287,0.07H6.993V8.388L6.993,8.388
		z M6.993,11.064h0.843c0.137,0,0.241,0.025,0.278,0.066c0.058,0.065,0.083,0.139,0.083,0.237c0,0.103-0.027,0.179-0.086,0.247
		c-0.038,0.044-0.138,0.068-0.275,0.068H6.993V11.064L6.993,11.064z"/>
</g>
<g>
	<path fill="#BD2877" d="M13.512,13.639c-0.408,0-0.776-0.069-1.098-0.205c-0.318-0.137-0.609-0.336-0.865-0.592
		c-0.186-0.183-0.332-0.385-0.435-0.603c-0.099-0.204-0.169-0.431-0.21-0.671c-0.039-0.227-0.062-0.471-0.069-0.73
		c-0.006-0.248-0.009-0.517-0.009-0.803c0-0.286,0.003-0.553,0.009-0.802c0.007-0.261,0.03-0.504,0.069-0.731
		c0.042-0.24,0.111-0.466,0.21-0.672c0.104-0.217,0.249-0.419,0.435-0.603c0.256-0.256,0.547-0.455,0.865-0.589
		c0.319-0.136,0.688-0.205,1.098-0.205c0.406,0,0.774,0.069,1.094,0.205c0.316,0.136,0.604,0.334,0.861,0.59
		c0.186,0.185,0.33,0.387,0.434,0.601c0.097,0.203,0.169,0.428,0.215,0.668c0.042,0.229,0.066,0.474,0.072,0.735
		c0.007,0.249,0.01,0.516,0.01,0.802c0,0.286-0.003,0.554-0.01,0.802c-0.006,0.262-0.03,0.508-0.072,0.735
		c-0.046,0.242-0.118,0.466-0.215,0.668c-0.102,0.214-0.248,0.417-0.436,0.603c-0.254,0.254-0.543,0.453-0.856,0.59
		C14.285,13.569,13.917,13.639,13.512,13.639z M13.512,8.083c-0.144,0-0.268,0.024-0.377,0.075c-0.11,0.051-0.201,0.115-0.269,0.192
		c-0.05,0.055-0.087,0.11-0.114,0.168c-0.021,0.046-0.054,0.128-0.078,0.267c-0.021,0.127-0.037,0.288-0.047,0.481
		c-0.009,0.203-0.014,0.46-0.014,0.771c0,0.311,0.005,0.568,0.014,0.771c0.01,0.192,0.023,0.354,0.047,0.479
		c0.024,0.14,0.057,0.222,0.077,0.267c0.028,0.061,0.066,0.117,0.112,0.168c0.068,0.078,0.16,0.145,0.271,0.195
		c0.107,0.049,0.235,0.073,0.377,0.073c0.14,0,0.266-0.024,0.371-0.073c0.105-0.051,0.195-0.115,0.264-0.193
		c0.05-0.055,0.091-0.113,0.125-0.18c0.021-0.039,0.053-0.119,0.076-0.254c0.023-0.129,0.039-0.289,0.047-0.48
		c0.011-0.206,0.015-0.462,0.015-0.772c0-0.309-0.004-0.565-0.015-0.769c-0.008-0.196-0.022-0.355-0.047-0.481
		c-0.023-0.138-0.055-0.218-0.078-0.261c-0.031-0.062-0.072-0.121-0.12-0.173c-0.07-0.081-0.159-0.146-0.267-0.196
		C13.777,8.107,13.652,8.083,13.512,8.083z"/>
	<path fill="#FFFFFF" d="M13.512,6.685c0.377,0,0.707,0.062,0.996,0.185c0.286,0.124,0.547,0.303,0.781,0.537
		c0.167,0.167,0.295,0.344,0.385,0.532s0.153,0.391,0.194,0.607c0.04,0.216,0.063,0.447,0.069,0.694s0.009,0.512,0.009,0.796
		c0,0.284-0.003,0.551-0.009,0.797s-0.029,0.479-0.069,0.694c-0.041,0.216-0.104,0.418-0.194,0.604
		c-0.09,0.189-0.218,0.367-0.385,0.533c-0.234,0.234-0.495,0.413-0.781,0.537c-0.289,0.123-0.619,0.186-0.996,0.186
		s-0.711-0.063-1-0.186c-0.291-0.124-0.553-0.303-0.787-0.537c-0.168-0.166-0.295-0.344-0.385-0.533
		c-0.09-0.188-0.152-0.39-0.188-0.604c-0.037-0.215-0.06-0.448-0.065-0.694s-0.009-0.513-0.009-0.797
		c0-0.284,0.003-0.549,0.009-0.796c0.008-0.247,0.028-0.479,0.065-0.694c0.036-0.216,0.1-0.418,0.188-0.607
		c0.09-0.188,0.217-0.366,0.385-0.532c0.234-0.234,0.496-0.414,0.787-0.537C12.801,6.747,13.135,6.685,13.512,6.685 M13.512,12.24
		c0.178,0,0.338-0.033,0.478-0.097c0.139-0.065,0.255-0.15,0.347-0.255c0.063-0.068,0.114-0.146,0.158-0.229
		c0.043-0.083,0.077-0.191,0.102-0.328c0.024-0.136,0.043-0.308,0.051-0.515c0.011-0.206,0.015-0.467,0.015-0.782
		c0-0.314-0.004-0.575-0.015-0.782c-0.008-0.207-0.025-0.378-0.051-0.514c-0.023-0.136-0.059-0.246-0.102-0.329
		c-0.044-0.083-0.098-0.159-0.158-0.227c-0.092-0.105-0.208-0.19-0.347-0.254c-0.14-0.065-0.3-0.098-0.478-0.098
		c-0.18,0-0.34,0.033-0.48,0.098c-0.143,0.064-0.262,0.149-0.354,0.254c-0.062,0.068-0.113,0.144-0.151,0.227
		c-0.04,0.083-0.073,0.193-0.099,0.329c-0.024,0.136-0.041,0.307-0.051,0.514c-0.009,0.207-0.014,0.468-0.014,0.782
		c0,0.315,0.005,0.576,0.014,0.782c0.01,0.207,0.026,0.379,0.051,0.515c0.024,0.137,0.059,0.245,0.099,0.328
		c0.038,0.083,0.091,0.159,0.151,0.229c0.092,0.104,0.211,0.188,0.354,0.255C13.172,12.207,13.332,12.24,13.512,12.24 M13.512,6.185
		c-0.441,0-0.845,0.076-1.195,0.225c-0.348,0.147-0.665,0.364-0.944,0.644c-0.204,0.202-0.366,0.428-0.482,0.67
		c-0.108,0.228-0.186,0.476-0.231,0.738c-0.041,0.236-0.065,0.493-0.073,0.765c-0.007,0.253-0.01,0.522-0.01,0.81
		c0,0.289,0.003,0.558,0.009,0.808c0.008,0.274,0.032,0.533,0.073,0.77c0.045,0.264,0.123,0.512,0.231,0.736
		c0.115,0.242,0.278,0.469,0.484,0.673c0.276,0.276,0.596,0.493,0.941,0.642c0.353,0.149,0.755,0.227,1.197,0.227
		c0.438,0,0.84-0.076,1.191-0.227c0.348-0.15,0.661-0.365,0.938-0.644c0.207-0.204,0.369-0.431,0.483-0.673
		c0.104-0.219,0.185-0.465,0.233-0.727c0.046-0.244,0.07-0.506,0.078-0.777c0.006-0.25,0.009-0.519,0.009-0.808
		c0-0.288-0.003-0.557-0.009-0.808c-0.008-0.271-0.032-0.531-0.078-0.774c-0.051-0.264-0.129-0.509-0.234-0.731
		c-0.113-0.24-0.277-0.466-0.482-0.671c-0.277-0.278-0.592-0.494-0.937-0.642C14.352,6.26,13.952,6.185,13.512,6.185L13.512,6.185z
		 M13.512,11.74c-0.105,0-0.197-0.018-0.276-0.053c-0.074-0.035-0.138-0.079-0.181-0.129c-0.035-0.038-0.06-0.073-0.076-0.11
		c-0.012-0.024-0.036-0.084-0.059-0.204c-0.021-0.111-0.035-0.262-0.044-0.449c-0.008-0.197-0.013-0.452-0.013-0.759
		c0-0.306,0.005-0.56,0.014-0.761c0.008-0.184,0.022-0.335,0.043-0.446c0.021-0.121,0.047-0.181,0.057-0.201
		c0.02-0.04,0.043-0.074,0.072-0.107c0.049-0.057,0.11-0.1,0.188-0.135c0.077-0.035,0.167-0.053,0.274-0.053
		c0.104,0,0.192,0.017,0.265,0.05c0.075,0.036,0.138,0.08,0.183,0.131c0.039,0.043,0.067,0.085,0.092,0.131
		c0.008,0.013,0.03,0.067,0.051,0.18c0.022,0.123,0.037,0.271,0.043,0.448c0.012,0.207,0.016,0.459,0.016,0.763
		c0,0.305-0.004,0.558-0.014,0.757c-0.008,0.183-0.021,0.334-0.043,0.446c-0.021,0.121-0.045,0.175-0.055,0.192
		c-0.021,0.043-0.052,0.085-0.086,0.123c-0.049,0.056-0.111,0.101-0.188,0.137C13.706,11.723,13.615,11.74,13.512,11.74
		L13.512,11.74z"/>
</g>
<path fill="#BD2877" d="M10.576,17.19c-5.514,0-10-3.209-10-7.152c0-3.945,4.486-7.156,10-7.156c5.514,0.002,10,3.213,10,7.156
	C20.576,13.981,16.09,17.19,10.576,17.19z M10.576,3.91c-4.948,0-8.972,2.749-8.972,6.128c0,3.375,4.024,6.125,8.972,6.125
	s8.973-2.748,8.973-6.125S15.524,3.912,10.576,3.91z"/>
<path fill="#BD2877" d="M9.984,11.405c0,0.308-0.05,0.579-0.148,0.813c-0.099,0.233-0.238,0.432-0.417,0.591
	c-0.179,0.161-0.392,0.282-0.639,0.366c-0.247,0.082-0.518,0.123-0.815,0.123h-2.76v-6.59h2.648c0.648,0,1.149,0.167,1.504,0.501
	C9.712,7.542,9.89,7.994,9.89,8.563c0,0.186-0.026,0.353-0.079,0.501C9.758,9.212,9.69,9.344,9.607,9.458
	C9.525,9.571,9.435,9.669,9.34,9.75C9.244,9.831,9.156,9.888,9.076,9.925c0.099,0.049,0.202,0.112,0.31,0.189
	s0.206,0.174,0.292,0.291c0.086,0.118,0.159,0.259,0.217,0.421C9.953,10.989,9.984,11.183,9.984,11.405L9.984,11.405z M8.604,8.619
	c0-0.229-0.073-0.414-0.217-0.554C8.241,7.925,8.03,7.856,7.752,7.856H6.493v1.528h1.259c0.278,0,0.489-0.07,0.634-0.209
	C8.531,9.034,8.604,8.85,8.604,8.619L8.604,8.619z M8.697,11.338c0-0.223-0.07-0.412-0.208-0.568
	c-0.139-0.157-0.356-0.236-0.653-0.236H6.493v1.62h1.343c0.296,0,0.514-0.08,0.653-0.241C8.627,11.752,8.697,11.56,8.697,11.338
	L8.697,11.338z"/>
<path fill="#BD2877" d="M15.946,10.004c0,0.284-0.003,0.55-0.009,0.796s-0.029,0.479-0.069,0.694
	c-0.041,0.216-0.104,0.419-0.194,0.605c-0.09,0.188-0.218,0.366-0.385,0.532c-0.234,0.234-0.495,0.414-0.781,0.537
	c-0.289,0.123-0.619,0.187-0.996,0.187s-0.711-0.063-1-0.187c-0.291-0.123-0.553-0.303-0.787-0.537
	c-0.168-0.166-0.295-0.344-0.385-0.532s-0.152-0.39-0.188-0.605c-0.037-0.215-0.06-0.448-0.065-0.694
	c-0.007-0.248-0.01-0.512-0.01-0.796s0.003-0.549,0.009-0.796c0.007-0.247,0.028-0.479,0.065-0.694
	c0.037-0.216,0.1-0.418,0.189-0.607c0.09-0.188,0.217-0.366,0.385-0.532c0.233-0.234,0.496-0.414,0.787-0.537
	c0.289-0.123,0.623-0.185,1-0.185s0.707,0.062,0.996,0.185c0.285,0.124,0.547,0.303,0.78,0.537c0.167,0.167,0.295,0.344,0.386,0.532
	c0.09,0.188,0.152,0.391,0.193,0.607c0.04,0.216,0.063,0.447,0.068,0.694C15.942,9.456,15.946,9.72,15.946,10.004z M14.659,10.004
	c0-0.314-0.004-0.575-0.015-0.782c-0.008-0.207-0.025-0.378-0.051-0.514c-0.023-0.136-0.059-0.246-0.102-0.329
	c-0.044-0.083-0.098-0.159-0.158-0.227c-0.092-0.105-0.208-0.19-0.347-0.254c-0.14-0.065-0.3-0.098-0.478-0.098
	c-0.18,0-0.34,0.033-0.48,0.098c-0.143,0.064-0.262,0.149-0.354,0.254c-0.062,0.068-0.113,0.144-0.151,0.227
	c-0.04,0.083-0.073,0.193-0.099,0.329c-0.024,0.136-0.041,0.307-0.051,0.514c-0.009,0.207-0.014,0.468-0.014,0.782
	c0,0.315,0.005,0.576,0.014,0.782c0.01,0.207,0.026,0.38,0.051,0.515c0.024,0.137,0.059,0.246,0.099,0.328
	c0.038,0.084,0.091,0.16,0.151,0.229c0.092,0.104,0.211,0.189,0.354,0.255c0.143,0.063,0.302,0.097,0.48,0.097
	c0.178,0,0.338-0.033,0.478-0.097c0.139-0.065,0.255-0.149,0.347-0.255c0.063-0.068,0.114-0.145,0.158-0.229
	c0.043-0.082,0.077-0.191,0.102-0.328c0.024-0.135,0.043-0.308,0.051-0.515C14.655,10.58,14.659,10.319,14.659,10.004z"/>
</svg>
