<?xml version="1.0" encoding="utf-8"?>
<svg version="1.1" xmlns="http://www.w3.org/2000/svg" xmlns:xlink="http://www.w3.org/1999/xlink" width="25px" height="25px">
<g>
	
		<rect x="4.365" y="4.364" transform="matrix(0.7071 -0.7071 0.7071 0.7071 -5.1771 12.5)" fill="#FFFFFF" width="16.273" height="16.272"/>
	<path fill="#FFFFFF" d="M12.5,1.7l10.799,10.799l-10.8,10.802L1.7,12.5L12.5,1.7 M12.5,0.286l-0.707,0.707l-10.8,10.8L0.286,12.5
		l0.707,0.707l10.798,10.801l0.707,0.707l0.707-0.707l10.801-10.802l0.707-0.707l-0.707-0.707L13.207,0.993L12.5,0.286L12.5,0.286z"
		/>
</g>
<rect x="4.863" y="4.863" transform="matrix(0.7071 -0.7071 0.7071 0.7071 -5.1772 12.5004)" fill="#693380" fill-opacity="0.2" stroke="#693380" width="15.273" height="15.272"/>
<g>
	<g>
		<defs>
			
				<rect id="SVGID_1_" x="4.863" y="4.864" transform="matrix(0.7071 -0.7071 0.7071 0.7071 -5.1776 12.5012)" width="15.275" height="15.273"/>
		</defs>
		<clipPath id="SVGID_2_">
			<use xlink:href="#SVGID_1_"  overflow="visible"/>
		</clipPath>
		<path clip-path="url(#SVGID_2_)" fill="#693380" d="M18.021,14.969L18.021,14.969c0.002,0-0.145-1.102-0.145-1.102V8.824
			c0-0.537-0.18-0.977-0.547-1.347l-2.334-2.33c-0.16,0-0.607,0.45-0.607,0.45c0,0.16,1.16,1.31,1.16,1.31l-0.033,1.96
			c0,0.69,0.563,1.26,1.266,1.26h0.313l-0.113,3.74l0.156,1.291l0.701,3.777c0.027,0.621-0.533,0.99-0.979,0.99
			c-0.406,0-0.885-0.35-0.885-0.779l0.008-6.641c0-0.81-0.654-1.46-1.461-1.46h-1.309c0.1-0.01,0-4.35,0-5.27V5.612
			c0-0.785-0.644-1.425-1.427-1.425H7.67c-0.788,0-1.428,0.64-1.428,1.42v15.159h6.971V11.98h1.322
			c0.301-0.002,0.547,0.248,0.547,0.547v6.62c0,0.893,0.828,1.662,1.773,1.662c0.895,0,1.895-0.711,1.895-1.66
			C18.738,18.928,18.021,14.969,18.021,14.969L18.021,14.969z M16.977,9.528c-0.521-0.12-0.709-0.39-0.709-0.63V8.001
			c0-0.004,0.348,0.076,0.43,0.096c0.17,0.04,0.275,0.31,0.279,0.53C16.979,8.858,16.977,9.528,16.977,9.528z M12.177,9.078
			c0,0.22-0.172,0.39-0.392,0.39H7.67c-0.222,0-0.395-0.17-0.395-0.39V5.612c0-0.214,0.173-0.395,0.395-0.395h4.115
			c0.22,0,0.392,0.18,0.392,0.39V9.078L12.177,9.078z"/>
	</g>
</g>
</svg>
