<?xml version="1.0" encoding="utf-8"?>
<svg version="1.1" xmlns="http://www.w3.org/2000/svg" xmlns:xlink="http://www.w3.org/1999/xlink" width="21px" height="24px">
<g>
	<polygon fill="#228CCC" points="0.427,15.1 0.427,13.189 5.179,13.189 12.791,0.636 16.846,13.189 20.928,13.189 20.928,15.1 	"/>
	<path fill="#FFFFFF" d="M12.723,1.233l3.941,12.206h4.014v1.41h-20v-1.41H5.32L12.723,1.233 M12.861,0.04l-0.566,0.935
		L5.038,12.939H0.677h-0.5v0.5v1.41v0.5h0.5h20h0.5v-0.5v-1.41v-0.5h-0.5h-3.648L13.197,1.08L12.861,0.04L12.861,0.04z"/>
</g>
<polygon fill="#228CCC" points="0.677,14.85 20.678,14.85 20.678,13.439 16.664,13.439 12.723,1.233 5.32,13.439 0.677,13.439 "/>
</svg>
