<?xml version="1.0" encoding="UTF-8" standalone="no"?>
<svg xmlns="http://www.w3.org/2000/svg" height="25px" width="25px" version="1.1">
<defs>
<clipPath id="clipPath3000" clipPathUnits="userSpaceOnUse">
<g fill="none" transform="matrix(1.018562,0,0,1.018562,-0.0626114,-0.4635435)">
<rect transform="matrix(0.7071,-0.7071,0.7071,0.7071,-6.278,15.155)" height="15.271" width="15.273" stroke="#693380" y="7.52" x="7.518" stroke-width="0.9818" fill="none"/>
</g>
</clipPath>
</defs>
<path d="M12.501,1.7l10.799,10.799-10.801,10.802-10.798-10.801,10.8-10.8m0-1.414l-0.707,0.707-10.8,10.8-0.708,0.707,0.707,0.707,10.799,10.801,0.707,0.707,0.707-0.707,10.801-10.801,0.707-0.708-0.707-0.707-10.799-10.799-0.707-0.707z" fill="#FFF"/>
<g transform="matrix(1.018562,0,0,1.018562,-2.9357296,-2.9362833)">
<rect fill-opacity="0.2" transform="matrix(0.7071 -0.7071 0.7071 0.7071 -6.278 15.155)" height="15.271" width="15.273" stroke="#693380" y="7.52" x="7.518" stroke-width="0.9818" fill="#693380"/>
</g>
<g clip-path="url(#clipPath3000)" transform="translate(-2.8731182,-2.4727398)">
<path d="M22.017,21.551v-6.978l-6.84-5.776-6.848,5.775v6.979h13.688zm-5.555-5.578l3.158-0.016v2.76h-3.158v-2.744zm-5.257,0.035l3.532-0.018v5.311h-3.532v-5.293z" fill="#693380"/>
</g>
</svg>
