<?xml version="1.0" encoding="utf-8"?>
<svg version="1.1" xmlns="http://www.w3.org/2000/svg" xmlns:xlink="http://www.w3.org/1999/xlink" width="20px" height="27px">
<g>
	<path fill="#228CCC" d="M3.314,12.137c-0.123,0-0.227-0.089-0.247-0.209c-0.02-0.121,0.051-0.238,0.167-0.277
		c0.102-0.035,2.503-0.879,2.503-3.774c0-0.845-0.646-1.83-1.271-2.781c-0.8-1.219-1.556-2.371-1.044-3.319
		C3.993,0.721,6.021,0.25,10,0.25s6.006,0.471,6.577,1.526c0.512,0.948-0.244,2.1-1.043,3.319c-0.625,0.952-1.271,1.936-1.271,2.781
		c0,2.895,2.4,3.74,2.504,3.774c0.115,0.039,0.188,0.156,0.166,0.277c-0.02,0.121-0.123,0.209-0.246,0.209H3.314V12.137z"/>
	<path fill="#FFFFFF" d="M10,0.5c11.7,0,4.012,4.257,4.012,7.376c0,3.12,2.674,4.011,2.674,4.011H3.314c0,0,2.674-0.891,2.674-4.011
		C5.988,4.757-1.702,0.5,10,0.5 M10,0C5.862,0,3.831,0.496,3.204,1.657c-0.583,1.08,0.25,2.348,1.055,3.575
		c0.604,0.921,1.23,1.874,1.23,2.644c0,2.706-2.239,3.505-2.334,3.538c-0.231,0.079-0.372,0.314-0.332,0.556
		c0.04,0.241,0.248,0.418,0.492,0.418h13.371c0.246,0,0.455-0.178,0.494-0.42c0.039-0.242-0.104-0.477-0.336-0.554
		c-0.094-0.032-2.332-0.831-2.332-3.537c0-0.771,0.625-1.723,1.229-2.644c0.805-1.227,1.637-2.495,1.055-3.575
		C16.168,0.496,14.137,0,10,0L10,0z"/>
</g>
<g>
	<rect x="3.064" y="12.91" fill="#228CCC" width="13.871" height="2.84"/>
	<path fill="#FFFFFF" d="M16.686,13.16v2.34H3.314v-2.34H16.686 M17.186,12.66h-0.5H3.314h-0.5v0.5v2.34V16h0.5h13.371h0.5v-0.5
		v-2.34V12.66L17.186,12.66z"/>
</g>
<path fill="#228CCC" d="M16.686,11.887c0,0-2.674-0.891-2.674-4.011C14.012,4.757,21.697,0.5,10,0.5
	c-11.7,0-4.011,4.257-4.011,7.376c0,3.12-2.674,4.011-2.674,4.011H16.686L16.686,11.887z"/>
<rect x="3.314" y="13.16" fill="#228CCC" width="13.371" height="2.34"/>
</svg>
