<?xml version="1.0" encoding="utf-8"?>
<svg version="1.1" xmlns="http://www.w3.org/2000/svg" xmlns:xlink="http://www.w3.org/1999/xlink" width="21px" height="20px">
<path fill="#248BCB" d="M10.5,17.168c-5.514,0-10-3.209-10-7.152c0-3.945,4.486-7.156,10-7.156c5.514,0.002,10,3.213,10,7.156
	S16.014,17.168,10.5,17.168z M10.5,3.888c-4.948,0-8.972,2.749-8.972,6.128c0,3.376,4.024,6.125,8.972,6.125
	s8.973-2.748,8.973-6.125C19.473,6.64,15.447,3.89,10.5,3.888z"/>
<path fill="#248BCB" d="M9.567,11.426c0,0.307-0.049,0.576-0.147,0.809c-0.098,0.234-0.237,0.431-0.415,0.591
	c-0.179,0.159-0.391,0.28-0.637,0.364c-0.246,0.082-0.517,0.123-0.812,0.123h-2.75V6.744h2.639c0.646,0,1.146,0.167,1.499,0.499
	s0.531,0.782,0.531,1.349c0,0.185-0.026,0.351-0.079,0.499C9.343,9.239,9.277,9.37,9.194,9.484C9.111,9.598,9.021,9.695,8.926,9.775
	c-0.095,0.08-0.182,0.139-0.262,0.176C8.762,10,8.865,10.063,8.973,10.139c0.107,0.077,0.205,0.174,0.291,0.29
	c0.086,0.118,0.158,0.256,0.217,0.42C9.539,11.012,9.567,11.203,9.567,11.426L9.567,11.426z M8.193,8.649
	c0-0.229-0.072-0.413-0.217-0.552C7.831,7.958,7.621,7.888,7.344,7.888H6.089V9.41h1.255c0.276,0,0.487-0.07,0.632-0.209
	C8.121,9.062,8.193,8.878,8.193,8.649L8.193,8.649z M8.285,11.357c0-0.222-0.069-0.41-0.208-0.568
	c-0.139-0.156-0.355-0.234-0.65-0.234H6.089v1.615h1.338c0.295-0.002,0.512-0.08,0.65-0.24C8.216,11.77,8.285,11.578,8.285,11.357
	L8.285,11.357z"/>
<path fill="#248BCB" d="M14.697,13.313l-1.689-2.987L12.16,11.34v1.973h-1.282V6.744h1.282v2.86l2.316-2.86h1.559l-2.178,2.611
	l2.336,3.958H14.697L14.697,13.313z"/>
<g>
	<path fill="#248BCB" d="M10.5,17.404c-5.652,0-10.25-3.32-10.25-7.402c0-4.084,4.598-7.406,10.25-7.406
		c5.652,0.002,10.25,3.324,10.25,7.406S16.152,17.404,10.5,17.404z M10.5,4.124c-4.81,0-8.722,2.637-8.722,5.878
		c0,3.239,3.913,5.875,8.722,5.875c4.809,0,8.723-2.636,8.723-5.875C19.223,6.763,15.311,4.126,10.5,4.124L10.5,4.124z"/>
	<path fill="#FFFFFF" d="M10.5,2.846c5.514,0.002,10,3.213,10,7.156c0,3.943-4.486,7.152-10,7.152c-5.514,0-10-3.209-10-7.152
		C0.5,6.057,4.986,2.846,10.5,2.846 M10.5,16.127c4.948,0,8.973-2.748,8.973-6.125S15.449,3.876,10.5,3.874
		c-4.948,0-8.972,2.749-8.972,6.128C1.528,13.379,5.552,16.127,10.5,16.127 M10.5,2.346L10.5,2.346C4.71,2.346,0,5.781,0,10.002
		s4.71,7.652,10.5,7.652S21,14.221,21,10.002S16.29,2.348,10.5,2.346L10.5,2.346z M10.5,15.627c-4.671,0-8.472-2.523-8.472-5.625
		c0-3.104,3.801-5.628,8.472-5.628c4.672,0.002,8.473,2.527,8.473,5.628C18.973,13.104,15.172,15.627,10.5,15.627L10.5,15.627z"/>
</g>
<g>
	<path fill="#248BCB" d="M4.557,13.549V6.48h2.889c0.708,0,1.271,0.191,1.67,0.567c0.404,0.38,0.609,0.896,0.609,1.531
		c0,0.212-0.031,0.408-0.093,0.582c-0.06,0.17-0.14,0.324-0.237,0.457C9.313,9.733,9.22,9.835,9.121,9.923
		c0.129,0.093,0.244,0.208,0.344,0.343c0.101,0.137,0.185,0.3,0.251,0.483c0.068,0.188,0.102,0.41,0.102,0.661
		c0,0.339-0.056,0.645-0.167,0.906c-0.111,0.265-0.272,0.492-0.479,0.679c-0.203,0.183-0.446,0.321-0.724,0.416
		c-0.27,0.091-0.57,0.137-0.892,0.137L4.557,13.549L4.557,13.549z M7.428,11.904c0.222,0,0.373-0.051,0.461-0.152
		c0.099-0.113,0.147-0.248,0.147-0.409c0-0.159-0.048-0.291-0.146-0.403c-0.087-0.098-0.243-0.147-0.462-0.147H6.34v1.114h1.088
		V11.904z M7.345,9.146c0.208,0,0.363-0.047,0.458-0.139c0.096-0.092,0.14-0.21,0.14-0.372c0-0.162-0.044-0.28-0.14-0.372
		c-0.096-0.092-0.25-0.139-0.458-0.139H6.34v1.022H7.345z"/>
	<path fill="#FFFFFF" d="M7.446,6.73c0.646,0,1.146,0.167,1.499,0.499s0.531,0.782,0.531,1.349c0,0.185-0.026,0.351-0.079,0.499
		S9.277,9.356,9.194,9.47C9.111,9.584,9.022,9.681,8.927,9.761c-0.095,0.08-0.183,0.138-0.263,0.176
		c0.098,0.049,0.201,0.112,0.309,0.188c0.107,0.077,0.205,0.174,0.291,0.29c0.086,0.117,0.158,0.257,0.217,0.42
		c0.059,0.162,0.087,0.354,0.087,0.576c0,0.307-0.049,0.577-0.147,0.81c-0.098,0.234-0.237,0.43-0.415,0.59
		c-0.179,0.16-0.391,0.281-0.637,0.364s-0.517,0.124-0.812,0.124h-2.75V6.73H7.446 M6.09,9.396h1.255
		c0.276,0,0.487-0.07,0.632-0.209s0.217-0.323,0.217-0.552c0-0.229-0.073-0.413-0.217-0.552S7.621,7.874,7.345,7.874H6.09V9.396
		 M6.09,12.154h1.338c0.295,0,0.512-0.079,0.65-0.239c0.139-0.16,0.208-0.351,0.208-0.572c0-0.221-0.069-0.409-0.208-0.567
		c-0.139-0.155-0.355-0.233-0.65-0.233H6.09V12.154 M7.446,6.23H4.807h-0.5v0.5v6.569v0.5h0.5h2.75c0.349,0,0.676-0.051,0.972-0.15
		c0.31-0.104,0.583-0.26,0.811-0.465c0.235-0.211,0.417-0.471,0.543-0.77c0.123-0.292,0.186-0.63,0.186-1.003
		c0-0.28-0.04-0.531-0.117-0.746c-0.074-0.206-0.169-0.39-0.284-0.546C9.61,10.043,9.55,9.972,9.485,9.907
		c0.039-0.045,0.077-0.094,0.113-0.144C9.709,9.611,9.8,9.436,9.869,9.243C9.94,9.042,9.976,8.818,9.976,8.578
		c0-0.708-0.231-1.284-0.688-1.713C8.84,6.443,8.221,6.23,7.446,6.23L7.446,6.23z M6.59,8.374h0.755
		c0.138,0,0.239,0.024,0.285,0.069c0.021,0.02,0.063,0.061,0.063,0.192c0,0.131-0.043,0.173-0.063,0.192
		C7.583,8.872,7.482,8.896,7.345,8.896H6.59V8.374L6.59,8.374z M6.59,11.041h0.838c0.136,0,0.24,0.023,0.276,0.066
		c0.056,0.063,0.082,0.136,0.082,0.234c0,0.102-0.026,0.178-0.085,0.245c-0.036,0.042-0.139,0.067-0.274,0.067H6.59V11.041
		L6.59,11.041z"/>
</g>
<g>
	<polygon fill="#248BCB" points="14.553,13.549 12.969,10.748 12.411,11.416 12.411,13.549 10.628,13.549 10.628,6.48 12.41,6.48 
		12.41,8.884 14.357,6.48 16.568,6.48 14.162,9.366 16.631,13.549 	"/>
	<path fill="#FFFFFF" d="M16.035,6.73l-2.178,2.611l2.336,3.958h-1.496h0.001l-1.689-2.989l-0.848,1.015v1.974h-1.283V6.73h1.282
		v2.86l2.316-2.86H16.035 M17.104,6.23h-1.067h-1.56h-0.238l-0.149,0.186L12.66,8.178V6.73v-0.5h-0.5h-1.282h-0.5v0.5v6.569v0.5h0.5
		h1.283h0.5v-0.5v-1.792l0.269-0.321l1.334,2.359l0.144,0.254h0.292h1.494h0.877l-0.445-0.754l-2.157-3.654l1.952-2.34L17.104,6.23
		L17.104,6.23z"/>
</g>
</svg>
