<?xml version="1.0" encoding="utf-8"?>
<svg version="1.1" xmlns="http://www.w3.org/2000/svg" xmlns:xlink="http://www.w3.org/1999/xlink" width="20px" height="20px">
<g>
	<path fill="#DE7233" d="M1.553,14.505L1.25,10.394l0.115-4.898h17.265l0.119,4.813l-0.308,4.196H1.553z M11.393,8.075
		c-0.155,0-0.343,0.29-0.343,0.65c0,0.397,0.202,0.65,0.341,0.65h5.613c0.163,0,0.346-0.278,0.346-0.65
		c0-0.366-0.188-0.65-0.35-0.65H11.393z M2.997,8.075c-0.16,0-0.347,0.284-0.347,0.65c0,0.372,0.185,0.65,0.35,0.65h5.608
		c0.158,0,0.342-0.284,0.342-0.65c0-0.391-0.205-0.65-0.34-0.65H2.997z"/>
	<path fill="#FFFFFF" d="M18.387,5.745l0.113,4.57l-0.29,3.94H1.786L1.5,10.375l0.11-4.63H18.387 M11.391,9.625h5.613
		c0.326,0,0.596-0.4,0.596-0.9c0-0.49-0.27-0.9-0.6-0.9h-5.607c-0.322,0-0.593,0.41-0.593,0.9C10.8,9.225,11.07,9.625,11.391,9.625
		 M3,9.625h5.608c0.322,0,0.592-0.4,0.592-0.9c0-0.49-0.27-0.9-0.59-0.9H2.997c-0.327,0-0.597,0.41-0.597,0.9
		C2.4,9.225,2.67,9.625,3,9.625 M18.874,5.245h-0.487H1.61H1.122L1.11,5.733L1,10.363l0.287,3.929l0.034,0.463h0.464H18.21h0.465
		l0.034-0.463l0.29-3.94l-0.112-4.619L18.874,5.245L18.874,5.245z M11.423,9.125c-0.041-0.04-0.123-0.177-0.123-0.4
		c0-0.245,0.103-0.388,0.138-0.41L17,8.325c-0.003,0.013,0.1,0.154,0.1,0.4c0,0.247-0.1,0.387-0.134,0.408L11.423,9.125
		L11.423,9.125z M3.025,9.125C2.984,9.089,2.9,8.953,2.9,8.725c0-0.246,0.102-0.387,0.137-0.409L8.61,8.325
		C8.598,8.337,8.7,8.48,8.7,8.725c0,0.247-0.1,0.388-0.134,0.409L3.025,9.125L3.025,9.125z"/>
</g>
<path fill="#DE7233" d="M17.6,8.725c0,0.5-0.27,0.9-0.596,0.9h-5.613c-0.32,0-0.59-0.4-0.59-0.9c0-0.49,0.27-0.9,0.592-0.9H17
	C17.33,7.825,17.6,8.235,17.6,8.725L17.6,8.725z M9.201,8.725c0,0.5-0.27,0.9-0.592,0.9H3c-0.33,0-0.6-0.4-0.6-0.9
	c0-0.49,0.27-0.9,0.597-0.9H8.61C8.931,7.825,9.201,8.235,9.201,8.725L9.201,8.725z M18.211,14.255l0.289-3.939l-0.113-4.57H1.61
	l-0.11,4.63l0.286,3.88H18.211L18.211,14.255z"/>
</svg>
