<?xml version="1.0" encoding="utf-8"?>
<svg version="1.1" xmlns="http://www.w3.org/2000/svg" xmlns:xlink="http://www.w3.org/1999/xlink" width="25px" height="25px">
<g>
	<path fill="#FFFFFF" d="M12.5,1.699l10.799,10.799l-10.8,10.801L1.7,12.499L12.5,1.699 M12.5,0.285l-0.707,0.707l-10.8,10.8
		l-0.707,0.707l0.707,0.708l10.799,10.799l0.707,0.707l0.707-0.707l10.801-10.801l0.707-0.707l-0.707-0.707L13.208,0.992L12.5,0.285
		L12.5,0.285z"/>
</g>
<rect x="4.862" y="4.862" transform="matrix(-0.7071 0.7071 -0.7071 -0.7071 30.1748 12.4978)" fill="#693380" fill-opacity="0.2" stroke="#693380" width="15.274" height="15.272"/>
<path fill="#693380" d="M17.279,16.948v-4.87h1.457l-6.23-4.031l-6.242,4.031h1.463v4.87H17.279L17.279,16.948z M11.27,13.081h2.464
	v3.617H11.27V13.081L11.27,13.081z"/>
</svg>
