<?xml version="1.0" encoding="utf-8"?>
<svg version="1.1" id="Layer_1" xmlns="http://www.w3.org/2000/svg" xmlns:xlink="http://www.w3.org/1999/xlink" width="25px" height="25px">
<g transform="translate(-2.6726567,-2.6732003)">
	<g>
		<path fill="#FFFFFF" d="M15.174,4.373l10.799,10.799l-10.8,10.801L4.373,15.174L15.174,4.373 M15.174,2.959l-0.707,0.707
			l-10.8,10.8l-0.707,0.708l0.707,0.708L14.466,26.68l0.707,0.707l0.707-0.707l10.8-10.801l0.707-0.707l-0.707-0.707L15.882,3.666
			L15.174,2.959L15.174,2.959z"/>
	</g>
	
		<rect x="7.536" y="7.538" transform="matrix(0.7071 -0.7071 0.7071 0.7071 -6.2856 15.1722)" fill="#693380" fill-opacity="0.2" stroke="#693380" width="15.272" height="15.272"/>
</g>
<g transform="matrix(0.75361146,0,0,0.75361146,0.81868797,0.5012104)">
	<path fill="#693380" d="M21.882,9.395c-0.192-0.954-0.801-1.334-1.718-1.716c-0.917-0.383-3.062-0.838-4.663-0.838
		c-1.604,0-3.748,0.455-4.665,0.838C9.921,8.06,9.31,8.441,9.119,9.395l-0.687,5.289v7.288h1.188v1.144c0,1.389,2.04,1.389,2.04,0
		v-1.144h7.688v1.144c0,1.389,2.034,1.389,2.034,0v-1.144h1.187v-7.288L21.882,9.395z M12.301,8.008h6.394
		c0.632,0,0.632,1.192,0,1.192h-6.394C11.675,9.2,11.675,8.008,12.301,8.008 M10.635,19.783c-0.593,0-1.074-0.479-1.074-1.076
		c0-0.595,0.481-1.077,1.074-1.077c0.595,0,1.076,0.482,1.076,1.077C11.711,19.304,11.231,19.783,10.635,19.783 M20.366,19.783
		c-0.596,0-1.081-0.479-1.081-1.076c0-0.595,0.485-1.077,1.081-1.077c0.591,0,1.068,0.482,1.068,1.077
		C21.437,19.304,20.957,19.783,20.366,19.783 M20.789,15.242H10.227c-0.306,0-0.562-0.257-0.562-0.563
		c0-0.052,0.01-0.101,0.02-0.146l0.561-4.173c0.047-0.261,0.277-0.462,0.551-0.462h9.419c0.27,0,0.503,0.201,0.552,0.462
		l0.562,4.172c0.008,0.047,0.018,0.096,0.018,0.146C21.349,14.985,21.097,15.242,20.789,15.242"/>
</g>
</svg>
