<?xml version="1.0" encoding="utf-8"?>
<svg version="1.1" xmlns:svg="http://www.w3.org/2000/svg" xmlns="http://www.w3.org/2000/svg" xmlns:xlink="http://www.w3.org/1999/xlink" width="20px" height="20px">
<g>
	<path fill="#BD2877" d="M6.498,9.422c-0.448,0-0.86-0.078-1.226-0.231C4.908,9.037,4.576,8.813,4.286,8.522
		c-0.211-0.211-0.375-0.44-0.489-0.679C3.686,7.609,3.606,7.354,3.56,7.084c-0.044-0.258-0.07-0.535-0.078-0.831
		c-0.007-0.284-0.011-0.59-0.011-0.917c0-0.327,0.003-0.633,0.011-0.917C3.489,4.123,3.515,3.847,3.56,3.587
		c0.046-0.269,0.126-0.524,0.238-0.759C3.911,2.589,4.075,2.361,4.286,2.15c0.29-0.29,0.622-0.515,0.986-0.668
		C5.636,1.328,6.048,1.25,6.498,1.25c0.378,0,0.737,0.054,1.068,0.161c0.336,0.108,0.642,0.275,0.909,0.495
		c0.267,0.221,0.494,0.496,0.674,0.818c0.18,0.321,0.305,0.698,0.373,1.121l0.046,0.29H7.585L7.538,3.946
		C7.47,3.683,7.355,3.47,7.187,3.294c-0.15-0.155-0.372-0.23-0.678-0.23c-0.168,0-0.318,0.028-0.445,0.084
		c-0.125,0.056-0.23,0.131-0.311,0.223c-0.058,0.063-0.106,0.133-0.146,0.21C5.569,3.653,5.538,3.759,5.515,3.886
		C5.488,4.034,5.47,4.22,5.459,4.447C5.45,4.684,5.444,4.98,5.444,5.336c0,0.356,0.005,0.653,0.016,0.89
		c0.01,0.226,0.028,0.413,0.055,0.559c0.023,0.13,0.054,0.233,0.092,0.307c0.04,0.076,0.088,0.146,0.144,0.207
		c0.085,0.096,0.187,0.169,0.313,0.225C6.19,7.58,6.34,7.608,6.508,7.608c0.307,0,0.528-0.076,0.678-0.231
		c0.167-0.172,0.285-0.392,0.351-0.651l0.048-0.188h1.982l-0.046,0.29c-0.068,0.423-0.193,0.8-0.373,1.121
		c-0.18,0.322-0.407,0.598-0.674,0.818C8.208,8.986,7.9,9.153,7.56,9.262C7.224,9.369,6.867,9.422,6.498,9.422z"/>
	<path fill="#FFFFFF" d="M6.498,1.5c0.354,0,0.684,0.049,0.991,0.148c0.307,0.099,0.583,0.249,0.826,0.45
		C8.559,2.3,8.764,2.549,8.93,2.846C9.096,3.143,9.21,3.489,9.274,3.884H7.78C7.702,3.581,7.564,3.326,7.367,3.121
		C7.169,2.917,6.883,2.814,6.508,2.814c-0.205,0-0.387,0.036-0.546,0.106C5.804,2.991,5.671,3.086,5.565,3.206
		c-0.07,0.078-0.13,0.165-0.18,0.26C5.335,3.561,5.296,3.687,5.269,3.842C5.24,3.998,5.221,4.195,5.21,4.436
		c-0.01,0.24-0.016,0.541-0.016,0.9c0,0.36,0.005,0.661,0.016,0.901c0.011,0.24,0.03,0.438,0.059,0.593
		c0.028,0.156,0.067,0.281,0.116,0.376c0.05,0.095,0.11,0.182,0.18,0.26c0.106,0.12,0.239,0.215,0.397,0.286
		c0.159,0.071,0.341,0.106,0.546,0.106c0.375,0,0.661-0.103,0.858-0.308C7.564,7.346,7.702,7.092,7.78,6.788h1.494
		C9.21,7.184,9.096,7.53,8.93,7.826C8.764,8.123,8.559,8.372,8.315,8.573C8.071,8.775,7.794,8.925,7.483,9.024
		c-0.311,0.099-0.64,0.148-0.986,0.148c-0.417,0-0.793-0.071-1.128-0.212C5.033,8.819,4.731,8.614,4.463,8.346
		c-0.19-0.191-0.337-0.394-0.439-0.609C3.921,7.521,3.849,7.29,3.806,7.042C3.764,6.795,3.739,6.53,3.732,6.248
		C3.725,5.965,3.721,5.661,3.721,5.336c0-0.325,0.003-0.628,0.011-0.911C3.739,4.142,3.764,3.877,3.806,3.63
		c0.042-0.247,0.115-0.479,0.217-0.694C4.125,2.72,4.272,2.517,4.463,2.327c0.269-0.269,0.57-0.473,0.906-0.615
		C5.705,1.57,6.081,1.5,6.498,1.5 M6.498,1C6.015,1,5.57,1.084,5.175,1.251C4.781,1.417,4.422,1.66,4.109,1.973
		C3.878,2.204,3.697,2.457,3.571,2.722C3.451,2.976,3.364,3.253,3.313,3.545C3.267,3.817,3.239,4.108,3.232,4.413
		C3.225,4.699,3.221,5.007,3.221,5.336c0,0.33,0.003,0.638,0.011,0.925c0.007,0.303,0.035,0.595,0.082,0.866
		c0.05,0.292,0.137,0.569,0.258,0.824c0.125,0.264,0.306,0.516,0.537,0.748c0.313,0.313,0.672,0.556,1.066,0.723
		c0.396,0.167,0.841,0.251,1.323,0.251c0.395,0,0.777-0.058,1.137-0.172C8.007,9.382,8.342,9.2,8.634,8.958
		C8.924,8.719,9.17,8.42,9.366,8.07C9.56,7.724,9.695,7.319,9.768,6.867L9.86,6.288H9.274H7.78H7.392L7.295,6.664
		C7.239,6.885,7.145,7.061,7.007,7.203C6.97,7.242,6.857,7.358,6.508,7.358c-0.133,0-0.248-0.021-0.343-0.063
		c-0.094-0.042-0.167-0.094-0.227-0.16c-0.044-0.049-0.081-0.102-0.111-0.16C5.814,6.948,5.785,6.879,5.761,6.742
		C5.736,6.608,5.719,6.431,5.709,6.214C5.7,5.981,5.694,5.688,5.694,5.336c0-0.352,0.005-0.645,0.015-0.879
		c0.01-0.215,0.027-0.393,0.051-0.526c0.025-0.138,0.054-0.207,0.068-0.235c0.03-0.056,0.066-0.109,0.107-0.154
		c0.063-0.07,0.136-0.123,0.23-0.165C6.26,3.335,6.375,3.314,6.508,3.314c0.35,0,0.462,0.116,0.499,0.155
		c0.137,0.143,0.232,0.319,0.288,0.54l0.096,0.376H7.78h1.494H9.86L9.768,3.805C9.695,3.354,9.56,2.948,9.366,2.602
		C9.17,2.252,8.924,1.954,8.634,1.713C8.342,1.473,8.009,1.291,7.643,1.173C7.287,1.058,6.902,1,6.498,1L6.498,1z"/>
</g>
<g>
	<path fill="#BD2877" d="M14.551,9.358l-0.444-1.335h-2.322l-0.455,1.335H9.256l2.926-8.045h1.505l2.938,8.045H14.551z
		 M13.547,6.284l-0.578-1.722L12.37,6.284H13.547z"/>
	<path fill="#FFFFFF" d="M13.513,1.563l2.755,7.545h-1.536l-0.444-1.335h-2.682L11.15,9.108H9.613l2.744-7.545H13.513 M12.019,6.534
		h1.876l-0.922-2.745L12.019,6.534 M13.862,1.063h-0.35h-1.155h-0.351l-0.119,0.329L9.144,8.938L8.899,9.608h0.714h1.537h0.357
		l0.116-0.339l0.339-0.996h1.964l0.33,0.993l0.114,0.342h0.36h1.536h0.715l-0.245-0.671l-2.755-7.545L13.862,1.063L13.862,1.063z
		 M12.722,6.034l0.243-0.699l0.234,0.699H12.722L12.722,6.034z"/>
</g>
<g>
	<path fill="#BD2877" d="M3.726,18.687v-8.045h2.974c0.423,0,0.823,0.063,1.188,0.188c0.375,0.127,0.705,0.33,0.98,0.604
		c0.232,0.234,0.41,0.483,0.528,0.742c0.115,0.253,0.196,0.52,0.242,0.794c0.044,0.267,0.067,0.548,0.067,0.836v1.675
		c0,0.288-0.022,0.572-0.067,0.845c-0.046,0.284-0.127,0.558-0.241,0.813c-0.118,0.268-0.296,0.521-0.528,0.754
		c-0.273,0.272-0.603,0.477-0.98,0.605c-0.369,0.125-0.769,0.188-1.188,0.188H3.726z M6.561,16.873c0.218,0,0.402-0.032,0.545-0.096
		c0.142-0.063,0.261-0.154,0.364-0.279c0.102-0.13,0.172-0.328,0.205-0.583c0.038-0.292,0.057-0.724,0.057-1.282
		c0-0.28-0.004-0.523-0.011-0.729c-0.007-0.197-0.02-0.371-0.04-0.52c-0.019-0.135-0.045-0.246-0.08-0.333
		c-0.032-0.082-0.076-0.155-0.129-0.219c-0.104-0.127-0.223-0.219-0.365-0.281c-0.144-0.063-0.327-0.096-0.545-0.096H5.699v4.418
		H6.561z"/>
	<path fill="#FFFFFF" d="M6.699,10.892c0.396,0,0.765,0.058,1.107,0.175c0.342,0.116,0.637,0.299,0.885,0.545
		c0.212,0.213,0.371,0.436,0.477,0.668c0.106,0.233,0.18,0.477,0.223,0.731s0.063,0.52,0.063,0.795c0,0.269,0,0.544,0,0.827
		c0,0.281,0,0.564,0,0.848c0,0.275-0.021,0.543-0.063,0.805s-0.116,0.513-0.223,0.752c-0.106,0.24-0.265,0.467-0.477,0.679
		c-0.248,0.247-0.542,0.429-0.885,0.546c-0.343,0.116-0.712,0.175-1.107,0.175H3.976v-7.545H6.699 M5.449,17.123h1.112
		c0.254,0,0.47-0.039,0.646-0.117c0.177-0.078,0.329-0.194,0.456-0.35c0.134-0.17,0.221-0.406,0.259-0.71
		c0.039-0.304,0.059-0.741,0.059-1.313c0-0.283-0.004-0.529-0.011-0.737c-0.007-0.208-0.021-0.39-0.042-0.546
		c-0.021-0.154-0.053-0.285-0.095-0.392s-0.099-0.202-0.169-0.286c-0.127-0.155-0.279-0.271-0.456-0.35
		c-0.176-0.078-0.392-0.117-0.646-0.117H5.449V17.123 M6.699,10.392H3.976h-0.5v0.5v7.545v0.5h0.5h2.724
		c0.447,0,0.874-0.067,1.268-0.201c0.415-0.143,0.777-0.366,1.077-0.666c0.255-0.254,0.45-0.533,0.581-0.83
		c0.122-0.274,0.209-0.569,0.259-0.874c0.046-0.286,0.07-0.584,0.07-0.885v-0.848v-0.827c0-0.302-0.023-0.598-0.07-0.877
		c-0.049-0.296-0.137-0.584-0.261-0.856c-0.13-0.286-0.325-0.56-0.577-0.813c-0.304-0.303-0.667-0.526-1.079-0.666
		C7.577,10.459,7.15,10.392,6.699,10.392L6.699,10.392z M5.949,12.705h0.612c0.183,0,0.333,0.025,0.444,0.074
		c0.106,0.047,0.195,0.115,0.272,0.21c0.039,0.047,0.069,0.098,0.092,0.154c0.019,0.047,0.045,0.132,0.064,0.273
		c0.02,0.143,0.032,0.308,0.039,0.496c0.006,0.202,0.01,0.442,0.01,0.72c0,0.548-0.019,0.969-0.055,1.25
		c-0.026,0.207-0.08,0.368-0.156,0.464c-0.071,0.087-0.16,0.155-0.265,0.202c-0.112,0.049-0.261,0.074-0.444,0.074H5.949V12.705
		L5.949,12.705z"/>
</g>
<g>
	<path fill="#BD2877" d="M13.491,18.75c-0.458,0-0.87-0.076-1.226-0.227c-0.361-0.153-0.692-0.376-0.982-0.663
		c-0.21-0.209-0.376-0.437-0.491-0.676c-0.113-0.235-0.194-0.49-0.242-0.759c-0.045-0.259-0.072-0.536-0.081-0.831
		c-0.008-0.285-0.013-0.592-0.014-0.918c-0.001-0.327,0-0.633,0.006-0.918c0.007-0.295,0.032-0.572,0.074-0.83
		c0.047-0.271,0.126-0.527,0.235-0.761c0.113-0.239,0.276-0.468,0.485-0.681c0.289-0.291,0.618-0.518,0.978-0.672
		c0.361-0.155,0.779-0.235,1.241-0.237c0.474,0,0.885,0.076,1.238,0.227c0.36,0.154,0.688,0.377,0.977,0.663
		c0.211,0.209,0.376,0.437,0.491,0.676c0.114,0.239,0.196,0.493,0.246,0.756c0.05,0.26,0.078,0.538,0.087,0.834
		c0.009,0.284,0.015,0.591,0.016,0.918s-0.001,0.634-0.008,0.918c-0.006,0.296-0.033,0.574-0.08,0.834
		c-0.049,0.269-0.13,0.522-0.239,0.757c-0.113,0.239-0.276,0.468-0.485,0.681c-0.291,0.292-0.617,0.518-0.971,0.672
		c-0.357,0.155-0.773,0.235-1.236,0.237H13.491z M13.482,12.393c-0.167,0.001-0.318,0.031-0.447,0.091
		c-0.129,0.059-0.236,0.136-0.317,0.229c-0.056,0.061-0.099,0.126-0.137,0.205c-0.037,0.073-0.066,0.177-0.089,0.309
		c-0.026,0.15-0.044,0.335-0.053,0.559c-0.009,0.233-0.014,0.527-0.012,0.884s0.009,0.65,0.02,0.885
		c0.011,0.223,0.029,0.408,0.057,0.554c0.023,0.131,0.055,0.235,0.092,0.311c0.035,0.073,0.079,0.139,0.136,0.2
		c0.085,0.096,0.189,0.171,0.321,0.23c0.13,0.059,0.274,0.087,0.442,0.087c0.174-0.001,0.321-0.031,0.445-0.09
		c0.131-0.062,0.233-0.137,0.313-0.229c0.059-0.064,0.105-0.133,0.147-0.213c0.036-0.071,0.067-0.175,0.09-0.304
		c0.026-0.148,0.044-0.334,0.053-0.557c0.01-0.233,0.014-0.527,0.012-0.884c-0.002-0.355-0.008-0.649-0.02-0.884
		c-0.011-0.225-0.029-0.408-0.057-0.556c-0.03-0.159-0.068-0.254-0.095-0.306c-0.04-0.076-0.087-0.144-0.143-0.203
		c-0.087-0.099-0.189-0.173-0.318-0.231c-0.126-0.059-0.268-0.087-0.435-0.087v-0.25L13.482,12.393z"/>
	<path fill="#FFFFFF" d="M13.493,10.828c0.423,0,0.799,0.069,1.122,0.207c0.329,0.141,0.629,0.343,0.898,0.61
		c0.191,0.19,0.339,0.394,0.442,0.607c0.103,0.216,0.179,0.447,0.226,0.693c0.047,0.247,0.074,0.513,0.082,0.794
		c0.009,0.283,0.015,0.587,0.016,0.912c0.001,0.324-0.001,0.629-0.008,0.911c-0.006,0.282-0.031,0.548-0.076,0.795
		s-0.118,0.479-0.22,0.695s-0.247,0.419-0.437,0.611c-0.268,0.269-0.565,0.476-0.893,0.618c-0.328,0.143-0.708,0.215-1.138,0.217
		c-0.006,0-0.012,0-0.018,0c-0.425,0-0.801-0.068-1.128-0.207c-0.333-0.141-0.635-0.344-0.904-0.61
		c-0.191-0.19-0.339-0.394-0.442-0.607c-0.104-0.216-0.177-0.446-0.221-0.693c-0.043-0.247-0.068-0.513-0.077-0.795
		c-0.008-0.282-0.013-0.587-0.014-0.911c-0.001-0.325,0-0.629,0.006-0.912c0.007-0.281,0.03-0.547,0.071-0.794
		c0.042-0.247,0.113-0.479,0.215-0.695s0.247-0.419,0.437-0.611c0.268-0.27,0.567-0.476,0.898-0.618
		c0.332-0.143,0.712-0.215,1.144-0.217C13.481,10.828,13.487,10.828,13.493,10.828 M13.495,17.186c0.002,0,0.005,0,0.008,0
		c0.205-0.001,0.387-0.039,0.544-0.113c0.159-0.075,0.292-0.172,0.396-0.293c0.071-0.078,0.13-0.165,0.18-0.261
		c0.049-0.096,0.087-0.221,0.114-0.376c0.028-0.155,0.047-0.353,0.057-0.589c0.01-0.237,0.014-0.535,0.012-0.896
		s-0.008-0.658-0.02-0.896s-0.032-0.432-0.061-0.588c-0.029-0.154-0.069-0.28-0.118-0.375c-0.051-0.096-0.11-0.182-0.182-0.259
		c-0.106-0.121-0.239-0.217-0.398-0.289c-0.157-0.073-0.336-0.109-0.538-0.109c-0.002,0-0.005,0-0.008,0
		c-0.205,0.001-0.389,0.039-0.551,0.113s-0.296,0.172-0.401,0.293c-0.071,0.077-0.128,0.165-0.174,0.261
		c-0.047,0.095-0.083,0.221-0.109,0.375c-0.028,0.157-0.047,0.353-0.057,0.59c-0.009,0.237-0.014,0.535-0.012,0.896
		s0.009,0.658,0.02,0.896c0.012,0.236,0.032,0.433,0.061,0.587c0.028,0.155,0.066,0.28,0.113,0.376
		c0.046,0.096,0.104,0.181,0.176,0.259c0.107,0.121,0.241,0.216,0.403,0.289S13.293,17.186,13.495,17.186 M13.493,10.328
		L13.493,10.328h-0.021c-0.495,0.002-0.945,0.089-1.338,0.258c-0.39,0.167-0.745,0.411-1.056,0.725
		c-0.23,0.234-0.41,0.486-0.534,0.751c-0.12,0.254-0.206,0.532-0.256,0.824c-0.044,0.269-0.07,0.559-0.078,0.866
		c-0.006,0.288-0.007,0.596-0.006,0.926c0.001,0.328,0.006,0.637,0.014,0.923c0.01,0.31,0.038,0.601,0.084,0.867
		c0.052,0.292,0.14,0.568,0.262,0.823c0.129,0.267,0.311,0.518,0.541,0.746c0.313,0.311,0.671,0.551,1.063,0.717
		C12.555,18.917,13,19,13.491,19c0.517-0.002,0.966-0.089,1.354-0.258c0.383-0.167,0.735-0.411,1.048-0.725
		c0.23-0.234,0.41-0.486,0.534-0.751c0.119-0.254,0.207-0.529,0.26-0.818c0.049-0.272,0.077-0.566,0.084-0.874
		c0.007-0.285,0.009-0.595,0.008-0.924c-0.001-0.33-0.007-0.638-0.016-0.926c-0.009-0.306-0.039-0.6-0.091-0.871
		c-0.054-0.285-0.144-0.559-0.266-0.815c-0.129-0.268-0.311-0.519-0.541-0.747c-0.312-0.309-0.666-0.55-1.055-0.716
		C14.426,10.411,13.982,10.328,13.493,10.328L13.493,10.328z M13.495,17.186v-0.5c-0.132,0-0.242-0.021-0.339-0.064
		c-0.1-0.046-0.177-0.1-0.235-0.166c-0.045-0.049-0.075-0.094-0.099-0.143c-0.018-0.035-0.047-0.108-0.072-0.25
		c-0.025-0.135-0.043-0.31-0.054-0.521c-0.01-0.23-0.017-0.521-0.019-0.874c-0.002-0.352,0.003-0.643,0.012-0.874
		c0.009-0.212,0.025-0.388,0.049-0.52c0.025-0.152,0.055-0.22,0.065-0.242c0.029-0.062,0.059-0.106,0.093-0.143
		c0.068-0.079,0.145-0.134,0.242-0.178c0.098-0.045,0.213-0.067,0.345-0.068c0,0,0,0,0.001,0c0.135,0,0.241,0.021,0.332,0.063
		c0.1,0.046,0.175,0.1,0.233,0.166c0.049,0.053,0.084,0.104,0.116,0.163c0.013,0.024,0.042,0.095,0.068,0.234
		c0.024,0.133,0.042,0.309,0.053,0.519c0.011,0.231,0.017,0.522,0.019,0.874c0.002,0.351-0.002,0.641-0.012,0.872
		c-0.009,0.216-0.025,0.391-0.049,0.52c-0.024,0.141-0.053,0.21-0.067,0.238c-0.03,0.058-0.064,0.108-0.104,0.151
		c-0.066,0.076-0.143,0.131-0.241,0.178c-0.09,0.043-0.202,0.064-0.332,0.065L13.495,17.186L13.495,17.186z"/>
</g>
<path fill="#BD2877" d="M8.929,7.826C8.763,8.123,8.558,8.372,8.314,8.573C8.071,8.775,7.793,8.925,7.483,9.024
	c-0.311,0.099-0.64,0.148-0.986,0.148c-0.417,0-0.793-0.071-1.128-0.212C5.033,8.819,4.731,8.614,4.462,8.346
	c-0.19-0.191-0.337-0.394-0.439-0.609C3.92,7.521,3.848,7.29,3.806,7.042C3.763,6.795,3.738,6.53,3.731,6.248
	C3.724,5.965,3.721,5.661,3.721,5.336c0-0.325,0.003-0.628,0.011-0.911C3.738,4.142,3.763,3.877,3.806,3.63
	C3.848,3.383,3.92,3.151,4.023,2.936C4.125,2.72,4.272,2.517,4.462,2.327c0.269-0.269,0.57-0.473,0.906-0.615
	C5.704,1.57,6.08,1.5,6.497,1.5c0.354,0,0.684,0.049,0.991,0.148c0.307,0.099,0.583,0.249,0.826,0.45
	C8.558,2.3,8.763,2.549,8.929,2.846C9.095,3.143,9.21,3.489,9.273,3.884H7.779C7.702,3.581,7.564,3.326,7.366,3.121
	C7.168,2.917,6.882,2.814,6.508,2.814c-0.205,0-0.387,0.036-0.546,0.106C5.803,2.991,5.67,3.086,5.564,3.206
	c-0.07,0.078-0.13,0.165-0.18,0.26C5.335,3.561,5.296,3.687,5.268,3.842C5.24,3.998,5.22,4.195,5.209,4.436
	c-0.01,0.24-0.016,0.541-0.016,0.9c0,0.36,0.005,0.661,0.016,0.901C5.22,6.477,5.24,6.675,5.268,6.83
	c0.028,0.156,0.067,0.281,0.116,0.376c0.05,0.095,0.11,0.182,0.18,0.26c0.106,0.12,0.239,0.215,0.397,0.286
	c0.159,0.071,0.341,0.106,0.546,0.106c0.375,0,0.661-0.103,0.858-0.308c0.198-0.205,0.335-0.459,0.413-0.763h1.494
	C9.21,7.184,9.095,7.53,8.929,7.826z"/>
<path fill="#BD2877" d="M14.73,9.108l-0.443-1.335h-2.682L11.15,9.108H9.613l2.745-7.545h1.154l2.756,7.545H14.73z M12.973,3.789
	l-0.955,2.745h1.877L12.973,3.789z"/>
<path fill="#BD2877" d="M9.454,14.633c0,0.281,0,0.564,0,0.848c0,0.275-0.021,0.543-0.063,0.805s-0.116,0.513-0.223,0.752
	c-0.106,0.24-0.265,0.467-0.477,0.679c-0.248,0.247-0.542,0.429-0.885,0.546c-0.343,0.116-0.712,0.175-1.107,0.175H3.975v-7.545
	h2.724c0.396,0,0.765,0.058,1.107,0.175c0.342,0.116,0.637,0.299,0.885,0.545c0.212,0.213,0.371,0.436,0.477,0.668
	c0.106,0.233,0.18,0.477,0.223,0.731s0.063,0.52,0.063,0.795C9.454,14.074,9.454,14.35,9.454,14.633z M7.981,14.633
	c0-0.283-0.004-0.529-0.011-0.737c-0.007-0.208-0.021-0.39-0.042-0.546c-0.021-0.154-0.053-0.285-0.095-0.392
	s-0.099-0.202-0.169-0.286c-0.127-0.155-0.279-0.271-0.456-0.35c-0.176-0.078-0.392-0.117-0.646-0.117H5.448v4.918h1.112
	c0.254,0,0.47-0.039,0.646-0.117c0.177-0.078,0.329-0.194,0.456-0.35c0.134-0.17,0.221-0.406,0.259-0.71
	C7.961,15.643,7.981,15.205,7.981,14.633z"/>
<path fill="#BD2877" d="M16.279,14.664c0,0.324-0.004,0.629-0.012,0.911s-0.033,0.548-0.08,0.795
	c-0.045,0.247-0.119,0.479-0.223,0.694c-0.102,0.215-0.248,0.418-0.439,0.609c-0.268,0.268-0.566,0.473-0.895,0.614
	S13.922,18.5,13.492,18.5c-0.432,0-0.813-0.07-1.145-0.212s-0.633-0.347-0.902-0.614c-0.189-0.191-0.336-0.395-0.439-0.609
	c-0.102-0.216-0.174-0.447-0.217-0.694s-0.066-0.513-0.074-0.795s-0.01-0.587-0.01-0.911c0-0.325,0.002-0.629,0.01-0.912
	c0.008-0.281,0.031-0.547,0.074-0.794s0.115-0.479,0.217-0.694c0.104-0.215,0.25-0.418,0.439-0.609
	c0.27-0.269,0.57-0.473,0.902-0.614s0.713-0.212,1.145-0.212c0.43,0,0.811,0.07,1.139,0.212s0.627,0.346,0.895,0.614
	c0.191,0.191,0.338,0.395,0.439,0.609c0.104,0.216,0.178,0.447,0.223,0.694c0.047,0.247,0.072,0.513,0.08,0.794
	C16.275,14.035,16.279,14.339,16.279,14.664z M14.805,14.664c0-0.36-0.004-0.658-0.016-0.896c-0.01-0.237-0.029-0.433-0.059-0.589
	c-0.027-0.154-0.066-0.28-0.115-0.375c-0.051-0.096-0.109-0.183-0.182-0.26c-0.105-0.121-0.238-0.218-0.396-0.291
	c-0.158-0.074-0.34-0.111-0.545-0.111s-0.389,0.037-0.553,0.111c-0.162,0.073-0.295,0.17-0.402,0.291
	c-0.07,0.077-0.129,0.164-0.174,0.26c-0.047,0.095-0.084,0.221-0.111,0.375c-0.029,0.156-0.049,0.352-0.059,0.589
	s-0.016,0.535-0.016,0.896s0.006,0.658,0.016,0.896c0.01,0.236,0.029,0.433,0.059,0.588c0.027,0.155,0.064,0.28,0.111,0.376
	c0.045,0.096,0.104,0.182,0.174,0.26c0.107,0.121,0.24,0.217,0.402,0.291c0.164,0.074,0.348,0.111,0.553,0.111
	s0.387-0.037,0.545-0.111s0.291-0.17,0.396-0.291c0.072-0.078,0.131-0.164,0.182-0.26c0.049-0.096,0.088-0.221,0.115-0.376
	c0.029-0.155,0.049-0.352,0.059-0.588C14.801,15.322,14.805,15.024,14.805,14.664z"/>
</svg>
