<?xml version="1.0" encoding="utf-8"?>
<svg version="1.1" xmlns="http://www.w3.org/2000/svg" xmlns:xlink="http://www.w3.org/1999/xlink" width="26px" height="21px">
<g>
	<polygon fill="#BD2877" points="10.813,15.034 10.813,7.157 7.669,5.691 10.167,0.333 25.333,7.405 22.835,12.763 13.222,8.281 
		13.222,15.034 	"/>
	<path fill="#FFFFFF" d="M10.288,0.665l14.713,6.861l-2.287,4.905l-9.742-4.542v6.896h-1.909V6.998L8.001,5.57L10.288,0.665
		 M10.046,0L9.835,0.454L7.548,5.358L7.336,5.811l0.453,0.211l2.773,1.293v7.468v0.5h0.5h1.909h0.5v-0.5v-6.11l9.031,4.21
		l0.453,0.212l0.211-0.453l2.287-4.905l0.211-0.453l-0.453-0.211L10.5,0.212L10.046,0L10.046,0z"/>
</g>
<polygon fill="#BD2877" points="11.063,6.997 11.063,14.784 12.972,14.784 12.972,7.888 22.714,12.431 25.001,7.525 10.288,0.665 
	8.001,5.569 "/>
</svg>
