<?xml version="1.0" encoding="UTF-8" standalone="no"?>
<svg xmlns="http://www.w3.org/2000/svg" height="25px" width="25px" version="1.1">
<defs>
    <clipPath id="clipPath3048" clipPathUnits="userSpaceOnUse">
        <rect transform="matrix(-0.70710678,0.70710678,-0.70710678,-0.70710678,0,0)" height="15.555" width="15.557" stroke="#693380" y="-24.041" x="-7.7789" stroke-width="0.99999" fill="none"/>
    </clipPath>
</defs>
<path d="M11.5,0.699l10.8,10.8-10.8,10.801-10.801-10.8,10.801-10.801m0-1.414l-0.707,0.707-10.8,10.8-0.707,0.708,0.707,0.708,10.799,10.799,0.707,0.707,0.707-0.707,10.801-10.801,0.707-0.708-0.707-0.707-10.799-10.799-0.708-0.707z" fill="#FFF"/>
<rect fill-opacity="0.2" transform="matrix(-0.7071 0.7071 -0.7071 -0.7071 27.7636 11.5004)" height="15.555" width="15.557" stroke="#693380" y="3.723" x="3.721" fill="#693380"/>
<g clip-path="url(#clipPath3048)">
    <g fill="#693380" transform="translate(-2.8731175,-2.4727387)">
        <path d="M6.556,21.83c-0.14,0.145-0.294,0.252-0.462,0.324-0.164,0.067-0.354,0.102-0.57,0.102-0.156,0-0.318-0.023-0.486-0.072-0.164-0.048-0.314-0.132-0.45-0.252-0.132-0.123-0.242-0.287-0.33-0.492-0.088-0.207-0.132-0.47-0.132-0.785,0-0.316,0.044-0.576,0.132-0.78,0.088-0.208,0.198-0.372,0.33-0.492,0.136-0.12,0.286-0.204,0.45-0.252,0.168-0.048,0.33-0.071,0.486-0.071,0.216,0,0.406,0.033,0.57,0.102,0.168,0.068,0.322,0.174,0.462,0.318l-0.528,0.527c-0.08-0.088-0.158-0.15-0.234-0.186-0.076-0.041-0.166-0.061-0.27-0.061-0.184,0-0.332,0.068-0.444,0.204-0.06,0.076-0.104,0.168-0.132,0.276-0.028,0.107-0.042,0.246-0.042,0.414,0,0.32,0.058,0.552,0.174,0.695,0.112,0.137,0.26,0.204,0.444,0.204,0.104,0,0.194-0.018,0.27-0.054,0.076-0.04,0.154-0.104,0.234-0.191l0.528,0.522"/>
        <path d="M8.725,20.9h-0.618c-0.14,0-0.248,0.031-0.324,0.096-0.076,0.06-0.114,0.146-0.114,0.258,0,0.107,0.036,0.195,0.108,0.264,0.076,0.064,0.19,0.096,0.342,0.096,0.108,0,0.2-0.008,0.276-0.023,0.076-0.016,0.148-0.059,0.216-0.126,0.076-0.071,0.114-0.204,0.114-0.396v-0.169m0.018,1.32v-0.271c-0.104,0.104-0.214,0.181-0.33,0.229-0.112,0.049-0.258,0.072-0.438,0.072-0.348,0-0.614-0.092-0.798-0.275-0.084-0.089-0.148-0.193-0.192-0.313s-0.066-0.25-0.066-0.391c0-0.123,0.022-0.24,0.066-0.348,0.044-0.111,0.11-0.208,0.198-0.288,0.088-0.084,0.198-0.149,0.33-0.198,0.136-0.047,0.294-0.072,0.474-0.072h0.738v-0.155c0-0.172-0.046-0.296-0.138-0.372-0.088-0.08-0.236-0.12-0.444-0.12-0.076,0-0.142,0.007-0.198,0.019-0.056,0.008-0.108,0.021-0.156,0.041-0.044,0.021-0.086,0.047-0.126,0.078-0.04,0.032-0.08,0.072-0.12,0.121l-0.498-0.487c0.152-0.168,0.312-0.282,0.48-0.342,0.172-0.061,0.388-0.09,0.648-0.09,0.44,0,0.772,0.092,0.996,0.275s0.336,0.46,0.336,0.828v2.058h-0.762"/>
        <path d="M12.038,19.945c-0.06-0.06-0.12-0.105-0.18-0.137-0.06-0.033-0.138-0.049-0.234-0.049-0.06,0-0.12,0.012-0.18,0.036-0.06,0.021-0.114,0.054-0.162,0.103-0.048,0.047-0.088,0.107-0.12,0.18-0.028,0.072-0.042,0.158-0.042,0.258v1.884h-0.78v-3.126h0.762v0.301c0.076-0.093,0.184-0.17,0.324-0.234,0.14-0.068,0.294-0.102,0.462-0.102,0.152,0,0.286,0.021,0.402,0.065s0.228,0.12,0.336,0.228l-0.588,0.593"/>
        <path d="M14.906,20.654c0-0.129-0.006-0.246-0.018-0.354s-0.036-0.202-0.072-0.282-0.09-0.142-0.162-0.186c-0.068-0.049-0.16-0.072-0.276-0.072s-0.21,0.023-0.282,0.072c-0.068,0.044-0.12,0.105-0.156,0.186s-0.06,0.174-0.072,0.282c-0.012,0.108-0.018,0.226-0.018,0.354,0,0.127,0.006,0.248,0.018,0.359,0.012,0.108,0.036,0.202,0.072,0.282s0.088,0.144,0.156,0.192c0.072,0.043,0.166,0.065,0.282,0.065s0.208-0.022,0.276-0.065c0.072-0.049,0.126-0.112,0.162-0.192s0.06-0.174,0.072-0.282c0.012-0.111,0.018-0.232,0.018-0.359m0.782,0c0,0.115-0.002,0.235-0.006,0.359-0.005,0.124-0.017,0.244-0.037,0.36s-0.052,0.226-0.096,0.33-0.104,0.194-0.18,0.271c-0.088,0.088-0.2,0.157-0.336,0.209-0.133,0.049-0.274,0.072-0.426,0.072-0.16,0-0.3-0.021-0.42-0.066-0.12-0.047-0.232-0.129-0.336-0.246v1.422h-0.78v-4.271h0.756v0.294c0.108-0.12,0.222-0.204,0.342-0.252,0.124-0.052,0.27-0.077,0.438-0.077,0.152,0,0.293,0.025,0.426,0.077,0.136,0.048,0.248,0.116,0.336,0.204,0.076,0.08,0.136,0.172,0.18,0.275,0.044,0.101,0.076,0.209,0.096,0.324,0.021,0.116,0.032,0.236,0.037,0.36,0.004,0.121,0.006,0.239,0.006,0.355"/>
        <path d="M18.168,20.654c0-0.164-0.01-0.311-0.03-0.438-0.02-0.132-0.069-0.237-0.149-0.317-0.092-0.093-0.215-0.139-0.366-0.139-0.147,0-0.269,0.046-0.36,0.139-0.08,0.08-0.13,0.186-0.15,0.317-0.02,0.128-0.029,0.274-0.029,0.438s0.01,0.312,0.029,0.443c0.021,0.133,0.07,0.238,0.15,0.318,0.092,0.092,0.213,0.138,0.36,0.138,0.151,0,0.274-0.046,0.366-0.138,0.08-0.08,0.13-0.186,0.149-0.318,0.02-0.131,0.03-0.279,0.03-0.443m0.779,0c0,0.283-0.023,0.521-0.071,0.714-0.048,0.188-0.142,0.356-0.282,0.504-0.096,0.104-0.224,0.194-0.384,0.271-0.16,0.075-0.356,0.113-0.588,0.113s-0.429-0.038-0.588-0.113c-0.156-0.076-0.282-0.166-0.378-0.271-0.141-0.147-0.234-0.316-0.282-0.504-0.048-0.192-0.072-0.431-0.072-0.714,0-0.284,0.024-0.521,0.072-0.709s0.142-0.355,0.282-0.504c0.096-0.104,0.222-0.193,0.378-0.27,0.159-0.076,0.356-0.113,0.588-0.113s0.428,0.037,0.588,0.113,0.288,0.166,0.384,0.27c0.141,0.148,0.234,0.316,0.282,0.504,0.048,0.189,0.071,0.425,0.071,0.709"/>
        <path d="M21.426,20.654c0-0.164-0.01-0.311-0.029-0.438-0.021-0.132-0.07-0.237-0.15-0.317-0.092-0.093-0.215-0.139-0.366-0.139-0.147,0-0.269,0.046-0.36,0.139-0.08,0.08-0.129,0.186-0.149,0.317-0.021,0.128-0.03,0.274-0.03,0.438s0.01,0.312,0.03,0.443c0.021,0.133,0.069,0.238,0.149,0.318,0.092,0.092,0.213,0.138,0.36,0.138,0.151,0,0.274-0.046,0.366-0.138,0.08-0.08,0.13-0.186,0.15-0.318,0.019-0.131,0.029-0.279,0.029-0.443m0.78,0c0,0.283-0.024,0.521-0.072,0.714-0.048,0.188-0.142,0.356-0.282,0.504-0.096,0.104-0.224,0.194-0.384,0.271-0.159,0.075-0.356,0.113-0.588,0.113s-0.428-0.038-0.588-0.113c-0.156-0.076-0.282-0.166-0.378-0.271-0.141-0.147-0.234-0.316-0.282-0.504-0.048-0.192-0.071-0.431-0.071-0.714,0-0.284,0.023-0.521,0.071-0.709s0.142-0.355,0.282-0.504c0.096-0.104,0.222-0.193,0.378-0.27,0.16-0.076,0.356-0.113,0.588-0.113s0.429,0.037,0.588,0.113c0.16,0.076,0.288,0.166,0.384,0.27,0.141,0.148,0.234,0.316,0.282,0.504,0.048,0.189,0.072,0.425,0.072,0.709"/>
        <path d="M23.831,22.22c-0.16,0-0.298-0.026-0.414-0.077-0.116-0.053-0.212-0.121-0.288-0.205-0.072-0.084-0.126-0.178-0.162-0.281-0.031-0.108-0.048-0.219-0.048-0.33v-3.379h0.78v3.33c0,0.093,0.02,0.162,0.06,0.211,0.044,0.048,0.116,0.072,0.216,0.072h0.301v0.659h-0.445"/>
        <path d="M16.871,8.649c0-0.561-0.195-1.013-0.586-1.357-0.377-0.344-0.9-0.516-1.569-0.516h-2.72v3.728h2.72c0.669,0,1.192-0.166,1.569-0.497,0.391-0.345,0.586-0.797,0.586-1.358m2.908,0c0,0.574-0.111,1.122-0.336,1.645-0.223,0.51-0.551,0.962-0.982,1.357-0.418,0.383-0.936,0.688-1.548,0.918-0.601,0.217-1.283,0.325-2.051,0.325h-2.866v5.125h-2.908v-13.615h5.774c0.768,0,1.451,0.115,2.051,0.344,0.612,0.217,1.13,0.522,1.548,0.917,0.432,0.382,0.76,0.835,0.982,1.357,0.225,0.511,0.336,1.053,0.336,1.627"/>
    </g>
</g>
</svg>
