<?xml version="1.0" encoding="utf-8"?>
<svg version="1.1" xmlns="http://www.w3.org/2000/svg" xmlns:xlink="http://www.w3.org/1999/xlink" width="20px" height="23px">
<g>
	<path fill="#228CCC" d="M10,17.75c-3.486,0-6.322-2.836-6.322-6.322c0-3.236,2.471-5.951,5.667-6.28V3.661
		c-0.666-0.265-1.117-0.915-1.117-1.64C8.229,1.045,9.023,0.25,10,0.25c0.977,0,1.771,0.795,1.771,1.771
		c0,0.724-0.451,1.373-1.117,1.64v1.487c3.195,0.33,5.666,3.044,5.668,6.28C16.322,14.914,13.486,17.75,10,17.75z"/>
	<path fill="#FFFFFF" d="M10,0.5c0.84,0,1.521,0.681,1.521,1.521c0,0.7-0.476,1.282-1.118,1.46v1.896
		c3.163,0.209,5.667,2.834,5.667,6.051C16.072,14.782,13.354,17.5,10,17.5c-3.353,0-6.072-2.718-6.072-6.072
		c0-3.217,2.503-5.842,5.667-6.051V3.482c-0.643-0.178-1.117-0.761-1.117-1.46C8.479,1.182,9.16,0.5,10,0.5 M10,0
		C8.885,0,7.979,0.907,7.979,2.021c0,0.77,0.444,1.464,1.117,1.801v1.104C5.882,5.37,3.428,8.14,3.428,11.428
		C3.428,15.052,6.376,18,10,18s6.572-2.948,6.572-6.572C16.57,8.14,14.116,5.37,10.904,4.926V3.822
		c0.673-0.338,1.117-1.032,1.117-1.801C12.021,0.907,11.113,0,10,0L10,0z"/>
</g>
<path fill="#228CCC" d="M10.405,5.377V3.482c0.642-0.179,1.117-0.761,1.117-1.46C11.521,1.181,10.84,0.5,10,0.5
	S8.479,1.182,8.479,2.021c0,0.7,0.474,1.283,1.117,1.46v1.896c-3.164,0.209-5.667,2.834-5.667,6.05C3.928,14.782,6.647,17.5,10,17.5
	c3.354,0,6.072-2.718,6.072-6.072C16.07,8.212,13.566,5.586,10.405,5.377z"/>
</svg>
