<?xml version="1.0" encoding="utf-8"?>
<svg version="1.1" xmlns="http://www.w3.org/2000/svg" xmlns:xlink="http://www.w3.org/1999/xlink" width="20px" height="31px">
<g>
	<path fill="#BD2877" d="M7.061,17.75V0.25h5.878v17.5H7.061z M10,8.622c-0.929,0-1.685,0.756-1.685,1.686
		c0,0.93,0.756,1.686,1.685,1.686c0.93,0,1.686-0.756,1.686-1.686C11.686,9.378,10.93,8.622,10,8.622z"/>
	<path fill="#FFFFFF" d="M12.689,0.5v17H7.311v-17H12.689 M10,12.244c1.07,0,1.936-0.866,1.936-1.936
		c0-1.069-0.867-1.936-1.936-1.936c-1.069,0-1.935,0.867-1.935,1.936S8.931,12.244,10,12.244 M13.189,0h-0.5H7.311h-0.5v0.5v17V18
		h0.5h5.378h0.5v-0.5v-17V0L13.189,0z M10,11.744c-0.791,0-1.435-0.644-1.435-1.436S9.209,8.872,10,8.872
		c0.792,0,1.436,0.644,1.436,1.436S10.792,11.744,10,11.744L10,11.744z"/>
</g>
<path fill="#BD2877" d="M7.311,0.5h5.378v17H7.311V0.5z M11.936,10.308c0-1.069-0.867-1.936-1.936-1.936
	c-1.069,0-1.935,0.867-1.935,1.936S8.931,12.244,10,12.244C11.07,12.244,11.936,11.378,11.936,10.308z"/>
</svg>
