<?xml version="1.0" encoding="utf-8"?>
<svg version="1.1" xmlns="http://www.w3.org/2000/svg" xmlns:xlink="http://www.w3.org/1999/xlink" x="0px" y="0px" width="20px" height="25px">
<g>
	<rect x="1.42" y="4.236" fill="#DE7233" width="8.311" height="10.264"/>
	<path fill="#FFFFFF" d="M9.481,4.486v9.764H1.67V4.486H9.481 M9.981,3.986h-0.5H1.67h-0.5v0.5v9.764v0.5h0.5h7.811h0.5v-0.5V4.486
		V3.986L9.981,3.986z"/>
</g>
<g>
	<path fill="#DE7233" d="M1.416,3.446L1.42,3.191c0-0.029,0.105-2.876,4.156-2.876c3.991,0,4.155,2.842,4.156,2.871l0.011,0.26
		H1.416z"/>
	<path fill="#FFFFFF" d="M5.577,0.564c3.797,0,3.906,2.631,3.906,2.631H1.67C1.67,3.196,1.725,0.564,5.577,0.564 M5.577,0.064
		c-4.292,0-4.405,3.09-4.406,3.121l-0.01,0.51h0.51h7.812h0.521l-0.021-0.52C9.981,3.144,9.804,0.064,5.577,0.064L5.577,0.064z"/>
</g>
<g>
	<rect x="10.608" y="4.3" fill="#DE7233" width="8.312" height="10.265"/>
	<path fill="#FFFFFF" d="M18.668,4.55v9.765h-7.811V4.55H18.668 M19.168,4.05h-0.5h-7.811h-0.5v0.5v9.765v0.5h0.5h7.811h0.5v-0.5
		V4.55V4.05L19.168,4.05z"/>
</g>
<g>
	<path fill="#DE7233" d="M10.603,3.446l0.005-0.255c0-0.029,0.105-2.876,4.156-2.876c3.99,0,4.154,2.842,4.156,2.871l0.01,0.26
		H10.603z"/>
	<path fill="#FFFFFF" d="M14.764,0.564c3.797,0,3.906,2.631,3.906,2.631h-7.813C10.857,3.196,10.912,0.564,14.764,0.564
		 M14.764,0.064c-4.292,0-4.404,3.09-4.405,3.121l-0.011,0.51h0.51h7.813h0.521l-0.021-0.52C19.168,3.144,18.99,0.064,14.764,0.064
		L14.764,0.064z"/>
</g>
<rect x="1.669" y="4.55" fill="#DE7233" width="7.811" height="9.765"/>
<path fill="#DE7233" d="M1.668,3.195c0,0,0.054-2.631,3.906-2.631c3.797,0,3.906,2.631,3.906,2.631H1.668z"/>
<rect x="10.855" y="4.55" fill="#DE7233" width="7.813" height="9.765"/>
<path fill="#DE7233" d="M10.855,3.195c0,0,0.057-2.631,3.906-2.631c3.797,0,3.906,2.631,3.906,2.631H10.855L10.855,3.195z"/>
</svg>
