<?xml version="1.0" encoding="utf-8"?>
<svg version="1.1" xmlns="http://www.w3.org/2000/svg" xmlns:xlink="http://www.w3.org/1999/xlink"
	 width="20px" height="31px">
<g transform="matrix(0.89473682,0,0,0.89473682,-2.6811049,-4.5891051)">
	<g>
		<path fill="#BD2877" d="M22.396,16.467v-6.279c0-1.776-1.445-3.221-3.222-3.221H9.175c-1.776,0-3.221,1.445-3.221,3.221v6.279
			H4.396v-6.279c0-2.635,2.144-4.779,4.779-4.779h9.999c2.637,0,4.781,2.144,4.781,4.779v6.279H22.396z"/>
		<path fill="#FFFFFF" d="M19.174,5.688c2.482,0,4.501,2.019,4.501,4.5v6h-1v-6c0-1.93-1.57-3.5-3.501-3.5H9.175
			c-1.93,0-3.5,1.57-3.5,3.5v6h-1v-6c0-2.481,2.019-4.5,4.5-4.5H19.174 M19.174,5.129H9.175c-2.79,0-5.059,2.269-5.059,5.059v6
			v0.559h0.559h1h0.559v-0.559v-6c0-1.622,1.32-2.941,2.941-2.941h9.999c1.622,0,2.943,1.32,2.943,2.941v6v0.559h0.559h1h0.559
			v-0.559v-6C24.234,7.398,21.966,5.129,19.174,5.129L19.174,5.129z"/>
	</g>
	<g>
		<path fill="#BD2877" d="M13.146,24.055v-5.589H9.176c-1.257,0-2.279-1.022-2.279-2.279v-6c0-1.257,1.023-2.28,2.279-2.28h10
			c1.255,0,2.279,1.023,2.279,2.28v6c0,1.257-1.024,2.279-2.279,2.279h-3.971v5.589H13.146z M14.176,10.466
			c-1.5,0-2.72,1.22-2.72,2.72c0,1.5,1.22,2.721,2.72,2.721c1.501,0,2.722-1.221,2.722-2.721
			C16.897,11.686,15.677,10.466,14.176,10.466z"/>
		<path fill="#FFFFFF" d="M19.176,8.187c1.1,0,2,0.9,2,2v6c0,1.1-0.899,2-2,2h-4.25v5.589h-1.5v-5.589h-4.25c-1.1,0-2-0.9-2-2v-6
			c0-1.1,0.9-2,2-2H19.176 M14.176,16.187c1.656,0,3.001-1.343,3.001-3c0-1.657-1.345-3-3.001-3s-3,1.343-3,3
			C11.176,14.844,12.519,16.187,14.176,16.187 M19.176,7.628h-10c-1.411,0-2.559,1.148-2.559,2.559v6
			c0,1.411,1.148,2.558,2.559,2.558h3.691v5.031v0.559h0.559h1.5h0.559v-0.559v-5.031h3.691c1.41,0,2.558-1.148,2.558-2.558v-6
			C21.735,8.776,20.586,7.628,19.176,7.628L19.176,7.628z M14.176,15.628c-1.346,0-2.441-1.095-2.441-2.442
			c0-1.346,1.095-2.441,2.441-2.441c1.346,0,2.442,1.095,2.442,2.441C16.618,14.533,15.522,15.628,14.176,15.628L14.176,15.628z"/>
	</g>
</g>
<g transform="matrix(0.89473682,0,0,0.89473682,-2.6811049,-4.5891051)">
	<path fill="#BD2877" d="M23.675,16.188h-1v-6c0-1.93-1.57-3.5-3.501-3.5H9.175c-1.93,0-3.5,1.57-3.5,3.5v6h-1v-6
		c0-2.481,2.019-4.5,4.5-4.5h9.999c2.482,0,4.501,2.019,4.501,4.5V16.188z"/>
	<path fill="#BD2877" d="M19.176,8.187h-10c-1.1,0-2,0.9-2,2v6c0,1.1,0.9,2,2,2h4.25v5.589h1.5v-5.589h4.25c1.1,0,2-0.9,2-2v-6
		C21.176,9.087,20.276,8.187,19.176,8.187z M14.176,16.187c-1.657,0-3-1.343-3-3c0-1.657,1.343-3,3-3c1.656,0,3.001,1.343,3.001,3
		C17.177,14.844,15.832,16.187,14.176,16.187z"/>
</g>
</svg>
