<?xml version="1.0" encoding="utf-8"?>
<svg version="1.1" xmlns="http://www.w3.org/2000/svg" xmlns:xlink="http://www.w3.org/1999/xlink" width="20px" height="31px">
<g>
	<path fill="#228CCC" d="M10.006,18.023c-0.389,0-0.781-0.159-1.075-0.438c-0.286-0.285-0.448-0.68-0.448-1.086
		s0.161-0.801,0.442-1.083c0.279-0.272,0.674-0.426,1.086-0.426c0.413,0,0.805,0.155,1.077,0.426
		c0.282,0.298,0.441,0.69,0.441,1.083c0,0.394-0.159,0.785-0.438,1.076C10.789,17.864,10.397,18.023,10.006,18.023z"/>
	<path fill="#FFFFFF" d="M10.011,15.242c0.333,0,0.664,0.118,0.9,0.353c0.229,0.242,0.368,0.573,0.368,0.905
		s-0.139,0.664-0.368,0.904c-0.241,0.229-0.574,0.369-0.905,0.369s-0.662-0.141-0.904-0.369c-0.242-0.24-0.369-0.572-0.369-0.904
		s0.127-0.663,0.369-0.905C9.344,15.359,9.678,15.242,10.011,15.242 M10.011,14.742c-0.476,0-0.934,0.18-1.257,0.495
		C8.421,15.57,8.233,16.029,8.233,16.5c0,0.475,0.188,0.934,0.517,1.26c0.35,0.33,0.804,0.515,1.256,0.515
		c0.454,0,0.909-0.185,1.249-0.506c0.341-0.354,0.524-0.812,0.524-1.269c0-0.455-0.186-0.91-0.506-1.249
		C10.945,14.923,10.489,14.742,10.011,14.742L10.011,14.742z"/>
</g>
<g>
	<path fill="#228CCC" d="M10.006,13.937c-0.84,0-1.523-0.683-1.523-1.523c0-0.84,0.683-1.524,1.523-1.524s1.523,0.684,1.523,1.524
		C11.529,13.253,10.846,13.937,10.006,13.937z M10.006,9.836c-0.84,0-1.523-0.684-1.523-1.523s0.683-1.523,1.523-1.523
		s1.523,0.684,1.523,1.523S10.846,9.836,10.006,9.836z M16.464,5.71c-0.646,0-1.222-0.416-1.435-1.035
		c-0.135-0.396-0.105-0.815,0.08-1.184c0.183-0.362,0.496-0.63,0.883-0.754c0.152-0.054,0.318-0.082,0.484-0.082
		c0.646,0,1.221,0.418,1.434,1.041c0.133,0.386,0.105,0.799-0.076,1.164c-0.182,0.365-0.497,0.635-0.886,0.761
		C16.809,5.677,16.637,5.71,16.464,5.71z M13.316,3.57c-0.84,0-1.522-0.684-1.522-1.523s0.683-1.523,1.522-1.523
		c0.841,0,1.523,0.684,1.523,1.523S14.157,3.57,13.316,3.57z"/>
	<path fill="#FFFFFF" d="M13.316,0.773c0.703,0,1.273,0.572,1.273,1.273s-0.559,1.273-1.273,1.273c-0.699,0-1.272-0.562-1.272-1.273
		C12.044,1.345,12.617,0.773,13.316,0.773 M16.479,2.906c0.524,0,1.013,0.336,1.195,0.872c0.229,0.663-0.128,1.388-0.803,1.606
		c-0.128,0.051-0.268,0.076-0.407,0.076c-0.534,0-1.019-0.344-1.198-0.866c-0.229-0.675,0.129-1.402,0.803-1.618
		C16.204,2.928,16.342,2.906,16.479,2.906 M10.006,7.04c0.701,0,1.273,0.573,1.273,1.273c0,0.713-0.572,1.273-1.273,1.273
		c-0.7,0-1.273-0.562-1.273-1.273C8.733,7.612,9.306,7.04,10.006,7.04 M10.006,11.14c0.701,0,1.273,0.561,1.273,1.274
		c0,0.7-0.572,1.273-1.273,1.273c-0.7,0-1.273-0.574-1.273-1.273C8.733,11.7,9.306,11.14,10.006,11.14 M13.316,0.273
		c-0.979,0-1.772,0.795-1.772,1.773s0.795,1.773,1.772,1.773c0.979,0,1.773-0.795,1.773-1.773S14.295,0.273,13.316,0.273
		L13.316,0.273z M16.479,2.406L16.479,2.406c-0.194,0-0.389,0.033-0.574,0.097c-0.438,0.141-0.805,0.454-1.018,0.876
		c-0.217,0.428-0.25,0.917-0.095,1.375c0.248,0.722,0.92,1.206,1.672,1.206c0.203,0,0.408-0.039,0.593-0.111
		c0.422-0.136,0.789-0.451,1.002-0.876c0.213-0.425,0.243-0.908,0.088-1.358C17.898,2.893,17.229,2.406,16.479,2.406L16.479,2.406z
		 M10.006,6.54c-0.978,0-1.773,0.795-1.773,1.773s0.795,1.773,1.773,1.773c0.979,0,1.773-0.795,1.773-1.773S10.982,6.54,10.006,6.54
		L10.006,6.54z M10.006,10.64c-0.978,0-1.773,0.796-1.773,1.774s0.795,1.773,1.773,1.773c0.979,0,1.773-0.795,1.773-1.773
		S10.982,10.64,10.006,10.64L10.006,10.64z"/>
</g>
<g>
	<path fill="#228CCC" d="M16.578,9.797c-0.413,0-0.799-0.157-1.082-0.442c-0.28-0.28-0.441-0.674-0.441-1.081
		c0-0.405,0.161-0.799,0.441-1.081c0.275-0.27,0.669-0.422,1.08-0.422c0.412,0,0.807,0.153,1.081,0.419
		c0.284,0.302,0.444,0.694,0.444,1.083c0,0.391-0.16,0.783-0.438,1.077C17.357,9.639,16.967,9.797,16.578,9.797z"/>
	<path fill="#FFFFFF" d="M16.576,7.021c0.335,0,0.669,0.118,0.906,0.349c0.229,0.242,0.369,0.573,0.369,0.904
		s-0.142,0.664-0.369,0.904c-0.242,0.228-0.573,0.369-0.904,0.369c-0.346,0-0.664-0.127-0.905-0.369
		c-0.241-0.241-0.368-0.573-0.368-0.904s0.127-0.662,0.368-0.904C15.913,7.136,16.245,7.021,16.576,7.021 M16.576,6.521
		c-0.482,0-0.928,0.174-1.252,0.49c-0.332,0.333-0.52,0.792-0.52,1.263c0,0.473,0.188,0.932,0.514,1.258
		c0.332,0.332,0.779,0.515,1.26,0.515c0.451,0,0.906-0.184,1.247-0.505c0.342-0.359,0.526-0.814,0.526-1.269
		c0-0.452-0.186-0.907-0.506-1.248C17.512,6.7,17.055,6.521,16.576,6.521L16.576,6.521z"/>
</g>
<g>
	<path fill="#228CCC" d="M9.982,18.023c-0.393,0-0.792-0.165-1.068-0.441c-0.289-0.287-0.456-0.683-0.456-1.082
		c0-0.392,0.16-0.784,0.438-1.077c0.284-0.276,0.677-0.431,1.085-0.431c0.408,0,0.801,0.154,1.08,0.424
		c0.283,0.286,0.444,0.68,0.444,1.083c0,0.406-0.161,0.801-0.442,1.082C10.762,17.864,10.369,18.023,9.982,18.023z"/>
	<path fill="#FFFFFF" d="M9.982,15.242c0.331,0,0.663,0.118,0.905,0.353c0.24,0.242,0.369,0.573,0.369,0.905
		s-0.129,0.664-0.369,0.904c-0.244,0.229-0.575,0.369-0.905,0.369c-0.333,0-0.664-0.141-0.892-0.369
		c-0.242-0.24-0.382-0.572-0.382-0.904s0.139-0.663,0.37-0.905C9.32,15.359,9.651,15.242,9.982,15.242 M9.982,14.742
		c-0.479,0-0.924,0.176-1.252,0.495C8.394,15.59,8.209,16.045,8.209,16.5c0,0.467,0.193,0.926,0.53,1.26
		c0.325,0.326,0.779,0.514,1.243,0.514c0.45,0,0.903-0.184,1.247-0.504c0.34-0.339,0.526-0.798,0.526-1.27
		c0-0.47-0.188-0.929-0.514-1.258C10.906,14.918,10.462,14.742,9.982,14.742L9.982,14.742z"/>
</g>
<g>
	<path fill="#228CCC" d="M9.982,13.924c-0.84,0-1.524-0.678-1.524-1.511c0-0.84,0.684-1.524,1.524-1.524
		c0.854,0,1.523,0.669,1.523,1.524C11.506,13.26,10.837,13.924,9.982,13.924z M9.982,9.836c-0.84,0-1.524-0.684-1.524-1.523
		s0.684-1.523,1.524-1.523c0.84,0,1.523,0.684,1.523,1.523S10.822,9.836,9.982,9.836z M3.525,5.697c-0.205,0-0.359-0.025-0.5-0.081
		C2.65,5.494,2.336,5.219,2.153,4.852c-0.18-0.364-0.207-0.774-0.075-1.155c0.211-0.622,0.79-1.04,1.439-1.04
		c0.167,0,0.334,0.028,0.497,0.083c0.789,0.258,1.221,1.119,0.959,1.919C4.751,5.282,4.17,5.697,3.525,5.697z M6.67,3.57
		c-0.84,0-1.523-0.684-1.523-1.523S5.83,0.523,6.67,0.523s1.523,0.684,1.523,1.523S7.51,3.57,6.67,3.57z"/>
	<path fill="#FFFFFF" d="M6.67,0.773c0.7,0,1.273,0.572,1.273,1.273c0,0.713-0.573,1.273-1.273,1.273
		c-0.713,0-1.273-0.573-1.273-1.273C5.396,1.345,5.969,0.773,6.67,0.773 M3.517,2.906c0.137,0,0.277,0.022,0.416,0.069
		C4.595,3.191,4.952,3.917,4.735,4.58c-0.191,0.536-0.688,0.867-1.21,0.867c-0.141,0-0.28-0.013-0.409-0.063
		C2.455,5.166,2.085,4.44,2.314,3.777C2.497,3.242,2.985,2.906,3.517,2.906 M9.982,7.04c0.713,0,1.273,0.573,1.273,1.273
		c0,0.701-0.562,1.273-1.273,1.273c-0.702,0-1.274-0.573-1.274-1.273S9.28,7.04,9.982,7.04 M9.982,11.14
		c0.713,0,1.273,0.561,1.273,1.274c0,0.7-0.562,1.261-1.273,1.261c-0.702,0-1.274-0.562-1.274-1.261
		C8.708,11.7,9.28,11.14,9.982,11.14 M6.67,0.273c-0.978,0-1.773,0.795-1.773,1.773S5.692,3.82,6.67,3.82s1.773-0.795,1.773-1.773
		S7.648,0.273,6.67,0.273L6.67,0.273z M3.517,2.406L3.517,2.406c-0.756,0-1.43,0.486-1.676,1.211
		C1.688,4.059,1.719,4.538,1.93,4.962c0.212,0.429,0.578,0.747,1.03,0.896c0.196,0.079,0.418,0.089,0.565,0.089
		c0.75,0,1.425-0.482,1.681-1.199C5.514,3.806,5.011,2.802,4.088,2.5C3.906,2.438,3.712,2.406,3.517,2.406L3.517,2.406z M9.982,6.54
		c-0.978,0-1.774,0.795-1.774,1.773s0.796,1.773,1.774,1.773s1.773-0.795,1.773-1.773S10.96,6.54,9.982,6.54L9.982,6.54z
		 M9.982,10.64c-0.978,0-1.774,0.796-1.774,1.774c0,0.971,0.796,1.761,1.774,1.761s1.773-0.79,1.773-1.761
		C11.756,11.419,10.977,10.64,9.982,10.64L9.982,10.64z"/>
</g>
<g>
	<path fill="#228CCC" d="M3.41,9.797c-0.393,0-0.792-0.166-1.069-0.443C2.06,9.075,1.899,8.682,1.899,8.274
		c0-0.405,0.161-0.799,0.442-1.081C2.609,6.925,3,6.771,3.413,6.771c0.41,0,0.801,0.153,1.075,0.419
		C4.78,7.484,4.946,7.878,4.946,8.274c0,0.399-0.166,0.793-0.456,1.082C4.205,9.641,3.821,9.797,3.41,9.797z"/>
	<path fill="#FFFFFF" d="M3.413,7.021c0.329,0,0.661,0.115,0.901,0.349c0.241,0.242,0.382,0.573,0.382,0.904
		s-0.14,0.664-0.382,0.904C4.072,9.42,3.753,9.547,3.41,9.547c-0.331,0-0.664-0.14-0.892-0.369c-0.242-0.24-0.369-0.573-0.369-0.904
		s0.127-0.662,0.369-0.904C2.749,7.14,3.08,7.021,3.413,7.021 M3.414,6.521L3.414,6.521c-0.479,0-0.935,0.181-1.249,0.495
		C1.837,7.345,1.649,7.803,1.649,8.274c0,0.473,0.188,0.932,0.516,1.259c0.321,0.322,0.787,0.514,1.245,0.514
		c0.478,0,0.924-0.183,1.257-0.515c0.336-0.334,0.529-0.793,0.529-1.258c0-0.461-0.192-0.92-0.527-1.257
		C4.343,6.7,3.887,6.521,3.414,6.521L3.414,6.521z"/>
</g>
<g>
	<path fill="#228CCC" d="M10,5.712c-0.413,0-0.797-0.157-1.082-0.442c-0.28-0.28-0.441-0.674-0.441-1.081
		c0-0.405,0.161-0.799,0.441-1.081c0.277-0.27,0.669-0.422,1.081-0.422c0.413,0,0.808,0.153,1.081,0.419
		c0.285,0.302,0.443,0.694,0.443,1.083c0,0.391-0.158,0.783-0.438,1.076C10.779,5.553,10.389,5.712,10,5.712z"/>
	<path fill="#FFFFFF" d="M9.998,2.937c0.335,0,0.669,0.118,0.906,0.349c0.229,0.242,0.369,0.573,0.369,0.904
		s-0.142,0.664-0.369,0.904C10.662,5.321,10.331,5.462,10,5.462c-0.346,0-0.664-0.127-0.905-0.369
		C8.854,4.853,8.727,4.521,8.727,4.189s0.127-0.662,0.368-0.904C9.335,3.05,9.667,2.937,9.998,2.937 M9.998,2.437
		c-0.482,0-0.927,0.174-1.252,0.49c-0.332,0.333-0.52,0.792-0.52,1.263c0,0.473,0.188,0.932,0.515,1.258
		C9.073,5.779,9.52,5.962,10,5.962c0.452,0,0.906-0.184,1.247-0.505c0.342-0.359,0.526-0.814,0.526-1.269
		c0-0.452-0.186-0.907-0.506-1.248C10.934,2.614,10.476,2.437,9.998,2.437L9.998,2.437z"/>
</g>
<path fill="#228CCC" d="M8.739,12.414c0-0.713,0.573-1.274,1.273-1.274c0.701,0,1.273,0.561,1.273,1.274
	c0,0.7-0.572,1.273-1.273,1.273C9.312,13.687,8.739,13.112,8.739,12.414z M8.739,8.313c0-0.7,0.573-1.273,1.273-1.273
	c0.701,0,1.273,0.573,1.273,1.273c0,0.713-0.572,1.273-1.273,1.273C9.312,9.586,8.739,9.024,8.739,8.313z M15.271,4.593
	c-0.229-0.675,0.129-1.402,0.803-1.618c0.662-0.229,1.375,0.128,1.605,0.802c0.229,0.663-0.129,1.388-0.804,1.606
	c-0.128,0.051-0.269,0.076-0.407,0.076C15.936,5.46,15.451,5.116,15.271,4.593z M12.05,2.046c0-0.701,0.573-1.273,1.272-1.273
	c0.703,0,1.273,0.572,1.273,1.273s-0.559,1.273-1.273,1.273C12.623,3.32,12.05,2.758,12.05,2.046z"/>
<path fill="#228CCC" d="M16.584,9.547c-0.346,0-0.664-0.127-0.904-0.369c-0.242-0.241-0.369-0.573-0.369-0.904
	s0.127-0.662,0.369-0.904c0.483-0.471,1.338-0.458,1.809,0c0.229,0.242,0.369,0.573,0.369,0.904s-0.141,0.664-0.369,0.904
	C17.246,9.406,16.915,9.547,16.584,9.547z"/>
<path fill="#228CCC" d="M9.988,17.773c-0.333,0-0.664-0.141-0.892-0.369c-0.242-0.24-0.382-0.572-0.382-0.904
	s0.139-0.663,0.37-0.905c0.484-0.471,1.324-0.471,1.809,0c0.24,0.242,0.369,0.573,0.369,0.905s-0.129,0.664-0.369,0.904
	C10.648,17.633,10.318,17.773,9.988,17.773z"/>
<path fill="#228CCC" d="M8.714,12.414c0-0.713,0.572-1.274,1.274-1.274c0.713,0,1.274,0.561,1.274,1.274
	c0,0.7-0.562,1.261-1.274,1.261C9.286,13.674,8.714,13.112,8.714,12.414z M8.714,8.313c0-0.7,0.572-1.273,1.274-1.273
	c0.713,0,1.274,0.573,1.274,1.273c0,0.701-0.562,1.273-1.274,1.273C9.286,9.586,8.714,9.014,8.714,8.313z M3.123,5.383
	C2.46,5.166,2.091,4.44,2.32,3.777c0.229-0.674,0.942-1.032,1.619-0.802C4.601,3.191,4.958,3.917,4.741,4.58
	C4.55,5.116,4.054,5.447,3.531,5.447C3.39,5.447,3.251,5.435,3.123,5.383z M5.402,2.046c0-0.701,0.573-1.273,1.274-1.273
	c0.7,0,1.273,0.572,1.273,1.273c0,0.713-0.573,1.273-1.273,1.273C5.962,3.32,5.402,2.748,5.402,2.046z"/>
<path fill="#228CCC" d="M3.416,9.547c-0.331,0-0.664-0.14-0.892-0.369c-0.242-0.24-0.369-0.573-0.369-0.904s0.127-0.662,0.369-0.904
	c0.458-0.458,1.312-0.471,1.796,0c0.241,0.242,0.382,0.573,0.382,0.904S4.562,8.938,4.32,9.178C4.078,9.42,3.759,9.547,3.416,9.547z
	"/>
<path fill="#228CCC" d="M10.006,5.462c-0.346,0-0.664-0.127-0.905-0.369C8.859,4.853,8.732,4.521,8.732,4.189S8.859,3.527,9.1,3.286
	c0.484-0.471,1.339-0.458,1.81,0c0.229,0.242,0.369,0.573,0.369,0.904s-0.141,0.663-0.369,0.904
	C10.668,5.321,10.337,5.462,10.006,5.462z"/>
</svg>
