<?xml version="1.0" encoding="utf-8"?>
<svg version="1.1" xmlns="http://www.w3.org/2000/svg" xmlns:xlink="http://www.w3.org/1999/xlink" width="25px" height="25px">
<g>
	<path fill="#FFFFFF" d="M12.5,1.414l10.799,10.799l-10.8,10.801L1.7,12.214L12.5,1.414 M12.5,0l-0.707,0.707l-10.8,10.8
		l-0.707,0.707l0.707,0.708l10.799,10.799l0.707,0.707l0.707-0.707L24.007,12.92l0.707-0.707l-0.707-0.707L13.208,0.707L12.5,0
		L12.5,0z"/>
</g>
<rect x="4.862" y="4.578" transform="matrix(0.7071 -0.7071 0.7071 0.7071 -4.9757 12.4145)" fill="#693380" fill-opacity="0.2" stroke="#693380" width="15.274" height="15.272"/>
<path fill="#693380" d="M8.112,9.336v1.75h2.81v1.24h-2.81v2.89h-1.39v-7.12h4.69v1.24H8.112"/>
<path fill="#693380" d="M16.291,10.156c0-0.247-0.08-0.443-0.24-0.59c-0.153-0.153-0.38-0.23-0.68-0.23h-1.36v1.64h1.36
	c0.3,0,0.526-0.073,0.68-0.22C16.211,10.603,16.291,10.402,16.291,10.156 M16.392,13.096c0-0.239-0.078-0.443-0.229-0.61
	c-0.146-0.173-0.38-0.26-0.7-0.26h-1.449v1.75h1.449c0.32,0,0.555-0.087,0.7-0.26C16.313,13.543,16.392,13.336,16.392,13.096
	 M17.781,13.166c0,0.333-0.054,0.627-0.16,0.88s-0.257,0.467-0.45,0.641c-0.193,0.172-0.424,0.307-0.689,0.399
	c-0.268,0.087-0.561,0.13-0.881,0.13h-2.979v-7.12h2.859c0.699,0,1.24,0.18,1.619,0.54c0.387,0.36,0.58,0.847,0.58,1.46
	c0,0.2-0.029,0.38-0.09,0.54c-0.054,0.16-0.127,0.303-0.22,0.43c-0.087,0.12-0.185,0.223-0.29,0.31c-0.1,0.087-0.193,0.15-0.28,0.19
	c0.106,0.053,0.216,0.123,0.33,0.21c0.12,0.08,0.226,0.183,0.32,0.31c0.093,0.127,0.17,0.28,0.229,0.46
	C17.747,12.719,17.781,12.926,17.781,13.166"/>
</svg>
