<?xml version="1.0" encoding="utf-8"?>
<svg version="1.1" xmlns="http://www.w3.org/2000/svg" xmlns:xlink="http://www.w3.org/1999/xlink" width="21px" height="20px">
<g>
	<path fill="#BD2877" d="M10.5,17.404c-5.652,0-10.25-3.32-10.25-7.403c0-4.084,4.598-7.406,10.25-7.406
		c5.653,0.002,10.25,3.324,10.25,7.406C20.75,14.084,16.152,17.404,10.5,17.404z M10.5,4.124c-4.81,0-8.722,2.637-8.722,5.878
		c0,3.239,3.913,5.875,8.722,5.875s8.723-2.637,8.723-5.875S15.311,4.125,10.5,4.124L10.5,4.124z"/>
	<path fill="#FFFFFF" d="M10.5,2.846c5.514,0.002,10,3.213,10,7.156c0,3.944-4.486,7.153-10,7.153s-10-3.209-10-7.153
		C0.5,6.057,4.985,2.846,10.5,2.846 M10.5,16.127c4.948,0,8.973-2.748,8.973-6.125c0-3.377-4.023-6.126-8.973-6.128
		c-4.947,0-8.972,2.749-8.972,6.128C1.527,13.379,5.553,16.127,10.5,16.127 M10.5,2.346L10.5,2.346C4.709,2.346,0,5.781,0,10.001
		c0,4.221,4.71,7.653,10.5,7.653c5.79,0,10.5-3.434,10.5-7.653C21,5.783,16.289,2.348,10.5,2.346L10.5,2.346z M10.5,15.627
		c-4.671,0-8.472-2.523-8.472-5.625c0-3.104,3.801-5.628,8.472-5.628c4.672,0.002,8.473,2.527,8.473,5.628
		C18.973,13.104,15.172,15.627,10.5,15.627L10.5,15.627z"/>
</g>
<g>
	<path fill="#BD2877" d="M10.738,13.691c-0.672,0-1.268-0.16-1.771-0.479c-0.507-0.316-0.893-0.777-1.146-1.365
		c-0.247-0.57-0.372-1.201-0.372-1.872c0-0.728,0.141-1.386,0.417-1.957c0.283-0.583,0.703-1.036,1.25-1.347
		c0.419-0.242,0.944-0.364,1.558-0.364c0.8,0,1.439,0.194,1.902,0.577c0.463,0.382,0.762,0.915,0.893,1.582l0.049,0.242L11.84,9.058
		l-0.061-0.231c-0.07-0.276-0.199-0.486-0.391-0.642c-0.189-0.153-0.423-0.228-0.715-0.228c-0.455,0-0.804,0.153-1.069,0.469
		c-0.272,0.324-0.41,0.828-0.41,1.497c0,0.728,0.141,1.273,0.419,1.621c0.269,0.336,0.612,0.5,1.047,0.5
		c0.219,0,0.442-0.049,0.661-0.145c0.192-0.084,0.362-0.182,0.507-0.293v-0.477h-1.385V9.507h3.107v3l-0.066,0.07
		c-0.279,0.301-0.666,0.557-1.186,0.779C11.787,13.58,11.264,13.691,10.738,13.691z"/>
	<path fill="#FFFFFF" d="M10.673,6.559c0.743,0,1.325,0.173,1.743,0.52c0.418,0.347,0.688,0.826,0.807,1.437l-1.201,0.25
		c-0.084-0.327-0.242-0.585-0.477-0.774c-0.232-0.189-0.523-0.284-0.872-0.284c-0.529,0-0.949,0.187-1.261,0.559
		S8.944,9.189,8.944,9.922c0,0.791,0.158,1.382,0.474,1.777c0.316,0.396,0.73,0.594,1.242,0.594c0.254,0,0.507-0.055,0.761-0.166
		c0.256-0.109,0.475-0.244,0.656-0.402v-0.844h-1.385l0,0V9.758h2.607v2.652c-0.254,0.273-0.619,0.512-1.102,0.721
		c-0.48,0.207-0.968,0.311-1.461,0.311c-0.626,0-1.172-0.146-1.638-0.438c-0.466-0.293-0.816-0.709-1.05-1.254
		c-0.234-0.543-0.352-1.135-0.352-1.772c0-0.693,0.131-1.309,0.393-1.848C8.353,7.59,8.734,7.176,9.238,6.89
		C9.624,6.668,10.102,6.559,10.673,6.559 M10.673,6.059c-0.658,0-1.225,0.134-1.684,0.398C8.4,6.792,7.946,7.282,7.642,7.911
		c-0.294,0.605-0.443,1.3-0.443,2.066c0,0.705,0.132,1.369,0.393,1.971c0.273,0.635,0.692,1.133,1.244,1.479
		c0.543,0.342,1.184,0.516,1.904,0.516c0.559,0,1.118-0.117,1.659-0.352c0.553-0.238,0.967-0.514,1.27-0.84l0.135-0.143V12.41V9.758
		v-0.5h-0.5h-1.199l0.021-0.004l1.201-0.25l0.482-0.101l-0.094-0.485c-0.143-0.725-0.471-1.306-0.979-1.727
		C12.227,6.271,11.533,6.059,10.673,6.059L10.673,6.059z M10.661,11.793c-0.359,0-0.63-0.129-0.852-0.404
		c-0.241-0.303-0.364-0.797-0.364-1.466c0-0.609,0.118-1.058,0.351-1.336c0.217-0.259,0.496-0.38,0.877-0.38
		c0.232,0,0.414,0.056,0.558,0.172c0.148,0.121,0.249,0.288,0.307,0.511l0.094,0.37h-0.938h-0.5v0.5v1.122v0.5h0.5h0.885v0.098
		c-0.104,0.07-0.224,0.135-0.354,0.189C11.031,11.752,10.849,11.793,10.661,11.793L10.661,11.793z"/>
</g>
<path fill="#BD2877" d="M10.5,17.154c-5.514,0-10-3.209-10-7.154s4.486-7.156,10-7.156c5.514,0.002,10,3.213,10,7.156
	C20.5,13.945,16.014,17.154,10.5,17.154z M10.5,3.874c-4.947,0-8.972,2.749-8.972,6.128c0,3.377,4.025,6.125,8.972,6.125
	c4.948,0,8.973-2.748,8.973-6.125C19.473,6.625,15.447,3.875,10.5,3.874z"/>
<path fill="#BD2877" d="M10.693,10.881V9.758h2.607v2.652c-0.254,0.273-0.619,0.512-1.102,0.721
	c-0.48,0.207-0.968,0.311-1.461,0.311c-0.626,0-1.172-0.146-1.638-0.439c-0.466-0.291-0.816-0.709-1.05-1.252
	c-0.234-0.543-0.352-1.135-0.352-1.772c0-0.693,0.131-1.309,0.393-1.848c0.261-0.54,0.643-0.953,1.147-1.24
	c0.384-0.221,0.862-0.332,1.435-0.332c0.743,0,1.325,0.173,1.743,0.52c0.418,0.347,0.688,0.826,0.807,1.437l-1.201,0.25
	c-0.084-0.327-0.242-0.585-0.477-0.774c-0.232-0.189-0.523-0.284-0.872-0.284c-0.529,0-0.949,0.187-1.261,0.559
	S8.944,9.189,8.944,9.921c0,0.792,0.158,1.383,0.474,1.778s0.73,0.594,1.242,0.594c0.254,0,0.507-0.055,0.761-0.166
	c0.256-0.109,0.475-0.244,0.656-0.402v-0.844H10.693L10.693,10.881z"/>
</svg>
