<?xml version="1.0" encoding="utf-8"?>
<svg version="1.1" id="Layer_1" xmlns="http://www.w3.org/2000/svg" xmlns:xlink="http://www.w3.org/1999/xlink" width="25px" height="31px">
<g>
	<rect x="16.029" y="0.25" fill="#228CCC" width="4.049" height="4.442"/>
	<path fill="#FFFFFF" d="M19.828,0.5v3.942h-3.549V0.5H19.828 M20.328,0h-0.5h-3.549h-0.5v0.5v3.942v0.5h0.5h3.549h0.5v-0.5V0.5V0
		L20.328,0z"/>
</g>
<g>
	<rect x="4.97" y="0.25" fill="#228CCC" width="4.048" height="4.442"/>
	<path fill="#FFFFFF" d="M8.769,0.5v3.942H5.22V0.5H8.769 M9.269,0h-0.5H5.22h-0.5v0.5v3.942v0.5h0.5h3.548h0.5v-0.5V0.5L9.269,0
		L9.269,0z"/>
</g>
<g>
	<polygon fill="#228CCC" points="14.771,17.75 15.208,13.664 20.95,13.664 21.382,17.75 	"/>
	<path fill="#FFFFFF" d="M20.727,13.914l0.377,3.586H15.05l0.382-3.586H20.727 M21.176,13.414h-0.449h-5.293h-0.449l-0.049,0.447
		l-0.381,3.586L14.495,18h0.556h6.055h0.556l-0.06-0.553l-0.379-3.586L21.176,13.414L21.176,13.414z"/>
</g>
<g>
	<polygon fill="#228CCC" points="15.596,9.443 16.004,5.568 20.002,5.568 20.413,9.443 	"/>
	<path fill="#FFFFFF" d="M19.777,5.818l0.356,3.375h-4.262l0.354-3.375H19.777 M20.229,5.318h-0.451h-3.549h-0.449l-0.047,0.448
		l-0.355,3.375l-0.059,0.552h0.556h4.263h0.555l-0.06-0.553l-0.356-3.375L20.229,5.318L20.229,5.318z"/>
</g>
<g>
	<rect x="1.407" y="9.94" fill="#228CCC" width="22.186" height="3.282"/>
	<path fill="#FFFFFF" d="M23.343,10.19v2.782H1.657V10.19H23.343 M23.843,9.69h-0.5H1.657h-0.5v0.5v2.782v0.5h0.5h21.686h0.5v-0.5
		V10.19V9.69L23.843,9.69z"/>
</g>
<g>
	<polygon fill="#228CCC" points="3.665,17.799 4.098,13.713 9.842,13.713 10.274,17.799 	"/>
	<path fill="#FFFFFF" d="M9.617,13.963l0.38,3.586H3.943l0.38-3.586H9.617 M10.066,13.463h-0.45H4.323h-0.45L3.826,13.91
		l-0.38,3.586l-0.059,0.553h0.556h6.054h0.556l-0.059-0.553l-0.38-3.586L10.066,13.463L10.066,13.463z"/>
</g>
<g>
	<polygon fill="#228CCC" points="4.534,9.371 4.944,5.496 8.941,5.496 9.352,9.371 	"/>
	<path fill="#FFFFFF" d="M8.716,5.746l0.357,3.375H4.812L5.17,5.746H8.716 M9.166,5.246h-0.45H5.169H4.72L4.672,5.693L4.314,9.068
		L4.256,9.621h0.556h4.262H9.63L9.571,9.068L9.213,5.693L9.166,5.246L9.166,5.246z"/>
</g>
<rect x="16.255" y="0.621" fill="#228CCC" width="3.55" height="3.942"/>
<rect x="5.195" y="0.621" fill="#228CCC" width="3.548" height="3.942"/>
<polygon fill="#228CCC" points="15.434,13.986 15.051,17.572 21.104,17.572 20.727,13.986 "/>
<polygon fill="#228CCC" points="20.161,9.166 19.805,5.791 16.255,5.791 15.898,9.166 "/>
<rect x="1.657" y="10.262" fill="#228CCC" width="21.686" height="2.782"/>
<polygon fill="#228CCC" points="4.323,14.035 3.943,17.621 9.997,17.621 9.617,14.035 "/>
<polygon fill="#228CCC" points="9.101,9.166 8.743,5.791 5.196,5.791 4.838,9.166 "/>
</svg>
