<?xml version="1.0" encoding="utf-8"?>
<svg version="1.1" id="Layer_1" xmlns="http://www.w3.org/2000/svg" xmlns:xlink="http://www.w3.org/1999/xlink" width="20px" height="27px">
<g>
	<polygon fill="#BD2877" points="4.938,15.751 4.938,13.437 7.208,8.789 8.622,0.251 11.878,0.251 13.268,8.858 15.563,13.435 
		15.563,15.751 	"/>
	<path fill="#FFFFFF" d="M11.665,0.501l1.354,8.397l2.293,4.596v2.007H5.188v-2.007l2.245-4.596l1.401-8.397H11.665 M12.091,0.001
		h-0.426H8.834H8.411l-0.07,0.417L6.952,8.744l-2.213,4.531l-0.051,0.104v0.116v2.006v0.5h0.5h10.125h0.5v-0.5v-2.007v-0.118
		l-0.053-0.105l-2.259-4.527l-1.343-8.322L12.091,0.001L12.091,0.001z"/>
</g>
<polygon fill="#BD2877" points="5.188,15.501 15.313,15.501 15.313,13.495 13.02,8.899 11.664,0.502 8.833,0.502 7.433,8.899 
	5.188,13.495 "/>
</svg>
