<?xml version="1.0" encoding="utf-8"?>
<svg version="1.1" xmlns="http://www.w3.org/2000/svg" xmlns:xlink="http://www.w3.org/1999/xlink" width="20px" height="31px">
<g transform="matrix(1.1996001,0,0,1.1996001,-7.0019322,-10.398134)">
	<g>
		<path fill="#BD2877" d="M14.174,22.062c-0.985,0-1.983-0.117-2.885-0.338l-0.159-0.039v-0.76h0.271l1.006-8.07
			c0.028-0.085,0.263-0.575,0.447-0.814c0.13-0.169,0.31-0.314,0.419-0.394v-0.118c0-0.111,0.061-0.202,0.136-0.271
			c-0.179-0.238-0.416-0.615-0.363-0.894c0.066-0.337,0.406-0.621,0.631-0.808l0.073-0.061c0.152-0.135,0.258-0.269,0.263-0.274
			l0.167-0.212l0.163,0.216c0.001,0.002,0.104,0.137,0.256,0.27l0.062,0.051c0.217,0.177,0.578,0.475,0.646,0.816
			c0.052,0.28-0.186,0.659-0.366,0.897c0.075,0.07,0.135,0.16,0.135,0.27v0.118c0.111,0.081,0.291,0.227,0.418,0.396
			c0.186,0.238,0.418,0.729,0.428,0.749l1.026,8.132h0.267v0.76l-0.16,0.039C16.156,21.944,15.16,22.062,14.174,22.062z"/>
		<path fill="#FFFFFF" d="M14.176,9.349c0,0,0.113,0.151,0.286,0.302c0.176,0.149,0.58,0.449,0.64,0.75
			c0.057,0.3-0.464,0.901-0.464,0.901s0.231,0.114,0.231,0.226v0.226c0,0,0.29,0.186,0.459,0.413
			c0.177,0.226,0.407,0.713,0.407,0.713l1.029,8.252h0.243v0.388c-0.837,0.206-1.804,0.333-2.833,0.333
			c-1.032,0-1.999-0.127-2.836-0.332v-0.388h0.247l1.029-8.252c0,0,0.233-0.488,0.406-0.713c0.175-0.226,0.462-0.413,0.462-0.413
			v-0.226c0-0.114,0.232-0.226,0.232-0.226s-0.519-0.599-0.463-0.901c0.059-0.301,0.463-0.601,0.635-0.75
			C14.059,9.499,14.176,9.349,14.176,9.349 M14.182,8.668l-0.333,0.423c-0.004,0.005-0.102,0.127-0.239,0.25l-0.066,0.055
			c-0.247,0.206-0.622,0.519-0.702,0.926c-0.056,0.302,0.114,0.65,0.304,0.929c-0.049,0.079-0.081,0.171-0.081,0.278v0.015
			c-0.115,0.092-0.26,0.221-0.375,0.37c-0.195,0.253-0.427,0.734-0.452,0.788l-0.029,0.061l-0.008,0.067l-0.983,7.887h-0.296v0.417
			v0.388v0.327l0.317,0.078c0.918,0.226,1.933,0.344,2.935,0.344c1.002,0,2.016-0.119,2.933-0.345l0.317-0.078v-0.327v-0.388v-0.417
			h-0.291l-0.985-7.887l-0.008-0.066l-0.029-0.06c-0.024-0.055-0.254-0.537-0.454-0.792c-0.111-0.147-0.256-0.277-0.371-0.368
			v-0.014c0-0.106-0.033-0.199-0.08-0.277c0.19-0.28,0.363-0.628,0.306-0.927c-0.081-0.417-0.48-0.744-0.718-0.939L14.73,9.334
			c-0.129-0.113-0.22-0.233-0.221-0.234L14.182,8.668L14.182,8.668z"/>
	</g>
	<g>
		<path fill="#BD2877" d="M14.174,24.562c-1.017,0-1.983-0.099-2.87-0.295l-0.127-0.028l-0.037-0.151l-0.01-0.067v-1.726
			l0.248,0.047c0.894,0.173,1.835,0.261,2.796,0.261c0.964,0,1.904-0.089,2.794-0.261l0.247-0.049v1.727l-0.026,0.135l-0.147,0.111
			C16.163,24.461,15.169,24.562,14.174,24.562z"/>
		<path fill="#FFFFFF" d="M17.008,22.548v1.475l-0.008,0.042c-0.847,0.184-1.809,0.288-2.825,0.288
			c-1.016,0-1.977-0.103-2.826-0.288l-0.01-0.042v-1.475c0.866,0.168,1.821,0.265,2.836,0.265
			C15.189,22.813,16.145,22.716,17.008,22.548 M17.424,22.043l-0.497,0.096c-0.878,0.171-1.804,0.257-2.754,0.257
			c-0.948,0-1.876-0.086-2.756-0.257l-0.496-0.096v0.505v1.475v0.05l0.012,0.049l0.01,0.041l0.062,0.252l0.254,0.055
			c0.902,0.199,1.883,0.3,2.915,0.3c1.026,0,2.006-0.101,2.915-0.3l0.267-0.059l0.052-0.269l0.008-0.042l0.008-0.039v-0.041v-1.474
			V22.043L17.424,22.043z"/>
	</g>
</g>
<g transform="matrix(1.1996001,0,0,1.1996001,-7.0019322,-10.398134)">
	<path fill="#BD2877" d="M14.174,21.853c1.029,0,1.997-0.127,2.833-0.333v-0.388h-0.243l-1.032-8.252c0,0-0.23-0.487-0.404-0.713
		c-0.171-0.227-0.462-0.413-0.462-0.413v-0.226c0-0.112-0.23-0.226-0.23-0.226s0.521-0.601,0.464-0.901
		c-0.06-0.301-0.464-0.601-0.639-0.75c-0.173-0.151-0.286-0.302-0.286-0.302s-0.118,0.15-0.29,0.303
		c-0.172,0.149-0.576,0.449-0.635,0.75c-0.056,0.302,0.463,0.901,0.463,0.901s-0.232,0.112-0.232,0.226v0.226
		c0,0-0.287,0.187-0.462,0.413c-0.173,0.225-0.406,0.713-0.406,0.713l-1.029,8.252h-0.247v0.388
		C12.175,21.726,13.142,21.853,14.174,21.853z"/>
	<path fill="#BD2877" d="M14.174,22.813c-1.015,0-1.97-0.098-2.836-0.265v1.475l0.01,0.042c0.849,0.186,1.81,0.288,2.826,0.288
		c1.016,0,1.979-0.104,2.825-0.288l0.008-0.042v-1.475C16.145,22.716,15.189,22.813,14.174,22.813z"/>
</g>
</svg>
