<?xml version="1.0" encoding="utf-8"?>
<svg version="1.1" xmlns="http://www.w3.org/2000/svg" xmlns:xlink="http://www.w3.org/1999/xlink" width="20px" height="31px">
<g transform="matrix(1.1333333,0,0,1.1333333,-4.0627329,-10.962733)">
	<g>
		<path fill="#BD2877" d="M9.808,25.335L9.788,9.893h8.769v5.478h-4.207v9.964H9.808L9.808,25.335z M17.353,14.045v-2.867h-3.04
			v2.867H17.353z"/>
		<path fill="#FFFFFF" d="M18.337,10.114v5.037H14.13v9.963h-4.102l-0.019-15H18.337 M14.092,14.265h3.482v-3.308h-3.482V14.265
			 M18.778,9.673h-0.441h-8.328H9.567v0.442l0.019,15v0.44h0.441h4.102h0.44v-0.441v-9.522h3.767h0.44v-0.441v-5.037L18.778,9.673
			L18.778,9.673z M14.533,11.398h2.6v2.426h-2.6V11.398L14.533,11.398z"/>
	</g>
</g>
<g transform="matrix(1.1333333,0,0,1.1333333,-4.0627329,-10.962733)">
	<path fill="#BD2877" d="M18.337,15.151H14.13v9.963h-4.102l-0.019-15h8.328V15.151L18.337,15.151z M17.575,10.957h-3.483v3.308
		h3.483V10.957z"/>
</g>
</svg>
