<?xml version="1.0" encoding="utf-8"?>
<svg version="1.1" xmlns="http://www.w3.org/2000/svg" xmlns:xlink="http://www.w3.org/1999/xlink"  width="20px" height="21px">
<g>
	<path fill="#BD2877" d="M7.762,13.75V6.617H4.369V0.639c0-0.199,0.136-0.35,0.347-0.385L15.242,0.25
		c0.229,0,0.389,0.16,0.389,0.389v5.978h-3.273v7.133H7.762z"/>
	<path fill="#FFFFFF" d="M15.242,0.5c0.091,0,0.139,0.048,0.139,0.139v5.728h-3.273V13.5H8.012V6.367H4.619V0.639
		c0-0.078,0.048-0.124,0.139-0.139H15.242 M15.242,0H4.758H4.716L4.675,0.007c-0.333,0.056-0.556,0.31-0.556,0.632v5.728v0.5h0.5
		h2.893V13.5V14h0.5h4.095h0.5v-0.5V6.867h2.772h0.5v-0.5V0.639C15.881,0.274,15.605,0,15.242,0L15.242,0z"/>
</g>
<path fill="#BD2877" d="M15.381,0.639c0-0.091-0.048-0.139-0.139-0.139H4.758c-0.09,0.015-0.139,0.061-0.139,0.139v5.728h3.393V13.5
	h4.095V6.367h3.272L15.381,0.639L15.381,0.639z"/>
</svg>
