<?xml version="1.0" encoding="utf-8"?>
<svg version="1.1" xmlns="http://www.w3.org/2000/svg" xmlns:xlink="http://www.w3.org/1999/xlink" width="25px" height="25px">
<g>
	<path fill="#FFFFFF" d="M12.5,1.571L23.299,12.37l-10.8,10.801L1.7,12.371L12.5,1.571 M12.5,0.157l-0.707,0.707l-10.8,10.8
		l-0.707,0.707l0.707,0.708l10.799,10.799l0.707,0.707l0.707-0.707l10.801-10.801l0.707-0.707l-0.707-0.707L13.208,0.864L12.5,0.157
		L12.5,0.157z"/>
</g>
<rect x="4.863" y="4.734" transform="matrix(0.7071 -0.7071 0.7071 0.7071 -5.0859 12.4622)" fill="#693380" fill-opacity="0.2" stroke="#693380" width="15.274" height="15.272"/>
<path fill="#693380" d="M13.468,11.301c-1.944-0.856-0.418-5.347,1.478-4.182C16.26,7.928,15.415,11.451,13.468,11.301z"/>
<path fill="#693380" d="M9.943,7.232c2.196-0.606,3.015,4.348,0.527,4.178C8.936,11.311,8.249,7.698,9.943,7.232z"/>
<path fill="#693380" d="M15.409,13.781c-1.076-0.822,0.251-3.756,1.688-3.609C19.59,10.429,17.191,15.143,15.409,13.781z"/>
<path fill="#693380" d="M9.628,14.23c-0.35,0.47-1.03,0.494-1.267,0.477c-1.929-0.136-1.994-3.636-0.421-3.799
	C9.325,10.765,10.55,13.002,9.628,14.23z"/>
<path fill="#693380" d="M16.068,17.041c-0.584,1.362-2.659,0.439-4.009,0.473c-0.899,0.027-2.233,0.772-2.744-0.186
	c-0.441-0.829,0.455-2.396,0.844-2.947c0.42-0.593,1.289-1.705,2.426-1.708C14.538,12.656,16.005,15.193,16.068,17.041
	L16.068,17.041z"/>
</svg>
