<?xml version="1.0" encoding="utf-8"?>
<svg version="1.1" id="Layer_1" xmlns="http://www.w3.org/2000/svg" xmlns:xlink="http://www.w3.org/1999/xlink" width="22px" height="28px">
<g>
	<path fill="#228CCC" d="M11,17.268c-2.066,0-3.747-1.682-3.747-3.747c0-2.066,1.681-3.747,3.747-3.747
		c2.066,0,3.747,1.681,3.747,3.747C14.747,15.588,13.066,17.268,11,17.268z"/>
	<path fill="#FFFFFF" d="M11,10.024c1.932,0,3.497,1.566,3.497,3.497c0,1.932-1.565,3.497-3.497,3.497
		c-1.931,0-3.497-1.564-3.497-3.497C7.503,11.59,9.069,10.024,11,10.024 M11,9.524c-2.204,0-3.997,1.793-3.997,3.997
		S8.796,17.518,11,17.518s3.997-1.793,3.997-3.997S13.204,9.524,11,9.524L11,9.524z"/>
</g>
<g transform="matrix(0.05873767,0,0,0.05873767,-8.154733,-6.86133)">
	<g>
		<polygon fill="#228CCC" points="225.66,589.848 183.073,513.336 183.073,589.848 151.601,589.848 151.601,445.337 
			182.417,445.337 225.751,523.877 225.751,445.337 257.216,445.337 257.216,589.848 		"/>
		<path fill="#FFFFFF" d="M252.959,449.593v135.999h-24.797l-49.345-88.682v88.682h-22.96V449.593h24.049l50.102,90.81v-90.81
			H252.959 M261.472,441.081h-8.512h-22.952h-8.512v8.512v57.758l-34.133-61.848l-2.427-4.423h-5.029h-24.049h-8.512v8.512v135.999
			v8.512h8.512h22.96h8.512v-8.512v-55.863l33.393,60.019l2.436,4.356h5.004h24.797h8.512v-8.512V449.593V441.081L261.472,441.081z"
			/>
	</g>
	<g>
		<path fill="#228CCC" d="M359.555,589.848l-10.674-30.891h-42.82l-10.109,30.891h-35.305l50.667-144.511h32.146l52.072,144.511
			H359.555z M338.058,527.535l-10.923-32.653l-10.69,32.653H338.058z"/>
		<path fill="#FFFFFF" d="M340.469,449.593l49.012,135.999h-26.9l-10.674-30.891h-48.93l-10.108,30.891h-26.219l47.683-135.999
			H340.469 M310.576,531.791h33.385h0.017l-16.875-50.476L310.576,531.791 M346.454,441.081h-5.985h-26.136h-6.035l-1.995,5.719
			l-47.683,135.999l-3.974,11.306h12.004h26.219h6.168l1.92-5.852l8.188-25.038h36.693l8.695,25.171l1.979,5.719h6.068h26.9h12.12
			l-4.107-11.405L348.483,446.7L346.454,441.081L346.454,441.081z M322.322,523.279l4.863-14.864l4.971,14.864H322.322
			L322.322,523.279z"/>
	</g>
	<g>
		<path fill="#228CCC" d="M398.327,589.848V445.337h43.925c15.562,0,25.57,0.731,30.591,2.195
			c7.914,2.327,14.614,7.348,19.901,14.996c5.22,7.515,7.864,17.224,7.864,28.896c0,8.978-1.513,16.659-4.506,22.91
			c-3.009,6.285-6.933,11.306-11.655,14.93c-4.655,3.625-9.51,6.052-14.398,7.216c-6.351,1.397-15.03,2.062-26.634,2.062h-11.854
			v51.307H398.327L398.327,589.848z M440.822,506.919c12.021,0,16.326-1.097,17.856-1.762c2.494-1.097,4.389-2.727,5.786-5.021
			c1.447-2.361,2.161-5.087,2.161-8.346c0-3.957-0.981-7.083-2.976-9.543c-1.979-2.427-4.439-3.924-7.481-4.555
			c-1.862-0.366-6.285-0.831-16.925-0.831h-7.681v30.059H440.822z"/>
		<path fill="#FFFFFF" d="M442.252,449.593c15.03,0,24.822,0.698,29.394,2.028c7.016,2.062,12.868,6.484,17.607,13.334
			c4.738,6.817,7.099,15.662,7.099,26.468c0,8.346-1.363,15.396-4.09,21.082c-2.727,5.686-6.185,10.142-10.408,13.4
			c-4.19,3.226-8.463,5.387-12.802,6.451c-5.902,1.297-14.448,1.928-25.637,1.928h-16.11v51.307h-24.723V449.593H442.252
			 M427.305,511.175h13.517c0.116,0,0.216,0,0.333,0c9.56,0,15.961-0.698,19.219-2.128c3.275-1.43,5.852-3.625,7.714-6.684
			c1.862-3.026,2.793-6.551,2.793-10.574c0-4.921-1.313-9.011-3.924-12.237c-2.627-3.225-5.919-5.22-9.942-6.019
			c-2.943-0.632-8.878-0.931-17.773-0.931h-11.937V511.175 M442.252,441.081h-39.669h-8.512v8.512v135.999v8.512h8.512h24.723h8.512
			v-8.512v-42.795h7.598c11.921,0,20.898-0.698,27.466-2.128c5.653-1.363,11.04-4.057,16.177-8.047
			c5.254-4.023,9.593-9.576,12.885-16.459c3.259-6.816,4.921-15.129,4.921-24.739c0-12.536-2.893-23.076-8.612-31.323
			c-5.869-8.446-13.334-14.065-22.229-16.659C470.582,442.444,463.533,441.081,442.252,441.081L442.252,441.081z M435.818,481.116
			h3.425c11.222,0,14.947,0.532,16.027,0.731c2.161,0.432,3.708,1.396,5.088,3.092c1.347,1.663,2.011,3.924,2.011,6.85
			c0,2.461-0.499,4.456-1.53,6.118c-0.948,1.563-2.178,2.594-3.874,3.358c-0.532,0.233-3.874,1.396-15.811,1.396h-5.337V481.116
			L435.818,481.116z"/>
	</g>
</g>
<circle fill="#228CCC" cx="11" cy="13.521" r="3.496"/>
<g transform="matrix(0.05873767,0,0,0.05873767,-8.154733,-6.86133)">
	<path fill="#228CCC" d="M155.848,585.592V449.593h24.049l50.102,90.81v-90.81h22.952v135.999h-24.797l-49.345-88.682v88.682
		H155.848L155.848,585.592z"/>
	<path fill="#228CCC" d="M389.481,585.592h-26.9l-10.674-30.891h-48.938l-10.108,30.891h-26.219l47.683-135.999h26.144
		L389.481,585.592z M343.96,531.791l-16.858-50.476l-16.534,50.476H343.96L343.96,531.791z"/>
	<path fill="#228CCC" d="M402.583,585.592V449.593h39.669c15.03,0,24.805,0.698,29.394,2.028c7.016,2.062,12.868,6.484,17.59,13.334
		c4.755,6.817,7.116,15.662,7.116,26.468c0,8.346-1.363,15.396-4.09,21.082c-2.727,5.686-6.185,10.142-10.408,13.4
		c-4.19,3.226-8.479,5.387-12.802,6.451c-5.919,1.297-14.464,1.928-25.637,1.928h-16.127v51.307H402.583L402.583,585.592z
		 M427.289,472.603v38.572h13.533c9.743,0.033,16.26-0.698,19.552-2.128c3.259-1.43,5.852-3.625,7.714-6.684
		c1.862-3.026,2.793-6.551,2.793-10.574c0-4.921-1.33-9.011-3.924-12.237c-2.627-3.225-5.919-5.22-9.942-6.019
		c-2.959-0.632-8.878-0.931-17.79-0.931H427.289L427.289,472.603z"/>
</g>
</svg>
