<?xml version="1.0" encoding="utf-8"?>
<svg version="1.1" xmlns="http://www.w3.org/2000/svg" xmlns:xlink="http://www.w3.org/1999/xlink" width="14px" height="14px">
<g>
	<path fill="#BF1F6F" d="M7,12.75c-3.17,0-5.75-2.579-5.75-5.75c0-3.17,2.58-5.75,5.75-5.75c3.171,0,5.75,2.58,5.75,5.75
		C12.75,10.171,10.171,12.75,7,12.75z"/>
	<path fill="#FFFFFF" d="M7,1.5c3.037,0,5.5,2.462,5.5,5.5c0,3.037-2.463,5.5-5.5,5.5c-3.038,0-5.5-2.463-5.5-5.5
		C1.5,3.962,3.962,1.5,7,1.5 M7,1C3.691,1,1,3.691,1,7s2.691,6,6,6s6-2.691,6-6S10.309,1,7,1L7,1z"/>
</g>
<circle fill="#BF1F6F" cx="7" cy="7" r="5.5"/>
</svg>
