<?xml version="1.0" encoding="utf-8"?>
<svg version="1.1" xmlns="http://www.w3.org/2000/svg" xmlns:xlink="http://www.w3.org/1999/xlink" width="11px" height="21px">
<g>
	<rect x="0.289" y="0.5" fill="#BD2877" width="10.422" height="1.918"/>
	<path fill="#FFFFFF" d="M10.461,0.75v1.418H0.539V0.75H10.461 M10.961,0.25h-0.5H0.539h-0.5v0.5v1.418v0.5h0.5h9.922h0.5v-0.5V0.75
		V0.25L10.961,0.25z"/>
</g>
<g>
	<path fill="#BD2877" d="M0.289,12.521V3.518h10.422v9.003H0.289z M2.813,5.343c-0.334,0-0.666,0.177-0.888,0.474
		c-0.22,0.294-0.295,0.66-0.201,0.979C1.839,7.307,2.335,7.68,2.883,7.68c0.188,0,0.37-0.048,0.524-0.139
		C3.723,7.383,3.94,7.073,4.003,6.705s-0.04-0.732-0.274-0.974C3.507,5.486,3.188,5.344,2.867,5.344L2.813,5.343z"/>
	<path fill="#FFFFFF" d="M10.461,3.768v8.503h-0.002h-9.92V3.768H10.461 M2.883,7.93c0.225,0,0.449-0.054,0.651-0.173
		c0.792-0.395,0.991-1.564,0.374-2.199C3.646,5.266,3.259,5.094,2.867,5.094c-0.003,0-0.005,0-0.008,0
		c-0.015,0-0.03-0.001-0.045-0.001c-0.873,0-1.578,0.931-1.328,1.773C1.626,7.504,2.256,7.93,2.883,7.93 M10.961,3.268h-0.5H0.539
		h-0.5v0.5v8.503v0.5h0.5h9.92h0.5v-0.5l0.002-8.503V3.268L10.961,3.268z M2.883,7.43c-0.374,0-0.816-0.251-0.91-0.672
		c-0.081-0.277-0.021-0.56,0.152-0.792C2.3,5.732,2.557,5.592,2.812,5.592l0.054,0.001c0.251,0,0.501,0.111,0.669,0.298
		c0.192,0.198,0.27,0.481,0.22,0.771c-0.05,0.29-0.214,0.533-0.444,0.648C3.163,7.395,3.029,7.43,2.883,7.43L2.883,7.43z"/>
</g>
<path fill="#BD2877" d="M0.538,0.75h9.923v1.418H0.538V0.75z"/>
<path fill="#BD2877" d="M10.459,12.271h-9.92V3.769h9.922v8.502H10.459L10.459,12.271z M2.858,5.094
	C1.965,5.061,1.231,6.009,1.485,6.867c0.192,0.867,1.283,1.342,2.049,0.891c0.792-0.395,0.991-1.564,0.374-2.199
	C3.644,5.265,3.253,5.092,2.858,5.094z"/>
</svg>
