<?xml version="1.0" encoding="utf-8"?>
<svg version="1.1" xmlns="http://www.w3.org/2000/svg" xmlns:xlink="http://www.w3.org/1999/xlink" width="25px" height="25px">
<g>
	<path fill="#FFFFFF" d="M12.553,1.414l10.798,10.799L12.552,23.014L1.753,12.213L12.553,1.414 M12.553,0l-0.707,0.707l-10.8,10.8
		l-0.707,0.707l0.707,0.709l10.799,10.799l0.707,0.707l0.708-0.707l10.801-10.801l0.707-0.707l-0.707-0.708L13.262,0.707L12.553,0
		L12.553,0z"/>
</g>
<rect x="4.917" y="4.578" transform="matrix(0.7071 -0.7071 0.7071 0.7071 -4.9597 12.4544)" fill="#693380" fill-opacity="0.2" stroke="#693380" width="15.274" height="15.272"/>
<g>
	<g>
		<defs>
			
				<rect id="SVGID_1_" x="3.397" y="3.493" transform="matrix(0.7072 -0.7071 0.7071 0.7072 -4.6378 11.0606)" width="15.274" height="15.273"/>
		</defs>
		<clipPath id="SVGID_2_">
			<use xlink:href="#SVGID_1_"  overflow="visible"/>
		</clipPath>
		<path clip-path="url(#SVGID_2_)" fill="#693380" d="M17.486,8.932h1.33l0.002,1H18.15l-3.463,8.199H6.375v-1h7.649L17.486,8.932z"
			/>
	</g>
</g>
<g>
	<g>
		<defs>
			
				<rect id="SVGID_3_" x="3.397" y="3.493" transform="matrix(0.7072 -0.7071 0.7071 0.7072 -4.6378 11.0606)" width="15.274" height="15.273"/>
		</defs>
		<clipPath id="SVGID_4_">
			<use xlink:href="#SVGID_3_"  overflow="visible"/>
		</clipPath>
		<path clip-path="url(#SVGID_4_)" fill="#693380" d="M8.586,12.052c0.721,0,1.261-0.391,1.699-0.703
			c0.311-0.223,0.582-0.418,0.823-0.418c0.194,0,0.371,0.142,0.66,0.383c0.366,0.312,0.871,0.738,1.628,0.738
			c0.729,0,1.23-0.39,1.639-0.707c0.191-0.147,0.34-0.255,0.477-0.325l0.652-1.542c-0.107-0.02-0.211-0.047-0.332-0.047
			c-0.777,0-1.297,0.406-1.715,0.729c-0.611,0.473-0.794,0.504-1.384,0.008c-0.366-0.312-0.871-0.738-1.625-0.738
			c-0.726,0-1.265,0.391-1.698,0.703c-0.312,0.225-0.582,0.419-0.824,0.419c-0.185,0-0.325-0.109-0.623-0.375
			C7.617,9.866,7.132,9.432,6.382,9.432v1.5c0.161,0,0.297,0.104,0.581,0.363C7.323,11.614,7.813,12.052,8.586,12.052z"/>
	</g>
</g>
</svg>
