<?xml version="1.0" encoding="utf-8"?>
<svg version="1.1" xmlns="http://www.w3.org/2000/svg" xmlns:xlink="http://www.w3.org/1999/xlink" width="20px" height="20px">
<g>
	<path fill="#BD2877" d="M2.444,16.125c-0.659,0-1.194-0.535-1.194-1.193V5.069c0-0.659,0.536-1.194,1.194-1.194
		s1.194,0.536,1.194,1.194v9.861C3.639,15.589,3.103,16.125,2.444,16.125z"/>
	<path fill="#FFFFFF" d="M2.444,4.125c0.521,0,0.944,0.423,0.944,0.944v9.861c0,0.521-0.423,0.944-0.944,0.944
		S1.5,15.452,1.5,14.932V5.069C1.5,4.548,1.923,4.125,2.444,4.125 M2.444,3.625C1.648,3.625,1,4.273,1,5.069v9.862
		c0,0.796,0.648,1.443,1.444,1.443s1.444-0.647,1.444-1.444V5.069C3.889,4.273,3.241,3.625,2.444,3.625L2.444,3.625z"/>
</g>
<g>
	<path fill="#BD2877" d="M7.481,16.125c-0.659,0-1.194-0.535-1.194-1.193V5.069c0-0.659,0.536-1.194,1.194-1.194
		s1.194,0.536,1.194,1.194v9.861C8.676,15.589,8.14,16.125,7.481,16.125z"/>
	<path fill="#FFFFFF" d="M7.481,4.125c0.521,0,0.944,0.423,0.944,0.944v9.861c0,0.521-0.423,0.944-0.944,0.944
		s-0.944-0.423-0.944-0.943V5.069C6.537,4.548,6.96,4.125,7.481,4.125 M7.481,3.625c-0.796,0-1.444,0.648-1.444,1.444v9.862
		c0,0.796,0.648,1.443,1.444,1.443s1.444-0.647,1.444-1.444V5.069C8.926,4.273,8.278,3.625,7.481,3.625L7.481,3.625z"/>
</g>
<g>
	<path fill="#BD2877" d="M12.52,16.125c-0.659,0-1.195-0.535-1.195-1.193V5.069c0-0.659,0.536-1.194,1.195-1.194
		c0.658,0,1.193,0.536,1.193,1.194v9.861C13.713,15.589,13.178,16.125,12.52,16.125z"/>
	<path fill="#FFFFFF" d="M12.52,4.125c0.521,0,0.943,0.423,0.943,0.944v9.861c0,0.521-0.423,0.944-0.943,0.944
		c-0.522,0-0.945-0.423-0.945-0.943V5.069C11.574,4.548,11.997,4.125,12.52,4.125 M12.52,3.625c-0.797,0-1.445,0.648-1.445,1.444
		v9.862c0,0.796,0.648,1.443,1.445,1.443c0.796,0,1.443-0.647,1.443-1.444V5.069C13.963,4.273,13.315,3.625,12.52,3.625L12.52,3.625
		z"/>
</g>
<g>
	<path fill="#BD2877" d="M17.557,16.125c-0.659,0-1.195-0.535-1.195-1.193V5.069c0-0.659,0.536-1.194,1.195-1.194
		c0.658,0,1.193,0.536,1.193,1.194v9.861C18.75,15.589,18.215,16.125,17.557,16.125z"/>
	<path fill="#FFFFFF" d="M17.557,4.125c0.521,0,0.943,0.423,0.943,0.944v9.861c0,0.521-0.423,0.944-0.943,0.944
		c-0.522,0-0.945-0.423-0.945-0.943V5.069C16.611,4.548,17.034,4.125,17.557,4.125 M17.557,3.625c-0.797,0-1.445,0.648-1.445,1.444
		v9.862c0,0.796,0.648,1.443,1.445,1.443c0.796,0,1.443-0.647,1.443-1.444V5.069C19,4.273,18.353,3.625,17.557,3.625L17.557,3.625z"
		/>
</g>
<path fill="#BD2877" d="M2.444,15.875c-0.521,0-0.944-0.423-0.944-0.943V5.069c0-0.521,0.423-0.944,0.944-0.944
	s0.944,0.423,0.944,0.944v9.861C3.389,15.452,2.966,15.875,2.444,15.875z"/>
<path fill="#BD2877" d="M7.481,15.875c-0.521,0-0.944-0.423-0.944-0.943V5.069c0-0.521,0.423-0.944,0.944-0.944
	s0.944,0.423,0.944,0.944v9.861C8.426,15.452,8.003,15.875,7.481,15.875z"/>
<path fill="#BD2877" d="M12.52,15.875c-0.522,0-0.945-0.423-0.945-0.943V5.069c0-0.521,0.423-0.944,0.945-0.944
	c0.521,0,0.943,0.423,0.943,0.944v9.861C13.463,15.452,13.04,15.875,12.52,15.875z"/>
<path fill="#BD2877" d="M17.557,15.875c-0.522,0-0.945-0.423-0.945-0.943V5.069c0-0.521,0.423-0.944,0.945-0.944
	c0.521,0,0.943,0.423,0.943,0.944v9.861C18.5,15.452,18.077,15.875,17.557,15.875z"/>
</svg>
