<?xml version="1.0" encoding="utf-8"?>
<svg version="1.1" xmlns="http://www.w3.org/2000/svg" xmlns:xlink="http://www.w3.org/1999/xlink" width="20px" height="20px">
<g>
	<path fill="#DE7233" d="M3.625,17.75c-0.758,0-1.375-0.617-1.375-1.375V3.625c0-0.758,0.617-1.375,1.375-1.375h12.751
		c0.758,0,1.374,0.617,1.374,1.375v12.751c0,0.758-0.617,1.374-1.375,1.374H3.625z M15.001,15.001V4.999H4.999v10.002H15.001z"/>
	<path fill="#FFFFFF" d="M16.376,2.5c0.62,0,1.124,0.504,1.124,1.125v12.751c0,0.62-0.504,1.124-1.125,1.124H3.625
		c-0.621,0-1.125-0.504-1.125-1.125V3.625C2.5,3.004,3.004,2.5,3.625,2.5H16.376 M4.749,15.251h10.502V4.749H4.749V15.251 M16.376,2
		H3.625C2.729,2,2,2.729,2,3.625v12.75C2,17.271,2.729,18,3.625,18h12.75C17.271,18,18,17.271,18,16.376V3.625
		C18,2.729,17.271,2,16.376,2L16.376,2z M5.249,5.249h9.502v9.502H5.249V5.249L5.249,5.249z"/>
</g>
<path fill="#DE7233" d="M16.375,17.5H3.625c-0.621,0-1.125-0.504-1.125-1.125V3.625c0-0.621,0.504-1.125,1.125-1.125h12.751
	c0.619,0,1.123,0.504,1.123,1.125v12.751C17.5,16.996,16.996,17.5,16.375,17.5L16.375,17.5z M4.75,15.251h10.502V4.749H4.75V15.251z
	"/>
</svg>
