<?xml version="1.0" encoding="utf-8"?>
<svg version="1.1" xmlns="http://www.w3.org/2000/svg" xmlns:xlink="http://www.w3.org/1999/xlink" width="25px" height="25px">
<g>
	<path fill="#FFFFFF" d="M12.5,1.415l10.799,10.799l-10.8,10.8L1.7,12.214L12.5,1.415 M12.5,0l-0.707,0.707l-10.8,10.8l-0.707,0.707
		l0.707,0.708l10.799,10.798l0.707,0.707l0.707-0.707l10.801-10.8l0.707-0.707l-0.707-0.707l-10.8-10.799L12.5,0L12.5,0z"/>
</g>
<g transform="translate(-2.6726567,-2.6732003)">
	
		<rect x="7.536" y="7.252" transform="matrix(0.7071 -0.7071 0.7071 0.7071 -6.0834 15.089)" fill="#693380" fill-opacity="0.2" stroke="#693380" width="15.273" height="15.272"/>
</g>
<path fill="#693380" d="M7.325,17.924c-1.023,0-1.855-0.801-1.855-1.801s0.832-1.9,1.855-1.9c1.021,0,1.854,0.9,1.854,1.9
	S8.348,17.924,7.325,17.924z M7.325,15.424c-0.391,0-0.708,0.299-0.708,0.699s0.317,0.701,0.708,0.701
	c0.39,0,0.708-0.301,0.708-0.701S7.716,15.424,7.325,15.424z"/>
<path fill="#693380" d="M11.844,15.123c0-2.5,1.993-4.5,4.443-4.5c1.051,0,2.005,0.4,2.766,1V5.891h-6.157v0.777l-1.555,4.255H5.945
	c0,0-0.274,0-0.454,0.2c-0.229,0.2-0.219,0.4-0.219,0.4v2.809c0.52-0.508,1.246-0.908,2.053-0.908c1.476,0,2.68,1.199,2.825,2.6
	h1.794C11.88,15.723,11.844,15.424,11.844,15.123L11.844,15.123z M13.553,6.624h4.098l-0.271,3.5h-4.927L13.553,6.624L13.553,6.624z
	"/>
<path fill="#693380" d="M16.287,18.523c-1.896,0-3.443-1.5-3.443-3.398c0-1.9,1.545-3.5,3.443-3.5s3.441,1.6,3.441,3.5
	C19.729,17.023,18.186,18.523,16.287,18.523z M16.287,13.723c-0.781,0-1.417,0.602-1.417,1.4s0.636,1.4,1.417,1.4
	s1.417-0.602,1.417-1.4S17.068,13.723,16.287,13.723z"/>
</svg>
