<?xml version="1.0" encoding="utf-8"?>
<svg version="1.1" xmlns="http://www.w3.org/2000/svg" xmlns:xlink="http://www.w3.org/1999/xlink" width="20px" height="30px">
<g>
	
		<rect x="14.313" y="18.274" transform="matrix(-0.8475 0.5308 -0.5308 -0.8475 40.6775 35.1176)" fill="#DE7233" width="1.961" height="10.257"/>
	<path fill="#FFFFFF" d="M13.326,18.879L18.5,27.15l-1.238,0.774l-5.174-8.271L13.326,18.879 M13.484,18.189l-0.424,0.266
		l-1.238,0.775l-0.423,0.266l0.265,0.424l5.174,8.271l0.265,0.424l0.424-0.266l1.238-0.774l0.425-0.265l-0.266-0.425l-5.174-8.271
		L13.484,18.189L13.484,18.189z"/>
</g>
<g>
	
		<rect x="-0.418" y="22.326" transform="matrix(-0.5311 0.8473 -0.8473 -0.5311 26.9593 31.6924)" fill="#DE7233" width="10.256" height="1.961"/>
	<path fill="#FFFFFF" d="M6.682,18.785l1.238,0.775l-5.182,8.267L1.5,27.052L6.682,18.785 M6.523,18.096L6.258,18.52l-5.181,8.267
		L0.812,27.21l0.423,0.266l1.237,0.775l0.424,0.266l0.266-0.424l5.182-8.267l0.266-0.424l-0.424-0.266l-1.238-0.775L6.523,18.096
		L6.523,18.096z"/>
</g>
<g>
	<path fill="#DE7233" d="M9.961,18.389c-1.85,0-3.355-1.505-3.355-3.355c0-1.85,1.505-3.354,3.355-3.354
		c1.851,0,3.355,1.505,3.355,3.354C13.316,16.884,11.812,18.389,9.961,18.389z"/>
	<path fill="#FFFFFF" d="M9.961,11.929c1.715,0,3.105,1.39,3.105,3.104c0,1.715-1.391,3.105-3.105,3.105s-3.105-1.391-3.105-3.105
		C6.856,13.319,8.246,11.929,9.961,11.929 M9.961,11.429c-1.988,0-3.605,1.617-3.605,3.604c0,1.988,1.617,3.605,3.605,3.605
		c1.988,0,3.605-1.617,3.605-3.605C13.566,13.046,11.949,11.429,9.961,11.429L9.961,11.429z"/>
</g>
<g>
	<rect x="8.979" y="19.721" fill="#DE7233" width="1.96" height="10.049"/>
	<path fill="#FFFFFF" d="M10.689,19.971v9.549h-1.46v-9.549H10.689 M11.189,19.471h-0.5h-1.46h-0.5v0.5v9.549v0.5h0.5h1.46h0.5v-0.5
		v-9.549V19.471L11.189,19.471z"/>
</g>
<rect x="10.385" y="22.686" transform="matrix(0.5303 0.8478 -0.8478 0.5303 27.0211 -1.9414)" fill="#DE7233" width="9.756" height="1.461"/>
<rect x="3.93" y="18.461" transform="matrix(0.8474 0.531 -0.531 0.8474 13.1047 1.088)" fill="#DE7233" width="1.46" height="9.755"/>
<circle fill="#DE7233" cx="9.909" cy="15.033" r="3.105"/>
<rect x="9.18" y="20.004" fill="#DE7233" width="1.46" height="9.549"/>
</svg>
