<?xml version="1.0" encoding="utf-8"?>
<svg version="1.1" id="Layer_1" xmlns="http://www.w3.org/2000/svg" xmlns:xlink="http://www.w3.org/1999/xlink" width="32px" height="33px">
<g>
	<path fill="#BD2877" d="M19.682,10.391c-0.074,0-0.147-0.01-0.221-0.03c-0.212-0.059-0.389-0.197-0.497-0.388
		c-0.106-0.191-0.135-0.413-0.075-0.625l1.262-4.555c0.098-0.355,0.424-0.603,0.791-0.603c0.074,0,0.147,0.01,0.22,0.03
		c0.212,0.058,0.389,0.196,0.497,0.388c0.107,0.191,0.136,0.413,0.076,0.625l-1.26,4.555C20.376,10.143,20.05,10.391,19.682,10.391z
		"/>
	<path fill="#FFFFFF" d="M20.939,4.438c0.052,0,0.104,0.007,0.153,0.021c0.306,0.084,0.484,0.399,0.399,0.705L20.23,9.721
		c-0.069,0.253-0.299,0.42-0.551,0.42c-0.052,0-0.103-0.007-0.154-0.021c-0.305-0.084-0.482-0.4-0.397-0.705l1.263-4.556
		C20.461,4.605,20.689,4.438,20.939,4.438 M20.939,3.938L20.939,3.938c-0.479,0-0.903,0.324-1.031,0.787l-1.262,4.555
		c-0.076,0.275-0.041,0.564,0.1,0.814c0.143,0.25,0.371,0.429,0.646,0.506c0.094,0.026,0.19,0.039,0.287,0.039
		c0.481,0,0.906-0.324,1.034-0.787l1.261-4.555c0.076-0.275,0.041-0.565-0.101-0.814s-0.372-0.429-0.647-0.505
		C21.134,3.953,21.037,3.938,20.939,3.938L20.939,3.938z"/>
</g>
<g>
	<path fill="#BD2877" d="M26.243,9.351c-0.277,0-0.534-0.138-0.687-0.369L22.95,5.039c-0.25-0.377-0.146-0.889,0.231-1.14
		c0.137-0.089,0.293-0.136,0.453-0.136c0.277,0,0.534,0.138,0.688,0.369l2.607,3.943c0.248,0.379,0.145,0.891-0.234,1.14
		C26.563,9.304,26.404,9.351,26.243,9.351L26.243,9.351z"/>
	<path fill="#FFFFFF" d="M23.637,4.013c0.186,0,0.367,0.09,0.477,0.257l2.607,3.943c0.174,0.264,0.104,0.619-0.162,0.793
		c-0.098,0.064-0.207,0.095-0.314,0.095c-0.186,0-0.368-0.09-0.479-0.257L23.16,4.9c-0.176-0.264-0.104-0.619,0.16-0.793
		C23.418,4.042,23.527,4.013,23.637,4.013 M23.637,3.513c-0.211,0-0.414,0.061-0.592,0.177c-0.238,0.159-0.402,0.401-0.46,0.681
		c-0.058,0.281-0.001,0.567,0.157,0.806l2.605,3.943c0.198,0.301,0.533,0.481,0.896,0.481c0.211,0,0.416-0.062,0.592-0.179
		c0.492-0.324,0.629-0.99,0.304-1.485l-2.609-3.943C24.332,3.692,23.997,3.513,23.637,3.513L23.637,3.513z"/>
</g>
<g>
	<path fill="#BD2877" d="M12.939,18.748v-5.041c-0.001-2.556-0.002-5.112,0.006-7.669c0.083-2.119,1.293-4.02,3.084-4.851
		c0.839-0.462,1.786-0.518,2.7-0.572l0.291-0.018c0.557-0.043,1.114-0.09,1.672-0.137c0.912-0.076,1.822-0.153,2.733-0.213
		c0.83,0.045,1.505,0.784,1.474,1.58c0.019,0.37-0.117,0.727-0.391,1.012c-0.355,0.373-0.943,0.604-1.533,0.604
		c-0.483,0.076-0.961,0.137-1.438,0.198c-0.796,0.102-1.619,0.208-2.4,0.404c-0.955,0.273-1.3,1.323-1.212,2.182
		c0.009,2.576,0.007,5.127,0.007,7.678v4.842H12.939L12.939,18.748z"/>
	<path fill="#FFFFFF" d="M23.441,0.498c0.662,0.038,1.231,0.656,1.207,1.321c0.039,0.898-0.885,1.376-1.674,1.376
		c-0.019,0-0.035,0-0.054,0c-1.278,0.216-2.589,0.293-3.848,0.609c-1.062,0.304-1.505,1.431-1.399,2.45
		c0.012,4.08,0.003,8.162,0.006,12.245h-4.491c0.004-4.153-0.007-8.307,0.006-12.458c0.075-1.918,1.171-3.804,2.94-4.625
		c0.893-0.49,1.914-0.503,2.901-0.567C20.505,0.733,21.973,0.594,23.441,0.498 M23.439-0.003l-0.031,0.001
		c-0.912,0.06-1.825,0.137-2.738,0.213c-0.557,0.047-1.113,0.094-1.672,0.137l-0.283,0.017c-0.941,0.056-1.917,0.114-2.821,0.61
		c-1.845,0.856-3.112,2.842-3.199,5.044c-0.008,2.573-0.007,5.129-0.006,7.685c0.001,1.597,0.001,3.195,0,4.792v0.5h0.5h4.491h0.5
		v-0.498v-4.591c0.002-2.552,0.002-5.104-0.005-7.656c-0.079-0.808,0.212-1.731,1.037-1.968c0.752-0.188,1.567-0.292,2.354-0.394
		c0.467-0.06,0.933-0.119,1.394-0.196h0.015c0.655,0,1.313-0.261,1.715-0.681c0.32-0.336,0.479-0.757,0.459-1.217
		c0.035-0.885-0.748-1.745-1.678-1.797L23.439-0.003L23.439-0.003z"/>
</g>
<path fill="#BD2877" d="M23.116,10.022c-0.312,0.049-0.604-0.164-0.655-0.476l-0.738-4.669c-0.051-0.312,0.162-0.605,0.477-0.655
	c0.313-0.05,0.604,0.164,0.654,0.476l0.738,4.669C23.643,9.68,23.43,9.973,23.116,10.022z"/>
<path fill="#BD2877" d="M19.527,10.12c-0.305-0.084-0.483-0.4-0.398-0.705l1.262-4.556c0.084-0.305,0.398-0.483,0.703-0.399
	s0.484,0.399,0.399,0.705l-1.261,4.556C20.148,10.024,19.833,10.204,19.527,10.12z"/>
<path fill="#BD2877" d="M26.559,9.005c0.266-0.174,0.336-0.529,0.162-0.793L24.113,4.27c-0.174-0.264-0.527-0.336-0.793-0.162
	c-0.264,0.175-0.336,0.53-0.16,0.793l2.605,3.943C25.939,9.107,26.295,9.181,26.559,9.005z"/>
<path fill="#BD2877" d="M24.648,1.817c0.041,0.918-0.926,1.397-1.728,1.375c-1.278,0.216-2.589,0.293-3.848,0.609
	c-1.062,0.304-1.505,1.431-1.399,2.45c0.012,4.082,0.003,8.164,0.006,12.247h-4.491c0.004-4.153-0.007-8.307,0.006-12.458
	c0.075-1.918,1.171-3.804,2.94-4.625c0.893-0.49,1.914-0.503,2.901-0.567c1.469-0.113,2.937-0.253,4.405-0.35
	C24.104,0.535,24.674,1.154,24.648,1.817L24.648,1.817z"/>
<g>
	<path fill="#BD2877" d="M23.025,10.28c-0.404,0-0.746-0.292-0.813-0.693l-0.738-4.67c-0.035-0.216,0.018-0.433,0.146-0.611
		c0.129-0.179,0.32-0.296,0.538-0.33l0.13-0.01c0.404,0,0.746,0.292,0.813,0.693l0.737,4.67c0.035,0.216-0.017,0.433-0.146,0.611
		c-0.129,0.178-0.319,0.296-0.539,0.331L23.025,10.28z"/>
	<path fill="#FFFFFF" d="M22.289,4.215c0.275,0,0.52,0.201,0.564,0.483l0.737,4.669c0.052,0.313-0.161,0.605-0.476,0.655
		c-0.03,0.005-0.061,0.007-0.09,0.007c-0.276,0-0.521-0.201-0.565-0.483l-0.737-4.669c-0.051-0.312,0.162-0.605,0.477-0.655
		C22.229,4.218,22.259,4.215,22.289,4.215 M22.289,3.715c-0.057,0-0.113,0.004-0.17,0.014c-0.283,0.044-0.532,0.197-0.701,0.43
		c-0.168,0.232-0.234,0.516-0.188,0.799l0.736,4.667c0.086,0.525,0.531,0.905,1.061,0.905c0.056,0,0.111-0.004,0.168-0.014
		c0.283-0.045,0.533-0.198,0.701-0.431c0.168-0.232,0.234-0.516,0.188-0.798l-0.737-4.667C23.262,4.096,22.816,3.715,22.289,3.715
		L22.289,3.715z"/>
</g>
</svg>
