<?xml version="1.0" encoding="utf-8"?>
<svg version="1.1" xmlns="http://www.w3.org/2000/svg" xmlns:xlink="http://www.w3.org/1999/xlink" width="25px" height="25px">
<g>
	<path fill="#FFFFFF" d="M12.5,1.7l10.798,10.799l-10.799,10.8L1.7,12.5L12.5,1.7 M12.5,0.286l-0.707,0.707l-10.8,10.8L0.286,12.5
		l0.707,0.707l10.799,10.799l0.707,0.707l0.708-0.707l10.8-10.801l0.707-0.706l-0.707-0.707L13.209,0.993L12.5,0.286L12.5,0.286z"/>
</g>
<rect x="4.863" y="4.865" transform="matrix(0.7071 -0.7071 0.7071 0.7071 -5.1785 12.499)" fill="#693380" fill-opacity="0.2" stroke="#693380" width="15.272" height="15.271"/>
<path fill="#693380" d="M7.471,8.801C7.399,8.85,7.364,8.941,7.39,9.027c0.027,0.084,0.104,0.142,0.193,0.142h9.834
	c0.086,0,0.166-0.058,0.191-0.142c0.025-0.085-0.01-0.176-0.082-0.226c0,0-4.068-2.668-4.892-3.206c-0.087-0.057-0.2-0.057-0.288,0
	L7.471,8.801L7.471,8.801z"/>
<g transform="translate(-2.6737475,-3.9530865)">
	<path fill="#693380" d="M11.22,14.105c-0.093,0-0.169,0.057-0.169,0.127v4.116c0,0.072,0.076,0.129,0.169,0.129h1.046
		c0.092,0,0.167-0.057,0.167-0.129v-4.116c0-0.07-0.076-0.127-0.167-0.127H11.22z"/>
	<path fill="#693380" d="M14.649,14.105c-0.092,0-0.167,0.057-0.167,0.127v4.116c0,0.072,0.075,0.129,0.167,0.129h1.048
		c0.092,0,0.168-0.057,0.168-0.129v-4.116c0-0.07-0.074-0.127-0.168-0.127H14.649z"/>
	<path fill="#693380" d="M18.081,14.105c-0.092,0-0.168,0.057-0.168,0.127v4.116c0,0.072,0.076,0.129,0.168,0.129h1.045
		c0.094,0,0.17-0.057,0.17-0.129v-4.116c0-0.07-0.076-0.127-0.17-0.127H18.081z"/>
</g>
<path fill="#693380" d="M17.597,15.508H7.4c-0.111,0-0.201,0.078-0.201,0.176v1.029c0,0.098,0.09,0.178,0.201,0.178h10.197
	c0.111,0,0.201-0.08,0.201-0.178v-1.029C17.798,15.586,17.708,15.508,17.597,15.508L17.597,15.508z"/>
</svg>
