<?xml version="1.0" encoding="utf-8"?>
<svg version="1.1" xmlns:svg="http://www.w3.org/2000/svg" xmlns="http://www.w3.org/2000/svg" xmlns:xlink="http://www.w3.org/1999/xlink" width="20px" height="37px">
<g id="path12_1_">
	<path fill="#BD2877" d="M5.772,20.75c-0.086,0-0.173-0.01-0.257-0.027c-0.63-0.144-1.028-0.771-0.887-1.402l0.574-2.551
		c0.004-0.061,0.025-0.15,0.055-0.237L8.708,1.165c0.12-0.534,0.586-0.911,1.134-0.915c0.555,0,1.021,0.369,1.148,0.898
		l4.377,18.155c0.15,0.629-0.236,1.264-0.864,1.415c-0.09,0.021-0.183,0.032-0.276,0.032c-0.543,0-1.012-0.369-1.139-0.896
		l-0.425-1.765H7.308l-0.393,1.746C6.794,20.373,6.324,20.75,5.772,20.75z M12.1,15.745l-0.719-2.979H8.504l-0.669,2.979H12.1z
		 M10.814,10.422L9.892,6.589l-0.861,3.833H10.814z"/>
	<path fill="#FFFFFF" d="M9.855,0.5c0.425,0,0.793,0.292,0.893,0.706l4.377,18.155c0.119,0.496-0.186,0.994-0.68,1.113
		c-0.073,0.018-0.146,0.025-0.217,0.025c-0.416,0-0.795-0.283-0.896-0.706l-0.471-1.956H7.107L6.67,19.779
		C6.575,20.209,6.194,20.5,5.772,20.5c-0.067,0-0.135-0.007-0.203-0.021c-0.497-0.112-0.809-0.604-0.697-1.104l0.574-2.552
		c0.007-0.072,0.023-0.142,0.047-0.208L8.953,1.22C9.046,0.802,9.417,0.503,9.845,0.5C9.848,0.5,9.852,0.5,9.855,0.5 M8.718,10.672
		h2.415l-1.25-5.185L8.718,10.672 M7.522,15.995h4.894l-0.838-3.479H8.304L7.522,15.995 M9.855,0H9.853H9.839
		C9.176,0.005,8.61,0.462,8.465,1.11L5.011,16.479c-0.028,0.085-0.047,0.172-0.059,0.26l-0.568,2.526
		c-0.172,0.764,0.311,1.525,1.075,1.698C5.563,20.988,5.667,21,5.772,21c0.67,0,1.241-0.457,1.387-1.111l0.349-1.55h4.96
		l0.378,1.573C13,20.552,13.568,21,14.229,21c0.112,0,0.227-0.014,0.334-0.039c0.763-0.184,1.231-0.954,1.049-1.717L11.234,1.089
		C11.081,0.448,10.514,0,9.855,0L9.855,0z M9.343,10.172L9.9,7.692l0.598,2.48H9.343L9.343,10.172z M8.704,13.016h2.481l0.597,2.479
		H8.147L8.704,13.016L8.704,13.016z"/>
</g>
<path id="path12" fill="#BD2877" d="M15.125,19.361L10.748,1.206c-0.1-0.417-0.474-0.711-0.903-0.706
	C9.417,0.503,9.047,0.802,8.953,1.22l-3.46,15.395c-0.023,0.066-0.04,0.136-0.047,0.208l-0.574,2.552
	c-0.112,0.498,0.201,0.989,0.697,1.104c0.497,0.11,0.99-0.201,1.102-0.699l0.437-1.94h5.753l0.472,1.955
	c0.103,0.423,0.479,0.706,0.896,0.706c0.071,0,0.146-0.008,0.219-0.025C14.939,20.354,15.244,19.857,15.125,19.361z M9.883,5.486
	l1.25,5.185H8.718L9.883,5.486z M7.522,15.994l0.782-3.479h3.274l0.838,3.479H7.522z"/>
</svg>
