<?xml version="1.0" encoding="utf-8"?>
<svg version="1.1" xmlns="http://www.w3.org/2000/svg" xmlns:xlink="http://www.w3.org/1999/xlink" width="20px" height="20px">
<g>
	<path fill="#DE7233" d="M4.319,18.75l-0.688-3.964h-2.94l2.805-5.21L3.299,8.472c-0.262,0.724-0.628,1.73-0.865,2.357
		c-0.136,0.368-0.43,0.598-0.766,0.598c-0.226,0-0.44-0.109-0.571-0.292c-0.152-0.212-0.18-0.49-0.08-0.784
		C1.35,9.414,1.608,8.671,1.91,7.802l0.375-1.078c0.491-1.387,1.047-1.658,1.844-1.658h1.727c0.796,0,1.354,0.271,1.847,1.657
		L8.178,8.09c0.259,0.75,0.494,1.429,0.789,2.258c0.103,0.296,0.075,0.575-0.076,0.787c-0.13,0.184-0.343,0.292-0.569,0.292
		c-0.334,0.001-0.629-0.229-0.77-0.598c-0.237-0.626-0.603-1.63-0.865-2.354L6.492,9.576l2.805,5.21H6.356L5.659,18.75H4.319z"/>
	<path fill="#FFFFFF" d="M5.856,5.315c0.689,0,1.151,0.197,1.612,1.491c0.489,1.403,0.804,2.332,1.263,3.625
		c0.156,0.454-0.109,0.746-0.41,0.746c-0.202,0-0.42-0.132-0.536-0.437C7.38,9.674,6.604,7.508,6.604,7.508L6.23,9.618l2.648,4.918
		H6.146L5.449,18.5H4.53l-0.688-3.964H1.109l2.648-4.918l-0.376-2.11c0,0-0.778,2.166-1.181,3.232
		c-0.113,0.305-0.33,0.437-0.532,0.437c-0.301,0-0.569-0.292-0.414-0.746c0.459-1.293,0.778-2.222,1.268-3.625
		c0.458-1.293,0.922-1.491,1.608-1.491H5.856 M5.856,4.815H4.129c-1.045,0-1.609,0.494-2.079,1.824L1.674,7.721
		c-0.302,0.868-0.56,1.61-0.891,2.543c-0.127,0.373-0.086,0.741,0.111,1.017c0.178,0.248,0.467,0.396,0.774,0.396
		c0.172,0,0.335-0.044,0.48-0.125l-1.479,2.747l-0.396,0.737h0.837h2.312l0.616,3.55L4.109,19H4.53h0.919h0.42l0.073-0.413
		l0.624-3.551h2.313h0.837l-0.396-0.737l-1.48-2.748c0.146,0.082,0.31,0.126,0.482,0.126c0.307,0,0.596-0.147,0.773-0.396
		c0.197-0.276,0.237-0.645,0.11-1.012c-0.296-0.833-0.53-1.511-0.79-2.261L7.94,6.642C7.466,5.31,6.901,4.815,5.856,4.815
		L5.856,4.815z"/>
</g>
<g>
	<path fill="#DE7233" d="M16.051,18.75l-0.943-4.758l-0.946,4.758h-2.204l1.666-8.956l-0.217-1.167
		c-0.261,0.657-0.623,1.578-0.855,2.201c-0.142,0.37-0.437,0.599-0.771,0.599c-0.227,0-0.439-0.108-0.57-0.291
		c-0.151-0.213-0.18-0.491-0.079-0.785c0.317-0.893,0.566-1.609,0.851-2.426l0.418-1.201c0.489-1.387,1.047-1.658,1.844-1.658h1.729
		c0.794,0,1.35,0.271,1.846,1.656l0.482,1.391c0.257,0.741,0.489,1.415,0.78,2.235c0.103,0.296,0.075,0.575-0.076,0.787
		c-0.131,0.184-0.344,0.292-0.569,0.292c-0.335,0.001-0.63-0.229-0.771-0.598c-0.233-0.618-0.593-1.531-0.854-2.188l-0.22,1.242
		l1.694,8.867H16.051z"/>
	<path fill="#FFFFFF" d="M15.971,5.315c0.688,0,1.147,0.197,1.61,1.491c0.489,1.403,0.804,2.332,1.263,3.625
		c0.156,0.454-0.109,0.746-0.41,0.746c-0.203,0-0.421-0.132-0.537-0.437c-0.402-1.066-1.18-3.009-1.18-3.009L16.344,9.84l1.639,8.66
		h-1.727l-1.148-5.792L13.956,18.5h-1.698l1.611-8.66l-0.375-2.108c0,0-0.778,1.94-1.178,3.009
		c-0.116,0.305-0.334,0.437-0.537,0.437c-0.301,0-0.567-0.292-0.413-0.746c0.46-1.293,0.778-2.222,1.269-3.625
		c0.456-1.293,0.918-1.491,1.607-1.491H15.971 M15.971,4.815h-1.729c-1.047,0-1.61,0.495-2.079,1.824l-0.419,1.203
		c-0.284,0.817-0.533,1.533-0.849,2.421c-0.128,0.373-0.087,0.741,0.11,1.017c0.178,0.249,0.467,0.396,0.773,0.396
		c0.441,0,0.826-0.29,1.004-0.759c0.144-0.384,0.338-0.884,0.527-1.366l0.051,0.286l-1.595,8.57L11.656,19h0.602h1.698h0.41
		l0.08-0.402l0.66-3.322l0.659,3.322L15.846,19h0.41h1.727h0.604l-0.112-0.593l-1.622-8.57l0.05-0.281
		c0.188,0.479,0.383,0.978,0.527,1.361c0.179,0.47,0.563,0.76,1.005,0.76c0.307,0,0.596-0.148,0.772-0.396
		c0.197-0.276,0.237-0.645,0.11-1.012c-0.292-0.824-0.525-1.497-0.781-2.237l-0.482-1.39C17.576,5.309,17.013,4.815,15.971,4.815
		L15.971,4.815z"/>
</g>
<g>
	<circle fill="#DE7233" cx="15.074" cy="3.271" r="2.021"/>
	<path fill="#FFFFFF" d="M15.074,1.5c0.979,0,1.771,0.793,1.771,1.771s-0.793,1.771-1.771,1.771s-1.771-0.793-1.771-1.771
		S14.096,1.5,15.074,1.5 M15.074,1c-1.253,0-2.271,1.019-2.271,2.271s1.019,2.271,2.271,2.271s2.271-1.019,2.271-2.271
		S16.327,1,15.074,1L15.074,1z"/>
</g>
<g>
	<circle fill="#DE7233" cx="4.925" cy="3.271" r="2.021"/>
	<path fill="#FFFFFF" d="M4.925,1.5c0.978,0,1.771,0.793,1.771,1.771S5.903,5.042,4.925,5.042S3.154,4.249,3.154,3.271
		S3.947,1.5,4.925,1.5 M4.925,1C3.673,1,2.654,2.019,2.654,3.271s1.019,2.271,2.271,2.271s2.271-1.019,2.271-2.271S6.178,1,4.925,1
		L4.925,1z"/>
</g>
<path fill="#DE7233" d="M4.531,18.5l-0.688-3.964H1.11l2.648-4.918l-0.376-2.11c0,0-0.778,2.166-1.181,3.232
	c-0.28,0.758-1.205,0.449-0.946-0.309c0.459-1.293,0.778-2.222,1.268-3.625C2.98,5.513,3.445,5.315,4.13,5.315h1.727
	c0.689,0,1.151,0.197,1.612,1.491c0.489,1.403,0.804,2.332,1.263,3.625c0.262,0.758-0.658,1.067-0.946,0.309
	C7.381,9.674,6.605,7.508,6.605,7.508l-0.374,2.11l2.648,4.918H6.147L5.45,18.5H4.531L4.531,18.5L4.531,18.5z"/>
<path fill="#DE7233" d="M13.957,18.5h-1.698l1.611-8.66l-0.375-2.108c0,0-0.778,1.94-1.178,3.009
	c-0.289,0.758-1.209,0.449-0.95-0.309c0.46-1.293,0.778-2.222,1.269-3.625c0.456-1.293,0.918-1.491,1.607-1.491h1.729
	c0.688,0,1.147,0.197,1.61,1.491c0.489,1.403,0.804,2.332,1.263,3.625c0.262,0.758-0.658,1.067-0.947,0.309
	c-0.402-1.066-1.18-3.009-1.18-3.009L16.345,9.84l1.639,8.66h-1.727l-1.148-5.792L13.957,18.5z"/>
<circle fill="#DE7233" cx="15.075" cy="3.271" r="1.771"/>
<circle fill="#DE7233" cx="4.926" cy="3.271" r="1.771"/>
</svg>
