<?xml version="1.0" encoding="utf-8"?>
<svg version="1.1" xmlns="http://www.w3.org/2000/svg" xmlns:xlink="http://www.w3.org/1999/xlink" width="21px" height="20px">
<g>
	<path fill="#DE7233" d="M18.146,12.521V7.659c-0.17-0.233-1.248-1.355-6.344-1.547v6.41H9.199V6.102
		c-5.689,0.15-6.355,1.495-6.362,1.509l0.024,4.911H0.255V7.65C0.23,7.384,0.242,6.63,0.896,5.84
		c1.294-1.567,4.442-2.361,9.357-2.361c5.044,0,8.324,0.79,9.746,2.349c0.775,0.851,0.768,1.654,0.746,1.879l0.004,4.814H18.146
		L18.146,12.521z"/>
	<path fill="#FFFFFF" d="M10.252,3.729c4.972,0,8.189,0.763,9.562,2.267c0.705,0.775,0.699,1.487,0.682,1.688l0.004,4.587h-2.104
		V7.587c-0.008,0-0.613-1.543-6.842-1.734v6.418H9.449V5.846C3.167,5.969,2.606,7.507,2.604,7.522l0.007,4.75H0.505V7.65
		C0.466,7.215,0.599,6.591,1.088,6C2.333,4.493,5.417,3.729,10.252,3.729 M10.252,3.229c-5.063,0-8.187,0.802-9.55,2.453
		c-0.713,0.86-0.724,1.694-0.695,2.013l-0.002,4.577v0.5h0.5h2.104h0.5v-0.5L3.104,7.668c0.214-0.236,1.332-1.157,5.845-1.309v5.913
		v0.5h0.5h2.104h0.5v-0.5v-5.9c4.453,0.2,5.602,1.111,5.844,1.375v4.525v0.5h0.5h2.102h0.5v-0.5l-0.004-4.588
		c0.021-0.205,0.031-1.098-0.811-2.024C18.711,4.046,15.369,3.229,10.252,3.229L10.252,3.229z"/>
</g>
<path fill="#DE7233" d="M20.498,12.271l-0.004-4.587c0.02-0.201,0.025-0.913-0.68-1.688c-1.373-1.504-4.59-2.267-9.563-2.267
	c-4.836,0-7.92,0.765-9.164,2.271c-0.49,0.591-0.622,1.215-0.583,1.65v4.622h2.104L2.604,7.523C2.606,7.507,3.167,5.97,9.449,5.846
	v6.425h2.104V5.853c6.229,0.191,6.836,1.734,6.844,1.734v4.685H20.498L20.498,12.271z"/>
</svg>
