<?xml version="1.0" encoding="utf-8"?>
<svg version="1.1" xmlns="http://www.w3.org/2000/svg" xmlns:xlink="http://www.w3.org/1999/xlink" width="25px" height="25px">
<g>
	<path fill="#FFFFFF" d="M12.5,1.414L23.3,12.213l-10.8,10.8l-10.8-10.798L12.5,1.414 M12.5,0l-0.707,0.707l-10.8,10.8l-0.707,0.708
		l0.707,0.708l10.799,10.797l0.707,0.707l0.707-0.707l10.801-10.8l0.707-0.707l-0.707-0.707L13.208,0.707L12.5,0L12.5,0z"/>
</g>
<rect x="4.862" y="4.577" transform="matrix(0.7071 -0.7071 0.7071 0.7071 -4.9747 12.4149)" fill="#693380" fill-opacity="0.2" stroke="#693380" width="15.274" height="15.272"/>
<g>
	<g>
		<defs>
			
				<rect id="SVGID_1_" x="4.863" y="4.578" transform="matrix(0.7071 -0.7071 0.7071 0.7071 -4.9752 12.4161)" width="15.275" height="15.272"/>
		</defs>
		<clipPath id="SVGID_2_">
			<use xlink:href="#SVGID_1_"  overflow="visible"/>
		</clipPath>
		<path clip-path="url(#SVGID_2_)" fill="#693380" d="M11.647,8.585C11.688,8.397,11.711,8.2,11.711,8
			c0-1.526-1.236-2.765-2.764-2.765C7.421,5.235,6.182,6.472,6.182,8c0,0.184,0.021,0.362,0.055,0.536
			c-0.634,0.345-1.069,1.008-1.069,1.779c0,1.123,0.911,2.032,2.033,2.032c0.488,0,0.931-0.176,1.281-0.463v1.854h0.93v-2.063
			c0.35,0.356,0.832,0.582,1.372,0.582c1.073,0,1.941-0.869,1.941-1.941C12.728,9.555,12.284,8.903,11.647,8.585z"/>
	</g>
</g>
<g>
	<g>
		<defs>
			
				<rect id="SVGID_3_" x="4.863" y="4.578" transform="matrix(0.7071 -0.7071 0.7071 0.7071 -4.9752 12.4161)" width="15.275" height="15.272"/>
		</defs>
		<clipPath id="SVGID_4_">
			<use xlink:href="#SVGID_3_"  overflow="visible"/>
		</clipPath>
		<path clip-path="url(#SVGID_4_)" fill="#693380" d="M18.753,14.039c0.041-0.189,0.064-0.385,0.064-0.586
			c0-1.525-1.236-2.765-2.767-2.765c-1.524,0-2.764,1.237-2.764,2.765c0,0.186,0.021,0.363,0.055,0.537
			c-0.633,0.346-1.067,1.008-1.067,1.777c0,1.123,0.91,2.033,2.033,2.033c0.485,0,0.932-0.176,1.278-0.463v1.854h0.931v-2.063
			c0.352,0.354,0.832,0.582,1.373,0.582c1.071,0,1.94-0.869,1.94-1.941C19.833,15.01,19.392,14.357,18.753,14.039z"/>
	</g>
</g>
</svg>
