<?xml version="1.0" encoding="utf-8"?>
<svg version="1.1" xmlns="http://www.w3.org/2000/svg" xmlns:xlink="http://www.w3.org/1999/xlink" width="20px" height="21px">
<g>
	<path fill="#DE7233" d="M14.898,12.684l-1.943-4.785H7.017L5.09,12.68H2.665l1.927-4.784H1.25v-2.02h4.162L6.87,2.267L4.235,2.268
		V0.25h11.533v2.019h-2.666l1.455,3.611h4.192v2.019H15.38l1.942,4.785H14.898z M11.965,5.878l-1.459-3.61H9.13l-1.46,3.61H11.965z"
		/>
	<path fill="#FFFFFF" d="M15.518,0.5v1.519h-2.785l1.656,4.111H18.5v1.519h-3.49l1.942,4.785h-1.886l-1.943-4.785H6.848L4.921,12.43
		H3.035l1.927-4.784H1.5v-1.52h4.081l1.661-4.11L4.485,2.018V0.5H15.518 M7.3,6.128h5.036l-1.661-4.11H8.961L7.3,6.128 M4.485,2.018
		L4.485,2.018L4.485,2.018 M16.018,0h-0.5H4.485h-0.5v0.5v1.518v0.5h0.5L6.5,2.516L5.243,5.625H1.5H1v0.5v1.52v0.5h0.5h2.722
		l-1.651,4.098L2.295,12.93h0.74h1.886h0.337l0.126-0.313l1.8-4.467h5.601l1.816,4.473l0.127,0.313h0.336h1.887h0.742l-0.279-0.688
		l-1.663-4.096H18.5H19v-0.5V6.13v-0.5h-0.5h-3.773l-1.254-3.111h2.045h0.5v-0.5V0.5V0L16.018,0z M9.299,2.518h1.039l1.258,3.11
		H8.041L9.299,2.518L9.299,2.518z"/>
</g>
<path fill="#DE7233" d="M7.3,6.128h5.036l-1.66-4.11H8.962L7.3,6.128z M4.486,2.018V0.5h11.032v1.519h-2.785l1.656,4.111H18.5v1.519
	h-3.49l1.943,4.785h-1.887l-1.943-4.785H6.848L4.922,12.43H3.036l1.927-4.785H1.5v-1.52h4.081l1.661-4.11L4.486,2.018L4.486,2.018z"
	/>
</svg>
