<?xml version="1.0" encoding="utf-8"?>
<svg version="1.1" xmlns="http://www.w3.org/2000/svg" xmlns:xlink="http://www.w3.org/1999/xlink" width="21px" height="21px">
<g transform="matrix(1.3981125,0,0,1.3981125,-9.8161475,-9.8168466)">
	<g>
		<path fill="#BD2877" d="M7.576,17.229c-0.099,0-0.179-0.08-0.179-0.179c0-0.062,0.032-0.182,0.085-0.214
			c4.919-3.035,7.563-4.704,7.858-4.959c0.034-0.029,0.075-0.044,0.117-0.044c0.049,0,0.098,0.02,0.134,0.06
			c1.062,1.197,1.6,2.584,1.6,4.122v0.919c0,0.177-0.116,0.295-0.288,0.295H7.576z"/>
		<path fill="#FFFFFF" d="M15.457,12.012c1.037,1.169,1.555,2.504,1.555,4.003v0.919c0,0.078-0.035,0.117-0.109,0.117H7.576v-0.063
			C12.523,13.935,15.15,12.277,15.457,12.012 M15.457,11.654c-0.084,0-0.166,0.029-0.235,0.087
			c-0.198,0.171-1.718,1.168-7.835,4.942c-0.105,0.066-0.17,0.18-0.17,0.305v0.062c0,0.198,0.16,0.358,0.358,0.358h9.327
			c0.271,0,0.468-0.2,0.468-0.474v-0.919c0-1.583-0.555-3.009-1.647-4.241C15.654,11.695,15.555,11.654,15.457,11.654L15.457,11.654
			z"/>
	</g>
	<g>
		<path fill="#BD2877" d="M19.163,21.459c-0.024,0-0.048-0.005-0.071-0.015c-0.063-0.027-0.105-0.089-0.108-0.158
			c-0.071-1.98-0.115-3.329-0.117-3.73l-0.039-0.092c-0.024-0.055-0.018-0.119,0.014-0.169c0.034-0.052,0.089-0.081,0.149-0.081
			c0.045,0,0.142,0.017,0.176,0.047l0.592,0.549c0.071-0.944,0.085-1.221,0.085-1.282c0-2.11-0.7-4.095-2.084-5.904
			c-0.041,0.173-0.095,0.476-0.166,1.007c-0.013,0.089-0.088,0.155-0.177,0.155c-0.098,0-0.232-0.08-0.232-0.179
			c-0.027-0.032-0.414-0.751-2.056-3.673c-0.015-0.027-0.023-0.057-0.023-0.088c0-0.057,0.027-0.141,0.072-0.175
			c0.038-0.029,0.087-0.063,0.133-0.063c0.008,0,0.017,0.001,0.025,0.004c3.177,0.955,4.039,1.185,4.203,1.209
			c0.088,0.013,0.152,0.088,0.152,0.177c0,0.078-0.05,0.212-0.126,0.235C19.158,9.36,18.785,9.5,18.455,9.65
			c1.664,2.108,2.506,4.343,2.506,6.647v0.585c0,0.58-0.043,1.049-0.131,1.431c0.514-0.029,0.827-0.044,0.942-0.044h0.109
			c0.071,0,0.136,0.042,0.163,0.108c0.029,0.064,0.015,0.14-0.032,0.193c-1.472,1.598-2.365,2.529-2.731,2.848
			C19.247,21.445,19.205,21.459,19.163,21.459z"/>
		<path fill="#FFFFFF" d="M15.284,7.784c2.573,0.773,3.983,1.178,4.229,1.215v0.064c-0.504,0.156-0.951,0.33-1.34,0.522
			c1.738,2.135,2.608,4.372,2.608,6.711v0.585c0,0.654-0.056,1.175-0.172,1.565c0.036,0,0.054,0.018,0.054,0.054
			c0.612-0.036,0.981-0.054,1.106-0.054h0.109c-1.453,1.577-2.358,2.522-2.717,2.834c-0.08-2.183-0.117-3.437-0.117-3.761
			l-0.054-0.126h0.054l0.756,0.701h0.116c0.07-0.942,0.106-1.463,0.106-1.565c0-2.256-0.771-4.34-2.309-6.252
			c-0.078,0-0.179,0.443-0.299,1.331h-0.053c0-0.042-0.694-1.296-2.079-3.761V7.784 M15.284,7.426c-0.076,0-0.151,0.024-0.213,0.071
			c-0.092,0.068-0.145,0.174-0.145,0.287v0.063c0,0.061,0.017,0.122,0.046,0.175c1.646,2.925,1.996,3.581,2.052,3.7
			c0.047,0.142,0.182,0.244,0.339,0.244h0.053c0.179,0,0.331-0.132,0.355-0.31c0.034-0.246,0.063-0.44,0.088-0.595
			c1.2,1.688,1.808,3.525,1.808,5.468c0,0.041-0.008,0.219-0.059,0.898l-0.32-0.295c-0.066-0.061-0.152-0.096-0.243-0.096h-0.053
			c-0.12,0-0.233,0.061-0.299,0.161c-0.066,0.101-0.077,0.228-0.029,0.339l0.027,0.059c0.004,0.445,0.046,1.776,0.116,3.699
			c0.007,0.138,0.089,0.26,0.215,0.314c0.046,0.02,0.095,0.029,0.142,0.029c0.085,0,0.168-0.03,0.235-0.088
			c0.372-0.323,1.27-1.259,2.746-2.861c0.096-0.105,0.122-0.256,0.064-0.386c-0.057-0.13-0.187-0.214-0.328-0.214h-0.109
			c-0.067,0-0.218,0.003-0.721,0.031c0.06-0.349,0.088-0.759,0.088-1.239v-0.585c0-2.278-0.807-4.488-2.403-6.575
			c0.271-0.113,0.564-0.219,0.883-0.317c0.148-0.045,0.25-0.183,0.25-0.34V8.999c0-0.177-0.129-0.327-0.305-0.354
			c-0.13-0.02-0.847-0.202-4.18-1.204C15.354,7.432,15.319,7.426,15.284,7.426L15.284,7.426z"/>
	</g>
</g>
<g transform="matrix(1.3981125,0,0,1.3981125,-9.8161475,-9.8168466)">
	<path fill="#BD2877" d="M15.457,12.01c-0.307,0.265-2.934,1.923-7.881,4.976v0.061h9.327c0.074,0,0.109-0.039,0.109-0.117v-0.919
		C17.012,14.515,16.494,13.18,15.457,12.01z"/>
	<path fill="#BD2877" d="M15.284,7.783v0.063c1.386,2.465,2.079,3.719,2.079,3.761h0.054c0.119-0.888,0.218-1.331,0.298-1.331
		c1.539,1.912,2.311,3.996,2.311,6.252c0,0.102-0.036,0.623-0.108,1.565h-0.115l-0.757-0.701h-0.053l0.053,0.126
		c0,0.324,0.039,1.579,0.117,3.761c0.359-0.312,1.264-1.257,2.717-2.834h-0.109c-0.124,0-0.495,0.018-1.106,0.054
		c0-0.036-0.018-0.054-0.053-0.054c0.115-0.39,0.172-0.911,0.172-1.565v-0.585c0-2.339-0.872-4.576-2.61-6.711
		c0.39-0.192,0.837-0.366,1.34-0.522V8.998C19.267,8.961,17.857,8.556,15.284,7.783L15.284,7.783z"/>
</g>
</svg>
