<?xml version="1.0" encoding="utf-8"?>
<svg version="1.1" xmlns="http://www.w3.org/2000/svg" xmlns:xlink="http://www.w3.org/1999/xlink" width="21px" height="27px">
<g transform="matrix(1.3229847,0,0,1.3229847,-5.4859773,-11.250662)">
	<g>
		<path fill="#248BCB" d="M8.893,20.409V9.882c-0.001-0.021,0-0.258,0.247-0.513c0.435-0.448,1.333-0.676,2.67-0.676
			c1.467,0,2.44,0.236,2.893,0.702c0.232,0.239,0.238,0.452,0.236,0.493v1.476h3.325c0.655,0,1.188,0.533,1.188,1.189v3.675
			c0,0.655-0.533,1.189-1.188,1.189c-0.655,0-1.19-0.533-1.19-1.189v-2.486h-2.135v6.668H8.893V20.409z"/>
		<path fill="#FFFFFF" d="M11.809,8.882c2.97,0,2.94,1,2.94,1v1.67h3.514c0.552,0,0.999,0.448,0.999,1v3.675
			c0,0.553-0.447,1-0.999,1c-0.554,0-1.001-0.447-1.001-1v-2.675h-2.513v6.668H9.082V9.882C9.082,9.882,9.052,8.882,11.809,8.882
			 M11.809,8.504c-1.39,0-2.333,0.247-2.805,0.733c-0.295,0.304-0.302,0.6-0.3,0.656V20.22v0.378h0.378h5.668h0.378V20.22v-6.29
			h1.757v2.297c0,0.76,0.619,1.378,1.379,1.378c0.76,0,1.377-0.618,1.377-1.378v-3.675c0-0.76-0.619-1.378-1.377-1.378h-3.136V9.882
			c0.001-0.064-0.013-0.333-0.291-0.619C14.349,8.759,13.329,8.504,11.809,8.504L11.809,8.504z"/>
	</g>
</g>
<g transform="matrix(1.3229847,0,0,1.3229847,-5.4859773,-11.250662)">
	<path fill="#248BCB" d="M18.263,11.552h-3.514v-1.67c0,0,0.03-1-2.94-1c-2.758,0-2.728,1-2.728,1v10.34h5.668v-6.668h2.513v2.675
		c0,0.553,0.447,1,1.001,1c0.552,0,0.999-0.447,0.999-1v-3.675C19.263,12,18.815,11.552,18.263,11.552z"/>
</g>
</svg>
