<?xml version="1.0" encoding="utf-8"?>
<svg version="1.1" xmlns="http://www.w3.org/2000/svg" xmlns:xlink="http://www.w3.org/1999/xlink" width="20px" height="20px">
<g transform="matrix(0.04614324,0,0,0.04614324,-3.7340739,-13.895605)">
	<g>
		<rect x="293.993" y="346.146" fill="#BD2877" width="7.317" height="2.658"/>
		<path fill="#FFFFFF" d="M371.524,324.094v46.761H223.78v-46.761H371.524 M382.36,313.259h-10.836H223.78h-10.836v10.836v46.761
			v10.836h10.836h147.745h10.836v-10.836v-46.761V313.259L382.36,313.259z"/>
	</g>
	<g>
		<rect x="150.659" y="418.903" fill="#BD2877" width="4.126" height="10.105"/>
		<path fill="#FFFFFF" d="M192.013,319.872v208.157h-78.581V319.872H192.013 M202.849,309.036h-10.836h-78.581h-10.836v10.836
			v208.157v10.825h10.836h78.581h10.836v-10.825V319.872V309.036L202.849,309.036z"/>
	</g>
	<g>
		<rect x="440.465" y="418.903" fill="#BD2877" width="4.129" height="10.105"/>
		<path fill="#FFFFFF" d="M481.852,319.872v208.157h-78.645V319.872H481.852 M492.688,309.036h-10.836h-78.645h-10.836v10.836
			v208.157v10.825h10.836h78.645h10.836v-10.825V319.872V309.036L492.688,309.036z"/>
	</g>
</g>
<g transform="matrix(0.04614324,0,0,0.04614324,-3.7340739,-13.895605)">
	<rect x="223.78" y="324.105" fill="#BD2877" width="147.745" height="46.772"/>
	<rect x="113.432" y="319.872" fill="#BD2877" width="78.581" height="208.167"/>
	<rect x="403.207" y="319.872" fill="#BD2877" width="78.645" height="208.167"/>
</g>
</svg>
