<?xml version="1.0" encoding="utf-8"?>
<svg version="1.1" xmlns="http://www.w3.org/2000/svg" xmlns:xlink="http://www.w3.org/1999/xlink" width="20px" height="31px">
<g transform="matrix(1.0951491,0,0,1.0951491,-3.6000303,-8.9254652)">
	<g>
		<path fill="#BD2877" d="M12.735,15.25c-0.687,0-1.429-0.347-1.985-0.928c-0.963-1.012-1.116-2.437-0.342-3.177
			c0.092-0.086,0.194-0.158,0.311-0.225l0.218-0.118l6.106-2.845l0.01,0.011c0.098-0.03,0.198-0.045,0.298-0.045
			c0.598,0,1.084,0.486,1.084,1.084c0,0.161-0.042,0.32-0.125,0.473l0.016,0.019L18.22,9.664l-4.079,4.875l-0.198,0.228
			C13.604,15.097,13.2,15.25,12.735,15.25L12.735,15.25z"/>
		<path fill="#FFFFFF" d="M17.351,8.15c0.473,0,0.856,0.383,0.856,0.856c0,0.187-0.075,0.352-0.178,0.492l0.016,0.019l-4.079,4.875
			l-0.195,0.225c-0.007,0.007-0.012,0.017-0.021,0.025c-0.268,0.257-0.627,0.38-1.016,0.38c-0.605,0-1.285-0.298-1.82-0.858
			c-0.877-0.921-1.034-2.199-0.349-2.854c0.082-0.076,0.171-0.138,0.266-0.192l0.214-0.116l5.937-2.766l0.003,0.003
			C17.096,8.185,17.219,8.15,17.351,8.15 M17.106,7.679L16.79,7.822l-5.937,2.766l-0.239,0.128c-0.141,0.08-0.256,0.163-0.358,0.258
			c-0.871,0.833-0.721,2.402,0.328,3.504c0.608,0.636,1.392,1,2.151,1c0.524,0,0.984-0.175,1.331-0.507l0.031-0.03l0.024-0.032
			l0.19-0.219l4.084-4.881l0.245-0.293l-0.062-0.073c0.056-0.142,0.085-0.288,0.085-0.438c0-0.724-0.589-1.313-1.313-1.313
			c-0.072,0-0.144,0.006-0.216,0.019L17.106,7.679L17.106,7.679z"/>
	</g>
	<g>
		<path fill="#BD2877" d="M10.877,23.901v-8.745l0.342,0.195c0.507,0.289,1.032,0.442,1.518,0.442c0.465,0,0.905-0.132,1.275-0.383
			l0.357-0.241v8.732H10.877z"/>
		<path fill="#FFFFFF" d="M11.105,15.55c0.517,0.295,1.075,0.472,1.631,0.472c0.519,0,1.003-0.151,1.404-0.422v8.073h-3.035V15.55
			 M14.596,14.739l-0.712,0.482c-0.333,0.225-0.729,0.344-1.148,0.344c-0.446,0-0.932-0.143-1.404-0.412l-0.683-0.39v0.786v8.123
			v0.457h0.457h3.035h0.457v-0.457V15.6V14.739L14.596,14.739z"/>
	</g>
</g>
<g transform="matrix(1.0951491,0,0,1.0951491,-3.6000303,-8.9254652)">
	<path fill="#BD2877" d="M18.174,9.006c0-0.473-0.383-0.856-0.856-0.856c-0.132,0-0.255,0.035-0.366,0.089l-0.004-0.003
		l-5.937,2.766l-0.214,0.116c-0.095,0.054-0.184,0.116-0.266,0.192c-0.685,0.655-0.528,1.933,0.349,2.854
		c0.879,0.919,2.149,1.134,2.836,0.478c0.009-0.008,0.012-0.018,0.02-0.025l0.196-0.225l4.079-4.875l-0.016-0.019
		C18.099,9.358,18.174,9.193,18.174,9.006z"/>
	<path fill="#BD2877" d="M12.702,16.022c-0.556,0-1.114-0.177-1.631-0.472v8.123h3.035V15.6
		C13.704,15.871,13.221,16.022,12.702,16.022z"/>
</g>
</svg>
