<?xml version="1.0" encoding="utf-8"?>
<svg version="1.1" xmlns="http://www.w3.org/2000/svg" xmlns:xlink="http://www.w3.org/1999/xlink" width="21px" height="20px">
<g>
	<path fill="#BD2877" d="M5.696,11.268c-0.705,0-1.098-0.58-1.165-1.12C4.463,9.597,4.708,8.962,5.408,8.787
		c1.27-0.036,2.485-0.043,3.701-0.043l3.976,0.009l1.373-0.004c0.096-0.02,0.244-0.033,0.396-0.033c0.551,0,1.033,0.167,1.32,0.459
		c0.213,0.218,0.324,0.506,0.318,0.833c0.014,0.62-0.506,1.195-1.135,1.244c-1.445,0.006-2.873,0.007-4.301,0.007l-5.191-0.005
		C5.834,11.262,5.765,11.268,5.696,11.268z"/>
	<path fill="#FFFFFF" d="M14.854,8.965c0.662,0,1.402,0.272,1.391,1.038c0.012,0.497-0.406,0.96-0.904,0.999
		c-1.426,0.005-2.854,0.006-4.28,0.006c-1.73,0-3.46-0.002-5.19-0.005c-0.059,0.011-0.116,0.015-0.171,0.015
		c-1.055,0-1.31-1.717-0.228-1.988c1.212-0.028,2.426-0.036,3.64-0.036c1.325,0,2.649,0.009,3.976,0.009
		c0.457,0,0.916-0.001,1.375-0.004C14.582,8.977,14.717,8.965,14.854,8.965 M14.854,8.465c-0.146,0-0.295,0.011-0.436,0.034
		c-0.445,0.002-0.891,0.003-1.334,0.003c-0.662,0-1.324-0.002-1.986-0.004c-0.663-0.002-1.326-0.004-1.989-0.004
		c-1.464,0-2.59,0.011-3.651,0.036L5.401,8.531L5.348,8.544c-0.723,0.181-1.16,0.853-1.063,1.634
		c0.098,0.788,0.678,1.339,1.413,1.339c0.067,0,0.137-0.006,0.208-0.016c1.718,0.003,3.436,0.005,5.154,0.005
		c1.427,0,2.854-0.001,4.282-0.006c0.795-0.062,1.42-0.752,1.402-1.511c0.006-0.375-0.129-0.725-0.391-0.991
		C15.896,8.535,15.217,8.465,14.854,8.465L14.854,8.465z"/>
</g>
<g>
	<path fill="#BD2877" d="M10.493,17.407C7.16,17.4,4.221,16.32,2.216,14.361c-1.616-1.449-2.324-3.715-1.795-5.764
		C1.103,6.07,3.331,4.596,4.598,3.942c1.8-0.883,3.84-1.348,5.906-1.348c1.954,0,3.889,0.42,5.6,1.214
		c2.473,1.177,4.117,3.039,4.52,5.108c0.393,1.634-0.123,3.484-1.379,4.939c-1.934,2.242-5.121,3.537-8.75,3.552H10.493z
		 M10.494,4.126c-2.859,0.01-5.37,0.884-7.071,2.461c-1.293,1.097-1.897,2.787-1.548,4.312c0.472,2.064,2.399,3.308,3.506,3.863
		c1.558,0.731,3.33,1.12,5.118,1.12c1.548,0,3.105-0.296,4.503-0.854c1.34-0.567,3.664-1.875,4.121-4.221
		c0.311-1.292-0.139-2.731-1.197-3.857C15.68,4.525,12.307,4.14,10.494,4.126z"/>
	<path fill="#FFFFFF" d="M10.503,2.844c1.891,0,3.782,0.396,5.495,1.191c2.023,0.964,3.934,2.638,4.379,4.93
		c0.402,1.682-0.217,3.447-1.324,4.729c-2.096,2.435-5.43,3.453-8.559,3.465c-2.92-0.006-5.975-0.896-8.102-2.975
		c-1.514-1.357-2.238-3.545-1.728-5.523C1.209,6.632,2.898,5.1,4.712,4.164C6.503,3.286,8.503,2.844,10.503,2.844 M10.498,16.133
		c1.569,0,3.141-0.291,4.596-0.872c1.912-0.812,3.852-2.245,4.273-4.405c0.354-1.476-0.248-3-1.26-4.078
		c-1.922-2.074-4.861-2.881-7.615-2.901C7.903,3.886,5.188,4.609,3.251,6.404c-1.293,1.097-2.006,2.873-1.622,4.551
		c0.424,1.855,2,3.208,3.637,4.031C6.895,15.751,8.695,16.133,10.498,16.133 M10.494,17.157L10.494,17.157L10.494,17.157
		 M10.503,2.344c-2.103,0-4.182,0.474-6.011,1.372C3.179,4.393,0.885,5.912,0.181,8.53c-0.553,2.144,0.184,4.507,1.876,6.027
		c2.035,1.988,5.037,3.096,8.436,3.102c3.703-0.014,6.96-1.34,8.939-3.639c1.309-1.516,1.844-3.449,1.432-5.17
		c-0.412-2.127-2.109-4.054-4.65-5.265C14.467,2.771,12.492,2.344,10.503,2.344L10.503,2.344z M10.498,15.633
		c-1.752,0-3.487-0.38-5.018-1.099c-1.055-0.531-2.913-1.726-3.362-3.69C1.789,9.409,2.361,7.815,3.576,6.785
		c1.671-1.548,4.123-2.398,6.919-2.409c1.765,0.013,5.064,0.387,7.246,2.741c1.004,1.067,1.428,2.42,1.141,3.621
		c-0.439,2.253-2.686,3.511-3.982,4.063C13.539,15.344,12.014,15.633,10.498,15.633L10.498,15.633z"/>
</g>
<path fill="#BD2877" d="M16.242,10.003c0.018-0.924-1.064-1.129-1.783-1.004C11.463,9.018,8.462,8.96,5.468,9.03
	c-1.138,0.285-0.797,2.17,0.399,1.973c3.157,0.005,6.314,0.009,9.472-0.001C15.836,10.963,16.254,10.5,16.242,10.003z"/>
<path fill="#BD2877" d="M10.494,3.876c2.752,0.021,5.692,0.827,7.614,2.901c1.014,1.077,1.613,2.602,1.26,4.079
	c-0.422,2.16-2.361,3.594-4.273,4.404c-3.121,1.248-6.779,1.156-9.825-0.273c-1.637-0.823-3.213-2.176-3.637-4.031
	c-0.386-1.679,0.327-3.454,1.62-4.551C5.188,4.609,7.903,3.886,10.494,3.876z M10.494,17.157c3.129-0.013,6.463-1.03,8.559-3.466
	c1.107-1.28,1.727-3.047,1.324-4.728c-0.445-2.292-2.355-3.965-4.379-4.93c-3.523-1.636-7.799-1.58-11.286,0.129
	C2.898,5.1,1.209,6.632,0.664,8.66c-0.511,1.979,0.214,4.166,1.728,5.523C4.519,16.262,7.574,17.152,10.494,17.157L10.494,17.157z"
	/>
</svg>
