<?xml version="1.0" encoding="utf-8"?>
<svg version="1.1" xmlns="http://www.w3.org/2000/svg" xmlns:xlink="http://www.w3.org/1999/xlink" width="30px" height="31px">
<g>
	<path fill="#DE7233" d="M8.892,17.861V4.618l5.881-4.313l6.334,4.307v13.25H8.892z M11.776,13.226
		c-0.205,0-0.433,0.335-0.433,0.783c0,0.449,0.229,0.784,0.433,0.784h6.445c0.205,0,0.436-0.322,0.436-0.784
		c-0.002-0.448-0.23-0.783-0.436-0.783H11.776z M11.776,8.328c-0.205,0-0.433,0.335-0.433,0.784c0,0.448,0.229,0.783,0.433,0.783
		h6.445c0.205,0,0.436-0.322,0.436-0.783c-0.002-0.448-0.23-0.784-0.436-0.784H11.776z"/>
	<path fill="#FFFFFF" d="M14.778,0.612l6.08,4.133v12.867H9.142V4.745L14.778,0.612 M11.776,10.145h6.445
		c0.379,0,0.686-0.463,0.686-1.033h-0.002c0-0.571-0.309-1.034-0.684-1.034h-6.445c-0.376,0-0.683,0.463-0.683,1.034
		C11.093,9.682,11.4,10.145,11.776,10.145 M11.776,15.043h6.445c0.379,0,0.686-0.463,0.686-1.034h-0.002
		c0-0.57-0.309-1.033-0.684-1.033h-6.445c-0.376,0-0.683,0.463-0.683,1.033C11.093,14.58,11.4,15.043,11.776,15.043 M14.768,0
		l-0.285,0.208L8.847,4.341l-0.205,0.15v0.253v12.868v0.5h0.5h11.715h0.5v-0.5V4.745V4.48l-0.217-0.149L15.06,0.198L14.768,0
		L14.768,0z M11.784,9.645c-0.058-0.028-0.191-0.217-0.191-0.533c0-0.324,0.139-0.514,0.194-0.535l6.434,0.001
		c0.045,0.02,0.184,0.21,0.184,0.534c0.002,0.326-0.137,0.514-0.192,0.535L11.784,9.645L11.784,9.645z M11.784,14.543
		c-0.058-0.028-0.191-0.217-0.191-0.534c0-0.323,0.139-0.513,0.194-0.534l6.434,0.001c0.045,0.02,0.184,0.209,0.184,0.533
		c0.002,0.326-0.137,0.515-0.192,0.536L11.784,14.543L11.784,14.543z"/>
</g>
<path fill="#DE7233" d="M20.857,17.611H9.142V4.745l5.636-4.133l6.08,4.133V17.611L20.857,17.611z M18.904,9.112
	c0-0.571-0.309-1.034-0.684-1.034h-6.446c-0.376,0-0.683,0.463-0.683,1.034c0,0.57,0.307,1.033,0.683,1.033h6.446
	C18.6,10.145,18.904,9.682,18.904,9.112L18.904,9.112z M18.904,14.009c0-0.57-0.309-1.033-0.684-1.033h-6.446
	c-0.376,0-0.683,0.463-0.683,1.033c0,0.571,0.307,1.035,0.683,1.035h6.446C18.6,15.044,18.904,14.58,18.904,14.009L18.904,14.009z"
	/>
</svg>
