<?xml version="1.0" encoding="utf-8"?>
<svg version="1.1" xmlns="http://www.w3.org/2000/svg" xmlns:xlink="http://www.w3.org/1999/xlink" width="25px" height="25px">
<g>
	<path fill="#FFFFFF" d="M12.5,1.414L23.3,12.213l-10.8,10.8l-10.8-10.798L12.5,1.414 M12.5,0l-0.707,0.707l-10.8,10.8l-0.707,0.708
		l0.707,0.708l10.799,10.797l0.707,0.707l0.707-0.707l10.801-10.8l0.707-0.707l-0.707-0.707L13.208,0.707L12.5,0L12.5,0z"/>
</g>
<rect x="4.862" y="4.579" transform="matrix(0.7071 -0.7071 0.7071 0.7071 -4.9761 12.4155)" fill="#693380" fill-opacity="0.2" stroke="#693380" width="15.274" height="15.272"/>
<g>
	<g>
		<defs>
			
				<rect id="SVGID_1_" x="4.863" y="4.579" transform="matrix(0.7071 -0.7071 0.7071 0.7071 -4.9766 12.4167)" width="15.275" height="15.272"/>
		</defs>
		<clipPath id="SVGID_2_">
			<use xlink:href="#SVGID_1_"  overflow="visible"/>
		</clipPath>
		<ellipse clip-path="url(#SVGID_2_)" fill="#693380" cx="12.282" cy="14.799" rx="1.249" ry="1.221"/>
	</g>
</g>
<g>
	<g>
		<defs>
			
				<rect id="SVGID_3_" x="4.863" y="4.579" transform="matrix(0.7071 -0.7071 0.7071 0.7071 -4.9766 12.4167)" width="15.275" height="15.272"/>
		</defs>
		<clipPath id="SVGID_4_">
			<use xlink:href="#SVGID_3_"  overflow="visible"/>
		</clipPath>
		<path clip-path="url(#SVGID_4_)" fill="#693380" d="M16.86,19.207h-1.508l0.229-5.732c0,0-2.169,0.162-2.899-1.368
			c-0.729-1.529-0.042-2.673,0.104-2.917c0.146-0.245,0.563-0.57,0.563-0.57s-0.688-3.512,2.524-3.49
			c3.211,0.02,2.521,3.511,2.521,3.511s1.211,0.633,1.188,2.122c-0.022,1.489-0.897,2.184-1.522,2.429
			c-0.627,0.244-1.502,0.285-1.502,0.285L16.86,19.207z"/>
	</g>
</g>
<g>
	<g>
		<defs>
			
				<rect id="SVGID_5_" x="4.863" y="4.579" transform="matrix(0.7071 -0.7071 0.7071 0.7071 -4.9766 12.4167)" width="15.275" height="15.272"/>
		</defs>
		<clipPath id="SVGID_6_">
			<use xlink:href="#SVGID_5_"  overflow="visible"/>
		</clipPath>
		<path clip-path="url(#SVGID_6_)" fill="#693380" d="M5.415,18.42v0.881h4.881l1.964-2.191l0.771,1.314h-0.937v0.879h2.42
			l-1.668-3.143l-1.854-0.447l-1.449,1.885c0,0-0.845-1.188-1.193-1.438s-0.973-0.125-1.32,0.379
			c-0.349,0.502-0.733,1.885-0.733,1.885L5.415,18.42z M7.162,18.42c0,0,0.233-1.256,0.655-1.273
			c0.423-0.02,0.918,1.273,0.918,1.273H7.162z"/>
	</g>
</g>
</svg>
