<?xml version="1.0" encoding="utf-8"?>
<svg version="1.1" xmlns="http://www.w3.org/2000/svg" xmlns:xlink="http://www.w3.org/1999/xlink" width="20px" height="20px">
<g transform="matrix(0.05355555,0,0,0.05355555,-5.9408362,-12.544503)">
	<g>
		<path fill="#BD2877" d="M166.752,565.66c-8.361,0-15.162-6.802-15.162-15.171V291.406c0-8.361,6.801-15.162,15.171-15.162h261.773
			c8.37,0,15.171,6.802,15.171,15.171v259.075c0,8.369-6.801,15.171-15.171,15.171H166.752z M406.362,535.318V479.94H188.934v55.378
			H406.362z M406.362,449.598v-57.311l-217.427-0.009v57.32H406.362z M406.362,361.963v-55.387H188.934v55.387H406.362z"/>
		<path fill="#FFFFFF" d="M428.535,280.912c5.799,0,10.503,4.686,10.503,10.503v259.075c0,5.78-4.777,10.503-10.503,10.503H166.752
			c-5.771,0-10.494-4.723-10.494-10.503V291.406c0-5.79,4.723-10.494,10.503-10.494H428.535 M184.266,366.632H411.03v-64.723
			H184.266V366.632 M184.266,454.266H411.03v-66.647v-0.009H184.266V454.266 M184.266,539.986H411.03v-64.714H184.266V539.986
			 M428.535,271.575H166.761c-10.941,0-19.839,8.898-19.839,19.83v259.084c0,10.94,8.898,19.839,19.83,19.839h261.782
			c10.941,0,19.839-8.898,19.839-19.839V291.415C448.374,280.474,439.475,271.575,428.535,271.575L428.535,271.575z
			 M193.602,311.244h208.091v46.051H193.602V311.244L193.602,311.244z M193.602,396.946h208.091v47.984H193.602V396.946
			L193.602,396.946z M193.602,484.608h208.091v46.042H193.602V484.608L193.602,484.608z"/>
	</g>
</g>
<g transform="matrix(0.05355555,0,0,0.05355555,-5.9408362,-12.544503)">
	<path fill="#BD2877" d="M428.534,280.92H166.752c-5.78,0-10.503,4.704-10.503,10.494v259.075c0,5.798,4.723,10.503,10.494,10.503
		h261.792c5.726,0,10.503-4.705,10.503-10.503V291.423C439.037,285.607,434.333,280.92,428.534,280.92L428.534,280.92z
		 M411.029,301.917v64.723H184.257v-64.723H411.029L411.029,301.917z M411.029,387.628v66.656H184.257v-66.665h226.772V387.628z
		 M184.257,539.986V475.29h226.772v64.696H184.257L184.257,539.986z"/>
</g>
</svg>
