<?xml version="1.0" encoding="utf-8"?>
<svg version="1.1" id="Layer_1" xmlns="http://www.w3.org/2000/svg" xmlns:xlink="http://www.w3.org/1999/xlink" width="20px" height="20px">
<g>
	<path fill="#248BCB" d="M2.622,14.544V5.456h14.756v9.088H2.622z M15.378,12.544V7.456H4.622v5.088H15.378z"/>
	<path fill="#FFFFFF" d="M17.128,5.706v8.588H2.872V5.706H17.128 M4.372,12.794h11.256V7.206H4.372V12.794 M17.628,5.206h-0.5H2.872
		h-0.5v0.5v8.588v0.5h0.5h14.256h0.5v-0.5V5.706V5.206L17.628,5.206z M4.872,7.706h10.256v4.588H4.872V7.706L4.872,7.706z"/>
</g>
<path fill="#248BCB" d="M17.128,14.294H2.872V5.706h14.256V14.294z M4.372,12.794h11.256V7.206H4.372V12.794z"/>
</svg>
