<?xml version="1.0" encoding="utf-8"?>
<svg version="1.1" xmlns="http://www.w3.org/2000/svg" xmlns:xlink="http://www.w3.org/1999/xlink" width="30px" height="35px">
<g transform="matrix(1.1939217,0,0,1.1939217,3.2332964,-7.7712294)">
	<g>
		<circle fill="#BD2877" cx="9.227" cy="13.481" r="2.788"/>
		<path fill="#FFFFFF" d="M9.227,11.355c1.174,0,2.126,0.952,2.126,2.126c0,1.174-0.952,2.126-2.126,2.126s-2.126-0.952-2.126-2.126
			C7.101,12.307,8.053,11.355,9.227,11.355 M9.227,10.936c-1.403,0-2.545,1.142-2.545,2.545s1.141,2.545,2.545,2.545
			s2.545-1.141,2.545-2.545S10.63,10.936,9.227,10.936L9.227,10.936z"/>
	</g>
	<g>
		<rect x="8.38" y="14.532" fill="#BD2877" width="1.694" height="8.307"/>
		<path fill="#FFFFFF" d="M9.727,15.416v6.539h-1v-6.539H9.727 M10.146,14.997H9.727h-1H8.308v0.419v6.539v0.419h0.419h1h0.419
			v-0.419v-6.539V14.997L10.146,14.997z"/>
	</g>
	<g>
		<path fill="#BD2877" d="M20.438,16.359c-0.376,0-0.72-0.207-0.896-0.539c-0.782-1.467-0.78-3.287,0.006-4.748
			c0.177-0.33,0.52-0.535,0.895-0.535c0.166,0,0.332,0.042,0.479,0.121c0.33,0.176,0.535,0.518,0.535,0.894
			c0,0.165-0.042,0.33-0.12,0.478c-0.469,0.87-0.469,1.957-0.002,2.837c0.128,0.24,0.155,0.515,0.075,0.775
			c-0.079,0.259-0.256,0.471-0.497,0.598C20.768,16.317,20.603,16.359,20.438,16.359L20.438,16.359z"/>
		<path fill="#FFFFFF" d="M20.442,10.747c0.128,0,0.259,0.031,0.38,0.096c0.27,0.144,0.425,0.423,0.425,0.709
			c0,0.129-0.032,0.26-0.096,0.381c-0.501,0.93-0.499,2.096-0.002,3.033c0.21,0.394,0.061,0.881-0.334,1.089
			c-0.12,0.064-0.249,0.094-0.377,0.094c-0.288,0-0.567-0.155-0.712-0.427c-0.744-1.396-0.741-3.163,0.005-4.551
			C19.877,10.901,20.155,10.747,20.442,10.747 M20.442,10.328c-0.452,0-0.865,0.247-1.08,0.644c-0.819,1.523-0.82,3.419-0.006,4.947
			c0.213,0.4,0.627,0.649,1.081,0.649c0.2,0,0.398-0.05,0.574-0.144c0.288-0.152,0.501-0.408,0.597-0.721
			c0.096-0.313,0.064-0.645-0.091-0.935c-0.434-0.819-0.434-1.83,0.002-2.637c0.096-0.182,0.146-0.381,0.146-0.58
			c0-0.453-0.248-0.866-0.646-1.079C20.843,10.378,20.643,10.328,20.442,10.328L20.442,10.328z"/>
	</g>
	<g>
		<path fill="#BD2877" d="M17.597,17.876c-0.375,0-0.718-0.206-0.895-0.537c-1.265-2.366-1.264-5.421,0.003-7.785
			c0.177-0.33,0.52-0.535,0.896-0.535c0.166,0,0.331,0.041,0.479,0.12c0.33,0.175,0.535,0.518,0.535,0.894
			c0,0.17-0.042,0.336-0.121,0.481c-0.955,1.781-0.956,4.085-0.002,5.868c0.128,0.236,0.157,0.509,0.08,0.768
			c-0.079,0.261-0.254,0.476-0.496,0.606C17.929,17.834,17.763,17.876,17.597,17.876L17.597,17.876z"/>
		<path fill="#FFFFFF" d="M17.601,9.229c0.128,0,0.258,0.031,0.38,0.095c0.271,0.144,0.425,0.423,0.425,0.709
			c0,0.129-0.029,0.26-0.096,0.381c-0.994,1.853-0.994,4.215-0.002,6.067c0.214,0.393,0.062,0.88-0.33,1.09
			c-0.121,0.065-0.252,0.096-0.38,0.096c-0.287,0-0.565-0.155-0.71-0.426c-1.24-2.319-1.24-5.268,0.003-7.588
			C17.035,9.383,17.314,9.229,17.601,9.229 M17.601,8.81c-0.452,0-0.867,0.247-1.08,0.646c-1.3,2.424-1.301,5.557-0.004,7.983
			c0.213,0.399,0.627,0.647,1.08,0.647c0.2,0,0.4-0.05,0.577-0.145c0.291-0.156,0.504-0.416,0.598-0.731
			c0.093-0.312,0.058-0.643-0.097-0.929c-0.921-1.72-0.92-3.946,0.003-5.669c0.095-0.173,0.146-0.374,0.146-0.579
			c0-0.454-0.248-0.867-0.647-1.079C18.001,8.86,17.801,8.81,17.601,8.81L17.601,8.81z"/>
	</g>
	<g>
		<path fill="#BD2877" d="M14.788,19.455c-0.372,0-0.714-0.203-0.892-0.53c-1.793-3.297-1.808-7.568-0.039-10.881
			c0.178-0.332,0.522-0.537,0.897-0.537c0.165,0,0.33,0.041,0.477,0.119C15.723,7.892,15.911,8.508,15.648,9
			c-1.459,2.731-1.447,6.246,0.03,8.955c0.081,0.147,0.124,0.314,0.124,0.484c0,0.372-0.203,0.714-0.529,0.892
			C15.124,19.413,14.956,19.455,14.788,19.455L14.788,19.455z"/>
		<path fill="#FFFFFF" d="M14.753,7.716c0.128,0,0.258,0.031,0.378,0.095c0.394,0.212,0.541,0.7,0.332,1.09
			c-1.498,2.805-1.487,6.37,0.031,9.154c0.067,0.122,0.098,0.254,0.098,0.384c0,0.286-0.154,0.563-0.42,0.709
			c-0.123,0.067-0.254,0.098-0.384,0.098c-0.285,0-0.562-0.153-0.708-0.421c-1.768-3.252-1.785-7.411-0.038-10.682
			C14.187,7.871,14.466,7.716,14.753,7.716 M14.753,7.297c-0.452,0-0.867,0.248-1.081,0.647c-1.802,3.374-1.786,7.723,0.039,11.08
			c0.216,0.395,0.628,0.64,1.076,0.64c0.204,0,0.406-0.052,0.585-0.149c0.394-0.216,0.639-0.628,0.639-1.076
			c0-0.205-0.052-0.408-0.15-0.586c-1.444-2.648-1.455-6.085-0.029-8.754c0.317-0.594,0.092-1.337-0.504-1.656
			C15.152,7.347,14.953,7.297,14.753,7.297L14.753,7.297z"/>
	</g>
</g>
<g transform="matrix(1.1939217,0,0,1.1939217,3.2332964,-7.7712294)">
	<circle fill="#BD2877" cx="9.22" cy="13.481" r="2.126"/>
	<rect x="8.721" y="15.416" fill="#BD2877" width="1" height="6.539"/>
	<path fill="#BD2877" d="M19.725,11.171c-0.746,1.388-0.749,3.155-0.005,4.551c0.209,0.392,0.697,0.542,1.089,0.333
		c0.395-0.208,0.544-0.695,0.334-1.089c-0.496-0.937-0.499-2.103,0.002-3.033c0.064-0.121,0.096-0.252,0.096-0.381
		c0-0.286-0.155-0.565-0.425-0.709C20.423,10.632,19.936,10.78,19.725,11.171z"/>
	<path fill="#BD2877" d="M16.883,9.653c-1.243,2.32-1.243,5.269-0.003,7.588c0.209,0.392,0.697,0.54,1.09,0.33
		c0.392-0.21,0.544-0.697,0.33-1.09c-0.991-1.852-0.991-4.214,0.002-6.067c0.066-0.121,0.096-0.252,0.096-0.381
		c0-0.286-0.154-0.565-0.425-0.709C17.582,9.114,17.093,9.262,16.883,9.653L16.883,9.653z"/>
	<path fill="#BD2877" d="M14.034,8.143c-1.746,3.271-1.73,7.43,0.038,10.682c0.213,0.391,0.702,0.536,1.093,0.323
		c0.267-0.146,0.42-0.423,0.42-0.709c0-0.13-0.031-0.262-0.098-0.384c-1.518-2.784-1.53-6.349-0.031-9.154
		c0.209-0.39,0.062-0.878-0.332-1.09C14.734,7.602,14.245,7.75,14.034,8.143z"/>
</g>
</svg>
