<?xml version="1.0" encoding="utf-8"?>
<svg version="1.1" xmlns="http://www.w3.org/2000/svg" xmlns:xlink="http://www.w3.org/1999/xlink" width="20px" height="31px">
<g transform="matrix(0.05714141,0,0,0.05714141,-7.0081978,-17.453387)">
	<g>
		<polygon fill="#BD2877" points="251.082,633.631 251.082,429.837 180.712,422.189 180.712,386.974 251.082,379.198 
			251.082,365.662 180.712,357.997 180.712,322.799 297.491,309.896 414.586,322.808 414.586,357.997 344.173,365.645 
			344.173,379.164 414.586,386.982 414.586,422.197 344.173,429.82 344.173,633.631 		"/>
		<path fill="#FFFFFF" d="M297.969,314.246l112.241,12.476v27.353l-70.412,7.648v21.354l70.412,7.819v27.37l-70.412,7.631v203.359
			h-84.341V425.914l-70.37-7.648v-27.37l70.37-7.776v-21.38l-70.37-7.665v-27.353L297.969,314.246 M297.969,305.444l-0.957,0.103
			L184.13,318.023l-7.793,0.863v7.836v27.353v7.853l7.802,0.846l62.568,6.819v5.691l-62.577,6.913l-7.793,0.863v7.836v27.37v7.853
			l7.802,0.846l62.568,6.802v195.489v8.75h8.75h84.341h8.75v-8.75V433.75l62.619-6.785l7.793-0.846v-7.853v-27.37v-7.836
			l-7.793-0.863l-62.619-6.956v-5.665l62.619-6.802l7.793-0.846v-7.853v-27.353v-7.827l-7.759-0.872l-112.267-12.476
			L297.969,305.444L297.969,305.444z"/>
	</g>
</g>
<g transform="matrix(0.05714141,0,0,0.05714141,-7.0081978,-17.453387)">
	<polygon fill="#BD2877" points="339.798,425.897 410.211,418.266 410.211,390.896 339.798,383.077 339.798,361.723 
		410.211,354.075 410.211,326.721 297.969,314.245 185.087,326.721 185.087,354.075 255.457,361.74 255.457,383.12 185.087,390.896 
		185.087,418.266 255.457,425.914 255.457,629.256 339.798,629.256 	"/>
</g>
</svg>
