<?xml version="1.0" encoding="utf-8"?>
<svg version="1.1" xmlns="http://www.w3.org/2000/svg" xmlns:xlink="http://www.w3.org/1999/xlink" width="35px" height="21px">
<g transform="matrix(0.0671955,0,0,0.0671955,4.0468441,-22.950085)">
	<g>
		<polygon fill="#DE7233" points="175.708,511.525 175.708,421.746 145.108,421.746 145.108,372.791 175.708,372.791 
			175.708,345.265 224.656,345.265 224.656,372.791 450.212,372.791 450.212,421.746 224.656,421.746 224.656,511.525 		"/>
		<path fill="#FFFFFF" d="M220.935,348.986v27.526h225.556v41.514H220.935v89.779h-41.507v-89.779h-30.6v-41.514h30.6v-27.526
			H220.935 M228.376,341.544h-7.441h-41.507h-7.441v7.441v20.085h-23.159h-7.441v7.441v41.514v7.441h7.441h23.159v82.338v7.441
			h7.441h41.507h7.441v-7.441v-82.338h218.115h7.441v-7.441v-41.514v-7.441h-7.441H228.376v-20.085V341.544L228.376,341.544z"/>
	</g>
</g>
<g transform="matrix(0.0671955,0,0,0.0671955,4.0468441,-22.950085)">
	<polygon fill="#DE7233" points="220.935,348.978 179.421,348.978 179.421,376.504 148.821,376.504 148.821,418.018 
		179.421,418.018 179.421,507.805 220.935,507.805 220.935,418.018 446.462,418.018 446.462,376.504 220.935,376.504 	"/>
</g>
</svg>
