<?xml version="1.0" encoding="utf-8"?>
<svg version="1.1" xmlns="http://www.w3.org/2000/svg" xmlns:xlink="http://www.w3.org/1999/xlink" width="25px" height="25px">
<rect x="5.362" y="5.292" transform="matrix(0.7071 -0.7071 0.7071 0.7071 -5.334 12.9771)" fill="#693380" fill-opacity="0.2" stroke="#693380" width="15.274" height="15.272"/>
<path fill="#693380" d="M20.507,15.152L6.051,9.313C5.67,9.16,5.23,9.344,5.075,9.728c-0.155,0.384,0.03,0.821,0.415,0.976
	l5.406,2.184c-0.375,0.383-0.607,0.905-0.607,1.483c0,1.176,0.952,2.127,2.125,2.127s2.126-0.951,2.126-2.127
	c0-0.004-0.001-0.008-0.001-0.012l5.404,2.184c0.094,0.037,0.188,0.055,0.281,0.055c0.297,0,0.576-0.178,0.694-0.469
	C21.076,15.744,20.891,15.307,20.507,15.152z"/>
<g transform="translate(-2.6726567,-2.6732003)">
	<g>
		<path fill="#FFFFFF" d="M15.674,4.587l10.799,10.799l-10.8,10.8l-10.8-10.798L15.674,4.587 M15.674,3.173L14.967,3.88l-10.8,10.8
			L3.46,15.389l0.707,0.708l10.799,10.797l0.707,0.707l0.707-0.707l10.801-10.8l0.707-0.707L27.18,14.68L16.382,3.88L15.674,3.173
			L15.674,3.173z"/>
	</g>
	
		<rect x="8.036" y="7.752" transform="matrix(-0.7071 0.7071 -0.7071 -0.7071 37.6355 15.187)" fill="#693380" fill-opacity="0.2" stroke="#693380" width="15.272" height="15.272"/>
</g>
</svg>
