<?xml version="1.0" encoding="utf-8"?>
<svg version="1.1" xmlns="http://www.w3.org/2000/svg" xmlns:xlink="http://www.w3.org/1999/xlink" width="24px" height="20px">
<g>
	<path fill="#DE7233" d="M21.585,13.117c-0.146,0-0.295-0.029-0.441-0.087l-6.431-2.598c-0.176,1.446-1.401,2.56-2.883,2.56
		c-1.602,0-2.905-1.304-2.905-2.905c0-0.639,0.208-1.25,0.591-1.752L3.088,5.738C2.879,5.653,2.713,5.48,2.609,5.236
		C2.446,4.852,2.447,4.301,2.61,3.896c0.193-0.479,0.82-1.012,1.411-1.012c0.111,0,0.216,0.02,0.312,0.058l18.055,7.292
		c0.209,0.084,0.375,0.258,0.479,0.502c0.162,0.384,0.161,0.935-0.003,1.34C22.696,12.49,22.101,13.117,21.585,13.117z"/>
	<path fill="#FFFFFF" d="M4.021,3.133c0.077,0,0.15,0.013,0.219,0.04l18.054,7.292c0.479,0.193,0.532,1.037,0.338,1.517
		c-0.147,0.365-0.676,0.885-1.047,0.885c-0.116,0-0.233-0.023-0.351-0.069l-6.75-2.727c0,0.006,0.002,0.011,0.002,0.016
		c0,1.468-1.189,2.655-2.656,2.655c-1.466,0-2.655-1.188-2.655-2.655c0-0.722,0.29-1.375,0.758-1.854L3.182,5.506
		c-0.481-0.193-0.534-1.037-0.34-1.517C3.008,3.579,3.565,3.133,4.021,3.133 M4.021,2.633c-0.701,0-1.415,0.604-1.643,1.169
		c-0.189,0.469-0.189,1.085,0,1.531C2.509,5.64,2.723,5.86,2.996,5.97l6.139,2.48c-0.299,0.49-0.459,1.052-0.459,1.637
		c0,1.74,1.415,3.155,3.155,3.155c1.502,0,2.762-1.054,3.079-2.461l6.138,2.48c0.181,0.07,0.36,0.105,0.538,0.105
		c0.637,0,1.309-0.697,1.511-1.197c0.189-0.469,0.19-1.085,0-1.531c-0.13-0.307-0.342-0.527-0.615-0.637L4.427,2.71
		C4.3,2.659,4.164,2.633,4.021,2.633L4.021,2.633z"/>
</g>
<path fill="#DE7233" d="M22.294,10.465L4.24,3.173C3.764,2.982,3.036,3.509,2.842,3.989c-0.194,0.479-0.141,1.323,0.34,1.517
	l6.751,2.728c-0.468,0.479-0.758,1.131-0.758,1.854c0,1.468,1.188,2.656,2.655,2.656c1.467,0,2.656-1.188,2.656-2.656
	c0-0.005-0.002-0.01-0.002-0.016l6.75,2.727c0.117,0.047,0.234,0.07,0.351,0.07c0.371,0,0.899-0.52,1.047-0.885
	C22.826,11.502,22.773,10.658,22.294,10.465z"/>
</svg>
