<?xml version="1.0" encoding="utf-8"?>
<svg version="1.1" xmlns="http://www.w3.org/2000/svg" xmlns:xlink="http://www.w3.org/1999/xlink" width="25px" height="25px">
<g>
	<path fill="#FFFFFF" d="M13,1.915L23.8,12.714L13,23.515l-10.8-10.798L13,1.915 M13,0.501l-0.707,0.707l-10.8,10.8l-0.707,0.708
		l0.707,0.708l10.799,10.797L13,24.929l0.707-0.707l10.801-10.8l0.707-0.707l-0.707-0.707L13.708,1.208L13,0.501L13,0.501z"/>
</g>
<rect x="5.362" y="5.079" transform="matrix(0.7071 -0.7071 0.7071 0.7071 -5.1832 12.9163)" fill="#693380" fill-opacity="0.2" stroke="#693380" width="15.274" height="15.272"/>
<g>
	<g>
		<defs>
			
				<rect id="SVGID_1_" x="5.363" y="5.08" transform="matrix(0.7071 -0.7071 0.7071 0.7071 -5.1837 12.9159)" width="15.274" height="15.272"/>
		</defs>
		<clipPath id="SVGID_2_">
			<use xlink:href="#SVGID_1_"  overflow="visible"/>
		</clipPath>
		<path clip-path="url(#SVGID_2_)" fill="#693380" d="M19.233,17.661l-2.916-3.376c-0.033-0.054-0.396-0.638-0.396-1.079
			c0-0.459,0.382-1.315,0.39-1.332c0.006-0.005,0.015-0.011,0.021-0.017L18.79,9.51c0.26-0.248,0.271-0.661,0.023-0.922
			l-0.051-0.052c-0.248-0.261-0.66-0.272-0.923-0.024l-2.307,2.204c-0.046-0.012-0.091-0.018-0.136-0.018h-0.926l-1.803-2.484
			c-0.208-0.293-0.615-0.363-0.909-0.155l-0.059,0.042c-0.294,0.208-0.363,0.615-0.155,0.909l1.885,2.596v3.089l-1.483,4.147
			c-0.122,0.338,0.055,0.711,0.394,0.834l0.068,0.023c0.339,0.121,0.712-0.057,0.833-0.396l1.444-4.035h0.662l2.84,3.289
			c0.235,0.271,0.647,0.305,0.92,0.066l0.057-0.047C19.438,18.345,19.47,17.933,19.233,17.661z"/>
	</g>
</g>
<g>
	<g>
		<defs>
			
				<rect id="SVGID_3_" x="5.359" y="5.077" transform="matrix(0.7071 -0.7071 0.7071 0.7071 -5.1827 12.9131)" width="15.275" height="15.272"/>
		</defs>
		<clipPath id="SVGID_4_">
			<use xlink:href="#SVGID_3_"  overflow="visible"/>
		</clipPath>
		<circle clip-path="url(#SVGID_4_)" fill="#693380" cx="15.214" cy="9.006" r="1.147"/>
	</g>
</g>
<g>
	<g>
		<defs>
			
				<rect id="SVGID_5_" x="5.359" y="5.077" transform="matrix(0.7071 -0.7071 0.7071 0.7071 -5.1827 12.9131)" width="15.275" height="15.272"/>
		</defs>
		<clipPath id="SVGID_6_">
			<use xlink:href="#SVGID_5_"  overflow="visible"/>
		</clipPath>
		<circle clip-path="url(#SVGID_6_)" fill="#693380" cx="10.139" cy="18.307" r="1.388"/>
	</g>
</g>
<g>
	<g>
		<defs>
			
				<rect id="SVGID_7_" x="5.363" y="5.08" transform="matrix(0.7071 -0.7071 0.7071 0.7071 -5.1837 12.9159)" width="15.274" height="15.272"/>
		</defs>
		<clipPath id="SVGID_8_">
			<use xlink:href="#SVGID_7_"  overflow="visible"/>
		</clipPath>
		<path clip-path="url(#SVGID_8_)" fill="#693380" d="M9.412,6.354c-0.74-0.74-1.768-0.892-2.395-0.284
			C6.333,6.733,6.561,7.726,7.3,8.465c0.579,0.58,1.271,0.876,1.896,0.625c0.257,0.088,0.692,0.267,1.113,0.58
			c-0.014,0.066,0.005,0.138,0.056,0.19l1.251,1.251c0.082,0.081,0.212,0.081,0.294,0l0.146-0.147c0.081-0.081,0.081-0.212,0-0.293
			l-1.252-1.252c-0.051-0.051-0.123-0.07-0.189-0.056c-0.314-0.422-0.494-0.86-0.582-1.117C10.279,7.626,9.99,6.931,9.412,6.354z
			 M10.228,9.28C9.952,9.13,9.691,9.009,9.461,8.916c0.07-0.059,0.14-0.122,0.209-0.19c0.068-0.069,0.132-0.139,0.19-0.21
			C9.957,8.745,10.077,9.006,10.228,9.28z"/>
	</g>
</g>
</svg>
