<?xml version="1.0" encoding="utf-8"?>
<svg version="1.1" xmlns="http://www.w3.org/2000/svg" xmlns:xlink="http://www.w3.org/1999/xlink" width="20px" height="20px">
<g transform="matrix(1.4165486,0,0,1.4165486,-10.077889,-10.077452)">
	<g>
		<path fill="#DE7233" d="M14.543,20.342c-0.271,0-0.765-0.179-1.263-0.683c-0.747-0.756-1.628-2.35-1.586-5.652
			c0.071-5.645,2.806-6.006,2.833-6.009l0.196-0.021l0.003,3.819h-0.176c-0.277,0-0.411,0.28-0.493,1.035
			c-0.079,0.743-0.079,1.59,0,2.386c0.107,1.04,0.198,1.409,0.496,1.409h0.176v3.714L14.543,20.342z"/>
		<path fill="#FFFFFF" d="M14.546,8.173l0.003,3.446c-0.492,0-0.603,0.589-0.669,1.192c-0.091,0.86-0.069,1.723,0,2.422
			c0.108,1.055,0.202,1.568,0.671,1.568v3.364c-0.003,0-0.006,0-0.009,0c-0.583,0-2.736-1.087-2.673-6.157
			C11.931,9.174,13.982,8.234,14.546,8.173 M14.899,7.78l-0.391,0.042c-1.009,0.109-2.933,1.542-2.991,6.182
			c-0.042,3.364,0.867,4.999,1.637,5.779c0.535,0.543,1.069,0.736,1.388,0.736h0.353l0.009-0.353v-3.364v-0.353h-0.353
			c-0.161,0-0.239-0.459-0.32-1.251c-0.078-0.782-0.078-1.617,0-2.349c0.066-0.606,0.164-0.876,0.318-0.876h0.353v-0.353
			l-0.003-3.446V7.78L14.899,7.78z"/>
	</g>
	<g>
		<path fill="#DE7233" d="M15.434,20.35v-3.727h0.669c0.303,0,0.55,0.245,0.55,0.546c0,0.007,0.003,2.625,0.003,2.625
			c0,0.306-0.248,0.555-0.553,0.555v-0.007c-0.099,0.008-0.252,0.008-0.492,0.008H15.434z"/>
		<path fill="#FFFFFF" d="M16.103,16.8c0.204,0,0.374,0.163,0.374,0.37c0,0.003,0.001,2.624,0.003,2.625
			c0,0.199-0.159,0.378-0.376,0.378H16.1c0,0.001-0.247,0.001-0.489,0.001V16.8H16.103 M16.103,16.447h-0.492h-0.353V16.8v3.374
			v0.353h0.353c0.205,0,0.366,0,0.489-0.012v0.011c0.405,0,0.732-0.328,0.732-0.731v-0.219l-0.001-0.001
			c-0.001-0.623-0.002-2.398-0.002-2.405C16.829,16.771,16.503,16.447,16.103,16.447L16.103,16.447z"/>
	</g>
	<g>
		<path fill="#DE7233" d="M15.431,11.796l-0.003-3.8h0.674c0.303,0,0.55,0.245,0.55,0.547c0,0.146,0,2.7,0,2.7
			c0,0.139-0.062,0.281-0.171,0.388c-0.106,0.105-0.243,0.165-0.374,0.165l-0.19,0.006L15.431,11.796z"/>
		<path fill="#FFFFFF" d="M16.103,8.173c0.204,0,0.374,0.164,0.374,0.371c0,0.003-0.001,2.7,0,2.7l0,0
			c0,0.198-0.192,0.376-0.369,0.376c-0.002,0-0.003,0-0.005,0l-0.186,0.006l-0.309-0.003l-0.003-3.449H16.103 M16.103,7.82h-0.498
			h-0.353v0.353l0.003,3.449v0.349l0.349,0.004l0.309,0.003l0.201-0.006c0,0,0,0,0.001,0c0.372,0,0.716-0.347,0.716-0.729v-0.353
			h-0.001c0-0.698,0.001-2.211,0.001-2.338C16.829,8.145,16.503,7.82,16.103,7.82L16.103,7.82z"/>
	</g>
</g>
<g transform="matrix(1.4165486,0,0,1.4165486,-10.077889,-10.077452)">
	<g>
		<path fill="#DE7233" d="M14.546,8.173c-0.564,0.061-2.615,1.001-2.676,5.836c-0.064,5.095,2.112,6.168,2.682,6.157v-3.364
			c-0.469,0-0.564-0.513-0.671-1.568c-0.069-0.699-0.091-1.562,0-2.422c0.066-0.603,0.177-1.192,0.669-1.192L14.546,8.173z"/>
	</g>
	<g>
		<path fill="#DE7233" d="M16.476,17.17c0-0.207-0.17-0.37-0.374-0.37H15.61v3.374c0.243,0,0.489,0,0.489-0.001h0.003
			c0.218,0,0.376-0.179,0.376-0.378l0,0C16.478,19.793,16.476,17.172,16.476,17.17z"/>
	</g>
	<g>
		<path fill="#DE7233" d="M16.476,8.544c0-0.207-0.17-0.371-0.374-0.371h-0.498l0.003,3.449l0.309,0.003l0.186-0.006
			c0.178,0.003,0.374-0.177,0.374-0.376l0,0C16.475,11.245,16.476,8.547,16.476,8.544z"/>
	</g>
</g>
</svg>
