<?xml version="1.0" encoding="utf-8"?>
<svg version="1.1" xmlns="http://www.w3.org/2000/svg" xmlns:xlink="http://www.w3.org/1999/xlink" width="20px" height="37px">
<g transform="matrix(0.06349045,0,0,0.06349045,-9.0561506,-19.39265)">
	<g>
		<path fill="#BD2877" d="M244.933,632.252V309.366h110.43v322.885H244.933z M319.647,468.41l0.031-134.156h-13.097
			c-3.146,8.152-8.367,15.427-15.574,21.657c-6.829,5.906-13.335,10.221-19.388,12.859v16.104
			c9.306-4.184,17.612-10.036,24.741-17.443l6.775-7.037V468.41H319.647z"/>
		<path fill="#FFFFFF" d="M351.425,313.304v315.01H248.87v-315.01H351.425 M267.682,390.718
			c12.097-4.445,22.595-11.29,31.516-20.557v102.186h24.387h0.031V330.316h-19.819c-2.769,8.621-7.898,16.158-15.366,22.618
			c-7.475,6.468-14.382,10.859-20.75,13.174V390.718 M359.301,305.429h-7.875H248.87h-7.875v7.875v315.01v7.875h7.875h102.555h7.875
			v-7.875v-315.01V305.429L359.301,305.429z M309.219,338.191h6.522v126.281h-8.667v-94.311v-19.534l-13.551,14.074
			c-5.322,5.53-11.336,10.152-17.965,13.805v-7.214c5.729-2.815,11.674-6.906,18.027-12.405
			C300.536,352.873,305.773,345.928,309.219,338.191L309.219,338.191z"/>
	</g>
</g>
<g transform="matrix(0.06349045,0,0,0.06349045,-9.0561506,-19.39265)">
	<path fill="#BD2877" d="M248.87,313.288v315.026h102.555V313.288H248.87z M323.585,472.332h-24.387V370.146
		c-8.921,9.267-19.419,16.112-31.516,20.557v-24.61c6.368-2.315,13.274-6.706,20.75-13.174c7.468-6.46,12.597-13.997,15.366-22.618
		h19.819v142.031H323.585z"/>
</g>
</svg>
