<?xml version="1.0" encoding="utf-8"?>
<svg version="1.1" xmlns="http://www.w3.org/2000/svg" xmlns:xlink="http://www.w3.org/1999/xlink" width="20px" height="20px">
<g>
	<path fill="#A0CC3A" d="M11.559,19.25c-2.72,0-5.115-1.689-6.003-4.219C2.718,14.328,0.75,11.842,0.75,8.939
		c0-3.467,2.853-6.287,6.36-6.287c0.381,0,0.762,0.034,1.136,0.1c1.203-1.274,2.888-2.002,4.645-2.002
		c3.508,0,6.359,2.82,6.359,6.287c0,1.529-0.563,2.997-1.591,4.148c0.173,0.576,0.26,1.174,0.26,1.776
		C17.919,16.43,15.064,19.25,11.559,19.25z"/>
	<path fill="#FFFFFF" d="M12.891,1C16.266,1,19,3.703,19,7.037c0,1.579-0.618,3.011-1.622,4.087c0.188,0.58,0.291,1.196,0.291,1.839
		c0,3.334-2.735,6.037-6.11,6.037c-2.718,0-5.019-1.755-5.812-4.18C3.029,14.207,1,11.811,1,8.939c0-3.334,2.735-6.037,6.11-6.037
		c0.419,0,0.829,0.042,1.225,0.122C9.454,1.785,11.077,1,12.891,1 M12.891,0.5c-1.779,0-3.49,0.72-4.733,1.984
		C7.812,2.429,7.46,2.402,7.11,2.402c-3.645,0-6.61,2.933-6.61,6.537c0,2.974,1.986,5.528,4.864,6.302
		C6.324,17.8,8.778,19.5,11.559,19.5c3.646,0,6.61-2.934,6.61-6.537c0-0.581-0.078-1.156-0.231-1.715
		c1.011-1.182,1.563-2.666,1.563-4.211C19.5,3.433,16.535,0.5,12.891,0.5L12.891,0.5z"/>
</g>
<path fill="#A0CC3A" d="M19,7.037C19,3.703,16.266,1,12.891,1c-1.813,0-3.437,0.785-4.556,2.023C7.939,2.944,7.529,2.902,7.11,2.902
	C3.735,2.902,1,5.604,1,8.939c0,2.872,2.029,5.268,4.747,5.881C6.54,17.245,8.84,19,11.559,19c3.375,0,6.11-2.703,6.11-6.037
	c0-0.643-0.103-1.259-0.291-1.839C18.382,10.048,19,8.616,19,7.037z"/>
</svg>
