<?xml version="1.0" encoding="utf-8"?>
<svg version="1.1" xmlns="http://www.w3.org/2000/svg" xmlns:xlink="http://www.w3.org/1999/xlink" width="25px" height="25px">
<g>
	<path fill="#FFFFFF" d="M13.001,1.914L23.8,12.713L13,23.514L2.2,12.715L13.001,1.914 M13.001,0.5l-0.707,0.707l-10.8,10.8
		l-0.707,0.708l0.707,0.708l10.799,10.797L13,24.928l0.707-0.707l10.8-10.8l0.707-0.707l-0.707-0.707L13.709,1.207L13.001,0.5
		L13.001,0.5z"/>
</g>
<rect x="5.364" y="5.079" transform="matrix(0.7071 -0.7071 0.7071 0.7071 -5.1826 12.9173)" fill="#693380" fill-opacity="0.2" stroke="#693380" width="15.274" height="15.271"/>
<polygon fill="#693380" points="11.396,8.513 11.396,11.311 7.333,11.311 7.333,14.118 11.396,14.118 11.396,16.916 18.671,12.714 
	"/>
</svg>
