<?xml version="1.0" encoding="utf-8"?>
<svg version="1.1" xmlns="http://www.w3.org/2000/svg" xmlns:xlink="http://www.w3.org/1999/xlink" width="21px" height="20px">
<g>
	<path fill="#BD2877" d="M0.25,13.658V9.326H0.5c3.475,0,5.085-0.954,6.506-1.795c1.078-0.638,2.009-1.189,3.491-1.189
		c1.481,0,2.411,0.551,3.487,1.189c1.42,0.842,3.029,1.795,6.51,1.795h0.104L20.67,9.4c0.088,0.088,0.088,0.088,0.074,4.009
		l-0.002,0.249H0.25z"/>
	<path fill="#FFFFFF" d="M10.498,6.592c3.333,0,3.838,2.984,9.997,2.984c0.014,0,0,3.832,0,3.832H0.5V9.576
		C6.651,9.576,7.165,6.592,10.498,6.592 M10.498,6.092c-1.55,0-2.555,0.595-3.618,1.225C5.485,8.141,3.907,9.076,0.5,9.076H0v0.5
		v3.832v0.5h0.5h19.994h0.498l0.002-0.498c0.016-4.025,0.016-4.025-0.146-4.187l-0.146-0.147h-0.207c-3.41,0-4.988-0.935-6.383-1.76
		C13.051,6.687,12.047,6.092,10.498,6.092L10.498,6.092z"/>
</g>
<path fill="#BD2877" d="M0.5,9.576c6.151,0,6.664-2.984,9.997-2.984c3.333,0,3.838,2.984,9.997,2.984c0.014,0,0,3.832,0,3.832H0.5
	V9.576L0.5,9.576z"/>
</svg>
