<?xml version="1.0" encoding="utf-8"?>
<svg version="1.1" xmlns="http://www.w3.org/2000/svg" xmlns:xlink="http://www.w3.org/1999/xlink" width="21px" height="31px">
<g>
	<path fill="#BD2877" d="M8.745,17.75V0.391h3.735v0.094c0.336,0.098,0.549,0.266,0.728,0.406c0.077,0.061,0.151,0.121,0.233,0.169
		c0.347,0.202,1.019,0.438,1.774,0.438c0.403,0,0.785-0.067,1.138-0.199c1.213-0.457,1.754-0.795,1.76-0.799l0.006,0.009
		c0.249-0.188,0.809-0.26,0.954-0.26c0.423,0,0.792,0.148,1.1,0.44l0.077,0.074v6.909l-0.422-0.401
		c-0.211-0.2-0.465-0.301-0.753-0.301c-0.384,0-0.7,0.177-0.703,0.179c-0.015,0.009-0.575,0.362-1.843,0.839
		c-0.407,0.153-0.848,0.23-1.311,0.23c-0.859,0-1.632-0.274-2.029-0.508C13.088,7.65,12.994,7.586,12.9,7.523
		c-0.143-0.096-0.271-0.185-0.42-0.25V17.75H8.745z"/>
	<path fill="#FFFFFF" d="M19.073,0.5c0.295,0,0.628,0.086,0.927,0.371v6.22c-0.299-0.283-0.631-0.37-0.925-0.37
		c-0.46,0-0.828,0.212-0.828,0.212s-0.548,0.348-1.806,0.822c-0.41,0.154-0.828,0.214-1.223,0.214c-0.814,0-1.533-0.256-1.902-0.474
		c-0.354-0.208-0.614-0.471-1.086-0.558V17.5H8.995V0.641h3.235v0.042c0.565,0.099,0.774,0.411,1.086,0.593
		c0.369,0.217,1.088,0.473,1.899,0.473c0.396,0,0.813-0.061,1.226-0.215c1.26-0.474,1.806-0.822,1.806-0.822l0,0
		C18.247,0.71,18.613,0.5,19.073,0.5 M19.073,0c-0.576,0-1.026,0.25-1.076,0.278l-0.169,0.097C17.6,0.5,17.096,0.752,16.266,1.064
		c-0.322,0.122-0.676,0.183-1.049,0.183c-0.756,0-1.392-0.254-1.646-0.404c-0.073-0.042-0.139-0.096-0.207-0.15
		c-0.154-0.122-0.35-0.275-0.633-0.388V0.182l-0.5-0.042H8.995h-0.5v0.5V17.5V18h0.5h3.235h0.5v-0.5V7.71
		c0.01,0.007,0.021,0.014,0.029,0.021c0.098,0.066,0.196,0.133,0.303,0.195c0.445,0.262,1.246,0.542,2.156,0.542
		c0.492,0,0.963-0.083,1.397-0.246c1.278-0.482,1.862-0.846,1.897-0.868l0,0c0.002,0,0.26-0.135,0.561-0.135
		c0.226,0,0.416,0.076,0.58,0.232L20.5,8.254V7.09v-6.22V0.657l-0.154-0.148C19.995,0.175,19.557,0,19.073,0L19.073,0z"/>
</g>
<path fill="#BD2877" d="M18.246,0.71c0,0-0.545,0.348-1.805,0.822c-1.258,0.474-2.576,0.064-3.125-0.257
	c-0.312-0.182-0.521-0.494-1.086-0.593V0.641H8.995V17.5h3.235V6.938c0.472,0.086,0.73,0.35,1.086,0.558
	c0.55,0.323,1.867,0.731,3.125,0.26c1.259-0.474,1.806-0.822,1.806-0.822S19.234,6.365,20,7.09v-6.22
	C19.234,0.142,18.246,0.71,18.246,0.71L18.246,0.71z"/>
</svg>
