<?xml version="1.0" encoding="utf-8"?>
<svg version="1.1" xmlns="http://www.w3.org/2000/svg" xmlns:xlink="http://www.w3.org/1999/xlink" width="25px" height="25px">
<g>
	<path fill="#FFFFFF" d="M13.287,1.914l10.799,10.799l-10.8,10.801l-10.8-10.799L13.287,1.914 M13.287,0.5L12.58,1.207l-10.8,10.8
		l-0.707,0.708l0.707,0.708l10.799,10.798l0.707,0.707l0.707-0.707L24.793,13.42l0.707-0.707l-0.707-0.707L13.994,1.207L13.287,0.5
		L13.287,0.5z"/>
</g>
<rect x="5.648" y="5.077" transform="matrix(0.7071 -0.7071 0.7071 0.7071 -5.0983 13.1178)" fill="#693380" fill-opacity="0.2" stroke="#693380" width="15.274" height="15.272"/>
<g>
	<g>
		<defs>
			
				<rect id="SVGID_1_" x="5.649" y="5.078" transform="matrix(0.7071 -0.7071 0.7071 0.7071 -5.0988 13.1182)" width="15.274" height="15.272"/>
		</defs>
		<clipPath id="SVGID_2_">
			<use xlink:href="#SVGID_1_"  overflow="visible"/>
		</clipPath>
		<path clip-path="url(#SVGID_2_)" fill="#693380" d="M19.641,15.049c0.041-0.188,0.063-0.386,0.063-0.585
			c0-1.526-1.235-2.765-2.767-2.765c-1.524,0-2.764,1.237-2.764,2.765c0,0.185,0.021,0.361,0.055,0.535
			c-0.633,0.346-1.067,1.009-1.067,1.779c0,1.123,0.91,2.031,2.033,2.031c0.485,0,0.932-0.176,1.278-0.463V20.2h0.932v-2.063
			c0.352,0.355,0.832,0.582,1.372,0.582c1.071,0,1.94-0.869,1.94-1.939C20.721,16.019,20.278,15.368,19.641,15.049z"/>
	</g>
</g>
<g>
	<g>
		<defs>
			
				<rect id="SVGID_3_" x="5.649" y="5.078" transform="matrix(0.7071 -0.7071 0.7071 0.7071 -5.0988 13.1182)" width="15.274" height="15.272"/>
		</defs>
		<clipPath id="SVGID_4_">
			<use xlink:href="#SVGID_3_"  overflow="visible"/>
		</clipPath>
		<path clip-path="url(#SVGID_4_)" fill="#693380" d="M12.577,13.158h0.846c0.397-1.067,1.26-1.895,2.344-2.254v-2.05h1.313
			l-5.609-3.628L5.853,8.854h1.316v4.384h3.188V9.756h2.219L12.577,13.158L12.577,13.158z"/>
	</g>
</g>
</svg>
