<?xml version="1.0" encoding="utf-8"?>
<svg version="1.1" xmlns="http://www.w3.org/2000/svg" xmlns:xlink="http://www.w3.org/1999/xlink" width="20px" height="20px">
<g transform="matrix(0,0.05355555,-0.05355555,0,32.544503,-5.9408362)">
	<g>
		<path fill="#228CCC" d="M443.706,550.498c0,8.37-6.802,15.171-15.171,15.171H166.752c-8.361,0-15.162-6.802-15.162-15.171V291.415
			c0-8.37,6.802-15.171,15.171-15.171h261.773c8.37,0,15.171,6.801,15.171,15.171V550.498z M406.362,306.586H188.934v55.378h217.427
			V306.586z M406.362,392.287H188.934v57.311h217.427V392.287z M406.362,479.94H188.934v55.387h217.427V479.94z"/>
		<path fill="#FFFFFF" d="M156.258,291.415c0-5.799,4.723-10.503,10.503-10.503h261.773c5.799,0,10.503,4.686,10.503,10.503v259.084
			c0,5.771-4.777,10.503-10.503,10.503H166.752c-5.771,0-10.494-4.732-10.494-10.503V291.415 M411.03,366.632v-64.714H184.266
			v64.714H411.03 M411.03,454.266v-66.647H184.266v66.647H411.03 M411.03,539.995v-64.723H184.266v64.723H411.03 M146.922,291.415
			v259.084c0,10.941,8.898,19.839,19.83,19.839h261.782c10.941,0,19.839-8.898,19.839-19.839V291.415
			c0-10.941-8.898-19.839-19.839-19.839H166.761C155.821,271.575,146.922,280.474,146.922,291.415L146.922,291.415z
			 M193.602,357.296v-46.042h208.091v46.042H193.602L193.602,357.296z M193.602,444.93v-47.975h208.091v47.975H193.602
			L193.602,444.93z M193.602,530.659v-46.051h208.091v46.051H193.602L193.602,530.659z"/>
	</g>
</g>
<g transform="matrix(0,0.05355555,-0.05355555,0,32.544503,-5.9408362)">
	<path fill="#228CCC" d="M428.534,280.912H166.761c-5.78,0-10.503,4.704-10.503,10.503v259.093c0,5.771,4.723,10.503,10.494,10.503
		h261.782c5.726,0,10.503-4.732,10.503-10.503V291.415C439.037,285.616,434.333,280.912,428.534,280.912L428.534,280.912z
		 M411.029,301.918v64.732H184.266v-64.732H411.029L411.029,301.918z M411.029,387.619v66.656H184.266v-66.656H411.029
		L411.029,387.619z M184.266,540.004v-64.723h226.763v64.723H184.266L184.266,540.004z"/>
</g>
</svg>
