<?xml version="1.0" encoding="utf-8"?>
<svg version="1.1" xmlns="http://www.w3.org/2000/svg" xmlns:xlink="http://www.w3.org/1999/xlink" width="25px" height="25px">
<g>
	<path fill="#FFFFFF" d="M13.001,1.781l10.798,10.799L13,23.381L2.2,12.583L13.001,1.781 M13.001,0.367l-0.707,0.707l-10.8,10.8
		l-0.707,0.708l0.707,0.708l10.799,10.797L13,24.795l0.707-0.707l10.799-10.8l0.707-0.707l-0.707-0.707L13.709,1.074L13.001,0.367
		L13.001,0.367z"/>
</g>
<rect x="5.363" y="4.946" transform="matrix(0.7071 -0.7071 0.7071 0.7071 -5.0885 12.8775)" fill="#693380" fill-opacity="0.2" stroke="#693380" width="15.275" height="15.272"/>
<polygon fill="#693380" points="9.959,17.66 6.951,10.532 6.369,10.532 6.369,9.663 7.526,9.663 10.537,16.791 15.465,16.791 
	18.475,9.663 19.633,9.663 19.633,10.532 19.051,10.532 16.043,17.66 "/>
<path fill="#693380" d="M10.736,12.375c0.627,0,1.097-0.339,1.478-0.61c0.27-0.195,0.506-0.364,0.715-0.364
	c0.169,0,0.323,0.123,0.574,0.333c0.316,0.271,0.756,0.641,1.416,0.641c0.633,0,1.068-0.34,1.424-0.614
	c0.166-0.129,0.297-0.217,0.418-0.278l0.568-1.35c-0.094-0.017-0.188-0.036-0.293-0.036c-0.678,0-1.127,0.352-1.492,0.634
	c-0.531,0.411-0.688,0.438-1.203,0.007c-0.317-0.271-0.756-0.641-1.412-0.641c-0.631,0-1.1,0.339-1.477,0.61
	c-0.27,0.195-0.505,0.364-0.716,0.364c-0.161,0-0.283-0.094-0.542-0.326c-0.3-0.27-0.722-0.648-1.374-0.648
	c-0.058,0-0.104,0.016-0.158,0.02l0.682,1.615C9.655,12.009,10.077,12.375,10.736,12.375z"/>
</svg>
