<?xml version="1.0" encoding="utf-8"?>
<svg version="1.1" xmlns="http://www.w3.org/2000/svg" xmlns:xlink="http://www.w3.org/1999/xlink" width="21px" height="20px">
<g>
	<path fill="#248BCB" d="M10.5,17.404c-5.652,0-10.25-3.32-10.25-7.403c0-4.084,4.598-7.406,10.25-7.406
		c5.652,0.002,10.25,3.324,10.25,7.406C20.75,14.084,16.152,17.404,10.5,17.404z M10.5,4.124c-4.809,0-8.722,2.637-8.722,5.878
		c0,3.239,3.913,5.875,8.722,5.875c4.811,0,8.723-2.637,8.723-5.875S15.311,4.125,10.5,4.124L10.5,4.124z"/>
	<path fill="#FFFFFF" d="M10.5,2.846c5.514,0.002,10,3.213,10,7.156c0,3.944-4.486,7.153-10,7.153c-5.514,0-10-3.209-10-7.153
		C0.5,6.057,4.986,2.846,10.5,2.846 M10.5,16.127c4.948,0,8.973-2.746,8.973-6.125c0-3.377-4.023-6.126-8.973-6.128
		c-4.947,0-8.972,2.75-8.972,6.128C1.528,13.381,5.553,16.127,10.5,16.127 M10.5,2.346L10.5,2.346C4.71,2.346,0,5.781,0,10.001
		c0,4.221,4.71,7.653,10.5,7.653S21,14.221,21,10.001C21,5.783,16.29,2.348,10.5,2.346L10.5,2.346z M10.5,15.627
		c-4.671,0-8.472-2.523-8.472-5.625c0-3.104,3.8-5.628,8.472-5.628c4.672,0.002,8.473,2.527,8.473,5.628
		C18.973,13.104,15.172,15.627,10.5,15.627L10.5,15.627z"/>
</g>
<g>
	<polygon fill="#248BCB" points="11.516,13.604 10.521,9.452 9.528,13.604 7.817,13.604 6.279,6.448 8.033,6.448 8.754,10.098 
		9.628,6.448 11.464,6.448 12.298,10.142 13.029,6.448 14.762,6.448 13.197,13.604 	"/>
	<path fill="#FFFFFF" d="M14.451,6.698l-1.455,6.656h-1.283L10.52,8.377l-1.189,4.976H8.02L6.589,6.698h1.238L8.73,11.27
		l1.095-4.571h1.438l1.051,4.649l0.92-4.649L14.451,6.698 M15.072,6.198h-0.621h-1.217h-0.411l-0.079,0.403l-0.462,2.334
		l-0.531-2.348l-0.088-0.39h-0.399H9.825H9.431L9.339,6.582L8.777,8.926L8.318,6.601l-0.08-0.403H7.827H6.589H5.97L6.1,6.803
		l1.431,6.656l0.085,0.395H8.02h1.312h0.395l0.092-0.383l0.704-2.943l0.706,2.943l0.092,0.383h0.396h1.283H13.4l0.086-0.395
		l1.455-6.654L15.072,6.198L15.072,6.198z"/>
</g>
<path fill="#248BCB" d="M10.521,17.154c-5.514,0-10-3.209-10-7.154s4.486-7.156,10-7.156c5.514,0.002,10,3.213,10,7.156
	C20.521,13.945,16.034,17.154,10.521,17.154z M10.521,3.874c-4.947,0-8.972,2.75-8.972,6.128c0,3.377,4.024,6.125,8.972,6.125
	s8.973-2.746,8.973-6.125C19.493,6.625,15.469,3.875,10.521,3.874z"/>
<path fill="#248BCB" d="M8.04,13.354L6.609,6.698h1.238L8.75,11.27l1.095-4.572h1.438l1.051,4.65l0.92-4.65h1.217l-1.455,6.656
	h-1.283L10.54,8.377l-1.189,4.976H8.04L8.04,13.354z"/>
</svg>
