<?xml version="1.0" encoding="utf-8"?>
<svg version="1.1" xmlns="http://www.w3.org/2000/svg" xmlns:xlink="http://www.w3.org/1999/xlink" width="25px" height="25px">
<rect x="5.364" y="5.363" transform="matrix(0.7071 -0.7071 0.7071 0.7071 -5.3836 12.9995)" fill="#693380" fill-opacity="0.2" stroke="#693380" width="15.274" height="15.272"/>
<path fill="#693380" d="M10.401,14.312c0.721,0,1.261-0.393,1.699-0.704c0.311-0.224,0.582-0.417,0.823-0.417
	c0.194,0,0.372,0.141,0.661,0.384c0.365,0.31,0.871,0.737,1.629,0.737c0.727,0,1.229-0.393,1.637-0.708
	c0.193-0.148,0.342-0.25,0.48-0.319l0.654-1.553c-0.107-0.02-0.215-0.041-0.338-0.041c-0.777,0-1.297,0.405-1.715,0.729
	c-0.611,0.473-0.793,0.504-1.385,0.008c-0.365-0.311-0.871-0.737-1.625-0.737c-0.726,0-1.265,0.39-1.698,0.702
	c-0.312,0.224-0.582,0.418-0.824,0.418c-0.185,0-0.325-0.108-0.623-0.375c-0.346-0.311-0.831-0.745-1.581-0.745
	c-0.066,0-0.12,0.018-0.182,0.023l0.784,1.857C9.158,13.89,9.642,14.312,10.401,14.312z"/>
<g>
	<path fill="#FFFFFF" d="M13,2.2L23.799,13L13,23.8l-10.8-10.798L13,2.2 M13,0.786l-0.707,0.707l-10.8,10.8l-0.707,0.708
		l0.707,0.708l10.799,10.798L13,25.214l0.706-0.707l10.801-10.8L25.213,13l-0.707-0.707L13.707,1.493L13,0.786L13,0.786z"/>
</g>
</svg>
