<?xml version="1.0" encoding="utf-8"?>
<svg version="1.1" xmlns="http://www.w3.org/2000/svg" xmlns:xlink="http://www.w3.org/1999/xlink" width="20px" height="20px">
<g transform="matrix(1.3227513,0,0,1.3227513,-8.7480156,-8.7473542)">
	<g>
		<path fill="#BD2877" d="M14.173,20.032c-3.23,0-5.858-2.628-5.858-5.859c0-1.165,0.341-2.289,0.986-3.251l0.12-0.179l3.216,2.827
			l-0.036,0.117c-0.055,0.181-0.081,0.335-0.081,0.485c0,0.911,0.742,1.652,1.653,1.652c0.912,0,1.654-0.741,1.654-1.652
			c0-0.911-0.742-1.652-1.654-1.652c-0.234,0-0.465,0.051-0.687,0.153l-0.111,0.051L10.164,9.9l0.163-0.142
			c1.07-0.931,2.436-1.444,3.846-1.444c3.231,0,5.859,2.628,5.859,5.859S17.404,20.032,14.173,20.032z"/>
		<path fill="#FFFFFF" d="M14.173,8.503c3.131,0,5.67,2.538,5.67,5.67c0,3.132-2.54,5.67-5.67,5.67c-3.13,0-5.669-2.538-5.669-5.67
			c0-1.165,0.35-2.246,0.954-3.146l2.963,2.604c-0.053,0.172-0.09,0.352-0.09,0.541c0,1.018,0.825,1.841,1.842,1.841
			c1.018,0,1.843-0.822,1.843-1.841c0-1.019-0.825-1.841-1.843-1.841c-0.275,0-0.533,0.064-0.765,0.17l-2.957-2.6
			C11.448,9.033,12.747,8.503,14.173,8.503 M14.173,8.125c-1.456,0-2.866,0.529-3.97,1.491L9.877,9.899l0.324,0.285l2.957,2.6
			l0.184,0.162l0.223-0.102c0.197-0.09,0.402-0.136,0.608-0.136c0.808,0,1.465,0.656,1.465,1.463c0,0.807-0.657,1.463-1.465,1.463
			c-0.807,0-1.464-0.656-1.464-1.463c0-0.131,0.023-0.268,0.073-0.43l0.072-0.233l-0.183-0.161l-2.963-2.604l-0.323-0.284
			l-0.24,0.357c-0.666,0.993-1.018,2.154-1.018,3.357c0,3.335,2.713,6.048,6.047,6.048c3.335,0,6.048-2.713,6.048-6.048
			S17.508,8.125,14.173,8.125L14.173,8.125z"/>
	</g>
</g>
<g transform="matrix(1.3227513,0,0,1.3227513,-8.7480156,-8.7473542)">
	<path fill="#BD2877" d="M14.174,8.503c-1.426,0-2.725,0.53-3.722,1.398l2.957,2.6c0.232-0.106,0.49-0.17,0.765-0.17
		c1.017,0,1.843,0.822,1.843,1.841c0,1.018-0.825,1.841-1.843,1.841c-1.017,0-1.842-0.822-1.842-1.841
		c0-0.189,0.037-0.369,0.09-0.541l-2.963-2.604c-0.604,0.9-0.954,1.981-0.954,3.146c0,3.132,2.539,5.67,5.669,5.67
		c3.13,0,5.67-2.538,5.67-5.67C19.844,11.041,17.304,8.503,14.174,8.503z"/>
</g>
</svg>
