<?xml version="1.0" encoding="utf-8"?>
<svg version="1.1" xmlns="http://www.w3.org/2000/svg" xmlns:xlink="http://www.w3.org/1999/xlink" width="32px" height="34px">
<g>
	<polygon fill="#BD2877" points="13.975,17.971 13.975,0.36 30.723,6.641 16.563,11.951 16.563,17.971 	"/>
	<path fill="#FFFFFF" d="M14.225,0.721l15.785,5.92l-13.696,5.136v5.944h-2.088V12.56V7.192L14.225,0.721 M13.725,0v0.722v6.47
		v5.368v5.161v0.5h0.5h2.088h0.5v-0.5v-5.597l13.373-5.015l1.248-0.468l-1.248-0.468L14.4,0.253L13.725,0L13.725,0z"/>
</g>
<polygon fill="#BD2877" points="14.225,7.192 14.225,12.56 14.225,17.721 16.313,17.721 16.313,11.777 30.01,6.641 14.225,0.721 "/>
</svg>
