<?xml version="1.0" encoding="utf-8"?>
<svg version="1.1" xmlns="http://www.w3.org/2000/svg" xmlns:xlink="http://www.w3.org/1999/xlink" width="22px" height="22px">
<g transform="matrix(1.6096579,0,0,1.6096579,-12.814486,-12.813681)">
	<g>
		<polygon fill="#BD2877" points="10.524,13.755 12.321,9.902 16.208,9.902 14.41,13.755 		"/>
		<path fill="#FFFFFF" d="M15.964,10.057L14.311,13.6h-3.543l1.652-3.543H15.964 M16.452,9.746h-0.488H12.42h-0.198l-0.084,0.179
			l-1.652,3.543L10.28,13.91h0.487h3.543h0.198l0.084-0.179l1.653-3.543L16.452,9.746L16.452,9.746z"/>
	</g>
	<g>
		<polygon fill="#BD2877" points="15.568,13.755 17.365,9.902 21.251,9.902 19.454,13.755 		"/>
		<path fill="#FFFFFF" d="M21.007,10.057L19.355,13.6h-3.544l1.653-3.543H21.007 M21.495,9.746h-0.488h-3.543h-0.198l-0.084,0.179
			l-1.654,3.543l-0.206,0.442h0.488h3.544h0.198l0.084-0.179l1.652-3.543L21.495,9.746L21.495,9.746z"/>
	</g>
	<g>
		<polygon fill="#BD2877" points="8.338,18.444 10.135,14.59 14.021,14.59 12.224,18.444 		"/>
		<path fill="#FFFFFF" d="M13.777,14.746l-1.652,3.543H8.582l1.652-3.543H13.777 M14.265,14.435h-0.487h-3.544h-0.198l-0.084,0.18
			L8.3,18.158L8.094,18.6h0.487h3.543h0.198l0.084-0.18l1.652-3.543L14.265,14.435L14.265,14.435z"/>
	</g>
	<g>
		<polygon fill="#BD2877" points="13.381,18.444 15.179,14.59 19.065,14.59 17.268,18.444 		"/>
		<path fill="#FFFFFF" d="M18.82,14.746l-1.652,3.543h-3.543l1.652-3.543H18.82 M19.309,14.435H18.82h-3.542H15.08l-0.084,0.18
			l-1.652,3.543L13.138,18.6h0.487h3.543h0.198l0.084-0.18l1.652-3.543L19.309,14.435L19.309,14.435z"/>
	</g>
</g>
<g transform="matrix(1.6096579,0,0,1.6096579,-12.814486,-12.813681)">
	<polygon fill="#BD2877" points="10.768,13.6 12.42,10.057 15.964,10.057 14.311,13.6 	"/>
	<polygon fill="#BD2877" points="15.812,13.6 17.464,10.057 21.007,10.057 19.355,13.6 	"/>
	<polygon fill="#BD2877" points="8.582,18.289 10.234,14.746 13.777,14.746 12.125,18.289 	"/>
	<polygon fill="#BD2877" points="13.625,18.289 15.278,14.746 18.82,14.746 17.168,18.289 	"/>
</g>
</svg>
