<?xml version="1.0" encoding="UTF-8" standalone="no"?>
<!-- Created with Inkscape (http://www.inkscape.org/) -->

<svg
   xmlns:dc="http://purl.org/dc/elements/1.1/"
   xmlns:cc="http://creativecommons.org/ns#"
   xmlns:rdf="http://www.w3.org/1999/02/22-rdf-syntax-ns#"
   xmlns:svg="http://www.w3.org/2000/svg"
   xmlns="http://www.w3.org/2000/svg"
   xmlns:sodipodi="http://sodipodi.sourceforge.net/DTD/sodipodi-0.dtd"
   xmlns:inkscape="http://www.inkscape.org/namespaces/inkscape"
   width="336"
   height="336"
   id="svg2"
   version="1.1"
   inkscape:version="0.48.4 r9939"
   sodipodi:docname="drawing.svg"
   inkscape:export-filename="/home/marco/MD2/Projecten/BGTImport/drawing.png"
   inkscape:export-xdpi="6.4285712"
   inkscape:export-ydpi="6.4285712">
  <defs
     id="defs4" />
  <sodipodi:namedview
     id="base"
     pagecolor="#ffffff"
     bordercolor="#666666"
     borderopacity="1.0"
     inkscape:pageopacity="0.0"
     inkscape:pageshadow="2"
     inkscape:zoom="1.3542601"
     inkscape:cx="157.57143"
     inkscape:cy="132.42855"
     inkscape:document-units="px"
     inkscape:current-layer="layer1"
     showgrid="false"
     inkscape:window-width="1319"
     inkscape:window-height="744"
     inkscape:window-x="47"
     inkscape:window-y="24"
     inkscape:window-maximized="1"
     fit-margin-top="0"
     fit-margin-left="0"
     fit-margin-right="0"
     fit-margin-bottom="0" />
  <metadata
     id="metadata7">
    <rdf:RDF>
      <cc:Work
         rdf:about="">
        <dc:format>image/svg+xml</dc:format>
        <dc:type
           rdf:resource="http://purl.org/dc/dcmitype/StillImage" />
        <dc:title></dc:title>
      </cc:Work>
    </rdf:RDF>
  </metadata>
  <g
     inkscape:label="Layer 1"
     inkscape:groupmode="layer"
     id="layer1"
     transform="translate(-343.42857,-493.79073)">
    <g
       id="g2990"
       transform="matrix(0.91648928,0,0,1.1104158,323.37019,356.79278)">
      <path
         inkscape:connector-curvature="0"
         d="m 334,140 h -64 c -4.4,0 -8,3.6 -8,8 0,4.4 3.6,8 8,8 h 64 c 13.2,0 24,10.8 24,24 v 192 c 0,13.2 -10.8,24 -24,24 H 78 C 64.8,396 54,385.2 54,372 V 180 c 0,-13.2 10.8,-24 24,-24 h 72 c 4.4,0 8,-3.6 8,-8 0,-4.4 -3.6,-8 -8,-8 H 78 c -22,0 -40,18 -40,40 v 192 c 0,22 18,40 40,40 h 256 c 22,0 40,-18 40,-40 V 180 c 0,-22 -18,-40 -40,-40 z"
         id="path2992" />
    </g>
    <g
       id="g2998"
       transform="translate(305.42857,417.79075)" />
    <g
       id="g3000"
       transform="translate(305.42857,417.79075)" />
    <g
       id="g3002"
       transform="translate(305.42857,417.79075)" />
    <g
       id="g3004"
       transform="translate(305.42857,417.79075)" />
    <g
       id="g3006"
       transform="translate(305.42857,417.79075)" />
    <g
       id="g3008"
       transform="translate(305.42857,417.79075)" />
    <g
       id="g3010"
       transform="translate(305.42857,417.79075)" />
    <g
       id="g3012"
       transform="translate(305.42857,417.79075)" />
    <g
       id="g3014"
       transform="translate(305.42857,417.79075)" />
    <g
       id="g3016"
       transform="translate(305.42857,417.79075)" />
    <g
       id="g3018"
       transform="translate(305.42857,417.79075)" />
    <g
       id="g3020"
       transform="translate(305.42857,417.79075)" />
    <g
       id="g3022"
       transform="translate(305.42857,417.79075)" />
    <g
       id="g3024"
       transform="translate(305.42857,417.79075)" />
    <g
       id="g3026"
       transform="translate(305.42857,417.79075)" />
    <text
       xml:space="preserve"
       style="font-size:3.00529122px;font-style:normal;font-weight:normal;line-height:125%;letter-spacing:0px;word-spacing:0px;fill:#000000;fill-opacity:1;stroke:none;font-family:Sans"
       x="374.34668"
       y="660.90472"
       id="text3098"
       sodipodi:linespacing="125%"
       transform="scale(1.0495465,0.95279249)"><tspan
         sodipodi:role="line"
         id="tspan3100"
         x="374.34668"
         y="660.90472"
         style="font-size:108.19047546px">BGT</tspan></text>
    <path
       d="m 445.88023,737.44714 c -2.78492,1.25341 -2.78492,3.1335 0,4.38691 l 61.61645,27.73164 c 1.39246,0.62671 3.13304,0.94005 4.87361,0.94005 1.74058,0 3.48115,-0.31334 4.87362,-0.94005 l 61.61643,-27.73164 c 2.78493,-1.25341 2.78493,-3.1335 0,-4.38691 -2.78492,-1.25341 -6.9623,-1.25341 -9.74723,0 l -49.78051,22.40465 v -83.35158 c 0,-1.72344 -3.13304,-3.13352 -6.96231,-3.13352 -3.82926,0 -6.96231,1.41008 -6.96231,3.13352 v 83.35158 l -49.78051,-22.40465 c -2.78492,-1.25341 -6.96231,-1.25341 -9.74724,0 z"
       id="path13"
       inkscape:connector-curvature="0" />
  </g>
</svg>
